<?xml version="1.0" encoding="UTF-8"?>
<svg id="Layer_2" xmlns="http://www.w3.org/2000/svg" viewBox="0 0 6056.77 5517.32">
  <defs>
    <style>
      .cls-1 {
        opacity: .2;
      }

      .cls-2 {
        fill: #b7bde1;
      }
    </style>
  </defs>
  <g id="Layer_2-2" data-name="Layer_2" class="cls-1">
    <g id="Layer_2-2">
      <g id="Layer_1-2">
        <g>
          <g>
            <path class="cls-2" d="M476.21,5517.32c-.51,0-1.01-.04-1.5-.11l-35.5-.03c-5.52,0-9.99-4.48-9.99-10,0-.05.05-3.26.05-3.26l.12-4.83c.09-3.24.23-6.62.36-10.03v-.31c.31-6.86.7-14.11,1.17-21.6.88-13.85,2.09-28.76,3.6-44.31,2.89-29.47,6.73-59.63,11.42-89.66,9.33-59.74,22.01-119.45,37.71-177.47.69-2.56,2.37-4.74,4.68-6.06,1.53-.88,3.25-1.33,4.98-1.33.88,0,1.75.12,2.61.35l35.7,9.67c5.33,1.44,8.48,6.93,7.04,12.26-15.16,56.03-27.41,113.68-36.41,171.36-4.52,28.9-8.23,57.97-11.02,86.41-1.43,14.74-2.59,29.01-3.44,42.4-.44,6.78-.81,13.64-1.1,20.4-.12,2.93-.26,6.37-.34,9.52l-.11,4.4-.03,1.72v.51c0,5.52-4.48,10-10,10Z"/>
            <path class="cls-2" d="M439.22,5507.15l.05-3.07.12-4.74c.09-3.27.23-6.72.37-10.19.3-6.97.69-14.14,1.15-21.37.92-14.47,2.14-29.21,3.57-43.98,2.9-29.58,6.71-59.38,11.35-89.08,9.28-59.43,21.82-118.5,37.48-176.4l35.7,9.67c-15.3,56.56-27.57,114.34-36.64,172.43-4.54,29.03-8.26,58.15-11.09,86.98-1.4,14.4-2.58,28.73-3.47,42.74-.45,7-.82,13.92-1.11,20.6-.14,3.32-.27,6.62-.35,9.69l-.11,4.41-.03,1.89v.59-.11l-36.99-.03v-.03h0Z"/>
            <path class="cls-2" d="M83.01,5516.89c-.1,0-.2,0-.31,0-1.89,0-3.67-.53-5.18-1.44-2.9-1.75-4.84-4.93-4.84-8.57,0-.18,0-.36.01-.54l.05-5.25.07-4.38.2-8.05c.14-4.68.31-9.5.56-15.22.39-9.14.9-18.64,1.56-29.04,1.16-18.13,2.65-36.53,4.57-56.25,3.54-36.17,8.25-73.17,14-109.97,11.36-72.69,26.79-145.28,45.86-215.76.69-2.56,2.37-4.74,4.68-6.06,1.53-.88,3.25-1.33,4.98-1.33.88,0,1.75.12,2.61.35l35.7,9.67c5.33,1.44,8.48,6.93,7.04,12.26-18.54,68.5-33.53,139.03-44.56,209.65-5.58,35.73-10.15,71.64-13.59,106.72-1.84,18.87-3.28,36.64-4.41,54.34-.62,9.65-1.11,18.76-1.5,27.84-.19,4.5-.38,9.38-.52,14.39l-.19,7.6-.07,3.99-.05,5.14c-.05,5.49-4.51,9.91-10,9.91,0,0-36.67-.03-36.67-.03Z"/>
            <path class="cls-2" d="M82.7,5506.9l.05-5.72.07-4.3.2-7.96c.15-5.17.34-10.12.55-15.04.42-9.81.95-19.36,1.55-28.83,1.21-18.92,2.75-37.47,4.54-55.92,3.61-36.85,8.28-73.22,13.93-109.39,11.3-72.31,26.46-143.84,45.63-214.69l35.7,9.67c-18.81,69.51-33.7,139.74-44.79,210.72-5.54,35.5-10.12,71.19-13.66,107.29-1.76,18.07-3.26,36.22-4.44,54.68-.59,9.23-1.1,18.54-1.51,28.05-.2,4.77-.39,9.56-.53,14.54l-.19,7.63-.07,4.07-.05,5.22-36.99-.03h.01Z"/>
            <path class="cls-2" d="M567.75,5419.4c-.39,0-.78-.02-1.18-.07l-557.74-65.27c-2.63-.31-5.04-1.65-6.68-3.73-1.64-2.08-2.4-4.73-2.09-7.37,5.99-51.08,14.1-103.1,24.08-154.63.91-4.7,5.03-8.1,9.82-8.1.64,0,1.29.06,1.92.18l551.23,107.08c5.42,1.05,8.96,6.3,7.91,11.72-7.22,37.19-13.06,74.65-17.35,111.34-.6,5.09-4.92,8.84-9.92,8.84Z"/>
            <path class="cls-2" d="M33.98,5190.24l551.23,107.08c-7.23,37.24-13.11,74.84-17.47,112.08l-557.74-65.27c6.09-51.91,14.11-103.03,23.97-153.89h.01Z"/>
          </g>
          <g>
            <path class="cls-2" d="M529.15,5177.54c-.87,0-1.75-.11-2.62-.35l-35.7-9.68c-4.84-1.31-7.96-6-7.3-10.97.08-.6.21-1.19.4-1.75,15.99-58.81,35.19-116.08,57.07-170.24,0,0,4.23-10.38,4.24-10.41,0,0,6.48-15.4,6.5-15.44l2.21-5.08c.6-1.36,1.18-2.71,1.76-4.05.89-2.06,1.78-4.12,2.7-6.18l2.1-4.68c2.29-5.11,4.65-10.39,7.08-15.58,2.44-5.37,5-10.73,7.48-15.91l1.98-4.16c1.02-2.14,2.06-4.26,3.11-6.38.59-1.2,1.18-2.4,1.77-3.6l.82-1.67c1.34-2.73,2.74-5.56,4.17-8.35,0,0,4.99-9.84,5.01-9.88,0,0,7.67-14.66,7.69-14.7,0,0,7.86-14.55,7.88-14.59l5.33-9.55s2.71-4.86,2.73-4.91l2.73-4.73c1.85-3.21,5.21-5,8.67-5,1.69,0,3.39.43,4.96,1.32l32.1,18.38c2.3,1.32,3.99,3.5,4.68,6.06s.35,5.29-.97,7.59c-53.93,94.11-97.31,200.8-128.92,317.11-1.21,4.45-5.24,7.38-9.64,7.38Z"/>
            <path class="cls-2" d="M493.45,5157.86c15.72-57.89,34.62-114.64,56.81-169.57l4.19-10.28,4.3-10.22,2.15-5.11,2.21-5.08c1.48-3.38,2.92-6.78,4.42-10.15,3.02-6.72,6-13.47,9.12-20.14,3.05-6.7,6.25-13.32,9.41-19.96,1.58-3.32,3.23-6.59,4.84-9.89,1.62-3.29,3.23-6.59,4.9-9.85l4.97-9.8,5.09-9.73,2.54-4.86,2.6-4.82,5.21-9.64,5.33-9.55,2.66-4.78,2.73-4.73,32.1,18.38c-56.16,97.99-99.16,206.38-129.89,319.46l-35.7-9.68h.01Z"/>
            <path class="cls-2" d="M185.06,5084.2c-.87,0-1.75-.11-2.62-.35l-35.7-9.68c-4.84-1.31-7.96-6-7.3-10.97.08-.58.21-1.15.38-1.7,19.72-72.52,43.48-143.36,70.63-210.57,0,0,5.3-13,5.31-13.03l5.4-12.87,2.73-6.46,4.53-10.45c1.29-2.99,2.59-5.97,3.92-8.95l1.45-3.25c3.28-7.35,6.68-14.95,10.17-22.42,3.39-7.41,6.99-14.94,10.47-22.23l1.54-3.22c1.34-2.81,2.72-5.59,4.09-8.38.71-1.44,1.42-2.88,2.13-4.33l.92-1.87c1.75-3.56,3.57-7.24,5.43-10.88,0,0,6.39-12.59,6.41-12.62l6.53-12.49s3.31-6.32,3.33-6.35l3.35-6.21s6.77-12.5,6.79-12.54l6.88-12.35s3.5-6.25,3.52-6.29l3.53-6.14c1.85-3.22,5.22-5.02,8.68-5.02,1.69,0,3.39.43,4.96,1.32l32.1,18.38c2.31,1.32,3.99,3.5,4.68,6.07s.34,5.3-.99,7.6l-3.42,5.94-3.34,5.97-6.68,12-6.53,12.07-3.23,6-3.18,6.05-6.35,12.14-6.2,12.22c-2.08,4.06-4.11,8.19-6.07,12.18-.69,1.41-1.4,2.84-2.1,4.27-1.31,2.66-2.62,5.31-3.9,7.98l-1.85,3.87c-3.25,6.8-6.61,13.84-9.77,20.77-3.29,7.04-6.49,14.2-9.59,21.12l-1.69,3.77c-1.13,2.54-2.24,5.09-3.35,7.65-.69,1.6-1.39,3.21-2.09,4.81l-2.71,6.24-2.62,6.21-5.26,12.52-5.13,12.58c-26.34,65.17-49.41,133.98-68.56,204.49-1.21,4.45-5.24,7.38-9.65,7.38Z"/>
            <path class="cls-2" d="M149.36,5064.51c19.24-70.82,42.52-140.92,70.36-209.83l5.26-12.91,5.4-12.87,2.72-6.43,2.78-6.41c1.86-4.27,3.69-8.55,5.59-12.81,3.81-8.52,7.59-17.04,11.55-25.51,3.88-8.49,7.94-16.93,11.97-25.37,2.02-4.22,4.12-8.41,6.18-12.62,2.07-4.2,4.13-8.41,6.27-12.59l6.37-12.55,6.53-12.49,3.27-6.24,3.35-6.21,6.72-12.42,6.88-12.35,3.45-6.17,3.53-6.14,32.1,18.38-3.45,5.99-3.37,6.03-6.72,12.06-6.56,12.13-3.27,6.07-3.2,6.1-6.38,12.21-6.23,12.27c-2.09,4.08-4.11,8.19-6.13,12.3-2.01,4.11-4.06,8.21-6.04,12.34-3.94,8.26-7.91,16.5-11.7,24.81-3.87,8.28-7.57,16.62-11.3,24.95-1.86,4.17-3.64,8.36-5.47,12.54l-2.72,6.27-2.66,6.29-5.29,12.59-5.15,12.63c-27.26,67.45-50.08,136.17-68.95,205.65l-35.7-9.68h.01Z"/>
            <path class="cls-2" d="M642.76,5095.5c-1.13,0-2.27-.19-3.35-.58l-529.01-188.31c-2.5-.89-4.54-2.74-5.68-5.13s-1.28-5.15-.39-7.64c17.96-50.43,38.05-100.1,59.72-147.63.26-.63.58-1.24.98-1.82,1.91-2.82,5.05-4.39,8.28-4.39,1.39,0,2.8.29,4.14.9l510.83,233.18c5.02,2.29,7.24,8.22,4.95,13.25-14.82,32.47-28.63,66.64-41.05,101.53-.89,2.5-2.74,4.54-5.13,5.68-1.35.64-2.82.97-4.29.97Z"/>
            <path class="cls-2" d="M173.3,4749.99l510.83,233.18c-15.12,33.14-28.91,67.32-41.37,102.33l-529.01-188.31c17.64-49.54,37.43-98.68,59.56-147.19h0Z"/>
          </g>
          <g>
            <path class="cls-2" d="M659.27,4857.73c-1.69,0-3.4-.43-4.96-1.33l-32.09-18.39c-.22-.12-.43-.26-.64-.4-3.43-2.32-5.1-6.53-4.16-10.57.22-.96.59-1.88,1.08-2.73,0,0,5.5-9.54,5.52-9.58l5.57-9.37s2.84-4.77,2.86-4.8c0,0,8.59-13.99,8.61-14.03,0,0,8.76-13.85,8.79-13.9l2.97-4.54s5.98-9.17,6.01-9.21l6.06-8.98s3.07-4.57,3.1-4.61l9.27-13.32c1.35-1.91,2.68-3.75,4-5.59.79-1.1,3.62-5.04,3.62-5.04,1.69-2.36,3.44-4.79,5.25-7.2l6.38-8.58c.92-1.26,1.92-2.56,2.92-3.86l3.7-4.82s4.97-6.48,5-6.52l8.36-10.54c1.62-2.08,3.34-4.18,5-6.2.61-.75,3.49-4.25,4.3-5.24,1.47-1.79,2.94-3.59,4.42-5.37l6.99-8.24s3.53-4.17,3.57-4.22l3.53-4.02,7.04-8.04c1.55-1.76,3.1-3.46,4.65-5.16.87-.96,1.75-1.92,2.61-2.88l3.61-3.98s1.89-2.08,1.93-2.12l1.83-1.94,7.26-7.73c1.92-2.08,3.87-4.09,5.76-6.03,0,0,9.3-9.57,9.34-9.61l11.33-11.26c.82-.83,1.72-1.68,2.61-2.54.44-.42,11.03-10.58,11.07-10.62l1.95-1.81,3.93-3.63c1.12-1.03,2.23-2.06,3.33-3.08,1.5-1.4,3.01-2.79,4.52-4.18.03-.02,8.01-7.15,8.01-7.15,1.84-1.64,4.21-2.54,6.66-2.54.19,0,.39,0,.58.02,2.65.15,5.14,1.36,6.9,3.34l24.55,27.66c3.66,4.12,3.29,10.43-.82,14.1l-7.59,6.77c-1.45,1.32-2.88,2.66-4.32,3.99-1.04.97-2.08,1.93-3.13,2.89l-5.55,5.13-9.18,8.81c-.42.41-.87.84-1.33,1.27-.73.7-1.47,1.39-2.18,2.12l-3.67,3.66-7.23,7.18-8.97,9.24c-1.77,1.82-3.44,3.53-5.07,5.3l-7.09,7.56-1.7,1.81-5.12,5.66c-.85.94-1.72,1.9-2.59,2.85-1.42,1.57-2.85,3.13-4.26,4.71l-10.1,11.53-3.28,3.88-6.64,7.83s-7.67,9.34-8.25,10.05c-1.61,1.96-3.14,3.81-4.61,5.72-.02.03-8.07,10.19-8.07,10.19l-7.85,10.24c-1.07,1.39-2.06,2.66-2.99,3.94l-6.25,8.43c-1.63,2.16-3.16,4.29-4.77,6.54l-1.28,1.78c-.8,1.13-1.64,2.28-2.47,3.44-1.19,1.65-2.38,3.3-3.56,4.97l-8.87,12.75-2.88,4.28-5.82,8.62-5.69,8.72-2.84,4.34-8.36,13.21-5.47,8.93-2.73,4.44-8.03,13.49-5.25,9.11c-1.85,3.21-5.22,5.01-8.68,5.01Z"/>
            <path class="cls-2" d="M627.16,4829.32l5.45-9.46,5.57-9.37,2.79-4.68,2.85-4.64,5.69-9.28,5.81-9.18,2.9-4.59,2.97-4.54,5.93-9.09,6.06-8.98,3.02-4.49,3.09-4.44,6.18-8.88c2.08-2.94,4.2-5.85,6.29-8.77,2.1-2.92,4.18-5.86,6.35-8.73l6.43-8.65c1.06-1.45,2.16-2.87,3.25-4.29l3.28-4.27,3.27-4.27,1.64-2.14,1.67-2.11,6.68-8.42c2.2-2.83,4.5-5.57,6.76-8.34,2.27-2.76,4.52-5.54,6.81-8.29l6.93-8.17,3.46-4.09,3.53-4.02,7.05-8.05c2.36-2.67,4.78-5.28,7.17-7.93l3.59-3.96,1.8-1.98,1.83-1.94,7.31-7.79c2.41-2.62,4.91-5.14,7.39-7.7l7.43-7.65,7.56-7.51,3.78-3.76c1.25-1.26,2.55-2.46,3.83-3.7l7.68-7.37,1.92-1.84,1.95-1.81,3.91-3.61c2.61-2.4,5.19-4.83,7.81-7.22l7.93-7.08,24.55,27.66-7.63,6.81c-2.52,2.3-5.01,4.64-7.52,6.95l-3.76,3.47-1.88,1.74-1.85,1.78-7.39,7.09c-1.23,1.19-2.48,2.34-3.69,3.56l-3.63,3.62-7.28,7.23-7.15,7.37c-2.38,2.46-4.79,4.89-7.12,7.41l-7.04,7.5-1.76,1.87-1.73,1.91-3.46,3.82c-2.3,2.55-4.63,5.07-6.91,7.64l-6.8,7.76-3.4,3.88-3.34,3.95-6.68,7.88-6.57,8c-2.18,2.67-4.4,5.31-6.52,8.05l-6.44,8.13-1.61,2.03-1.58,2.06-3.16,4.12-3.16,4.12c-1.06,1.37-2.12,2.74-3.14,4.14l-6.2,8.36c-2.09,2.77-4.1,5.61-6.13,8.43-2.02,2.83-4.07,5.63-6.08,8.48l-5.97,8.58-2.98,4.29-2.92,4.34-5.86,8.68-5.73,8.79-2.87,4.39-2.81,4.44-5.63,8.89-5.51,8.99-2.76,4.49-2.7,4.54-5.4,9.08-5.28,9.17-32.09-18.39-.03-.02h0Z"/>
            <path class="cls-2" d="M349.86,4680.46c-1.69,0-3.4-.43-4.96-1.33l-32.09-18.39c-3.93-2.25-5.86-6.87-4.69-11.25.3-1.11.77-2.14,1.39-3.05,0,0,6.76-11.72,6.78-11.75l7.24-12.2s3.68-6.17,3.7-6.21l3.71-6.06s7.48-12.19,7.5-12.23l7.6-12.03s3.86-6.09,3.89-6.13l3.89-5.97s7.86-12.02,7.88-12.05c0,0,12.01-17.84,12.04-17.87l4.07-5.87,8.18-11.75c1.9-2.68,3.78-5.3,5.67-7.92l4.31-6c2.26-3.14,4.6-6.4,7-9.59l8.52-11.47c1.43-1.94,2.93-3.9,4.38-5.79l4.41-5.75s6.62-8.62,6.65-8.66l11.17-14.1c2.55-3.25,5.22-6.5,7.79-9.64,0,0,3.42-4.17,4.44-5.42,2.03-2.48,4.06-4.96,6.12-7.43,0,0,14.11-16.65,14.14-16.69l4.75-5.43,9.52-10.86c2.19-2.47,4.37-4.88,6.56-7.29,1.07-1.18,2.15-2.37,3.22-3.55l4.87-5.37s2.51-2.75,2.54-2.79l2.47-2.64,9.91-10.56c2.85-3.07,5.83-6.13,8.7-9.08,0,0,11.62-11.95,11.66-11.98l10.27-10.22,5.15-5.11c1.21-1.21,2.46-2.41,3.72-3.62,0,0,14.78-14.17,14.82-14.2l7.99-7.41c1.28-1.18,2.53-2.34,3.78-3.5,2.31-2.14,4.62-4.28,6.95-6.4l10.9-9.74c1.84-1.64,4.21-2.54,6.66-2.54.19,0,.39,0,.58.02,2.65.15,5.14,1.36,6.9,3.34l24.55,27.66c3.66,4.12,3.29,10.43-.82,14.1l-10.53,9.4c-2.37,2.15-4.78,4.38-7.18,6.62l-8.24,7.62-2.51,2.33-12.67,12.14c-.6.58-1.24,1.2-1.89,1.82-1.02.97-2.04,1.94-3.03,2.94l-5.03,4.99-9.92,9.87-11.46,11.78c-2.62,2.7-5.33,5.48-7.89,8.24l-9.67,10.3-2.34,2.51-2.33,2.56-4.7,5.19c-1.03,1.15-2.09,2.3-3.14,3.46-2.08,2.29-4.16,4.58-6.21,6.9l-9.23,10.52-4.56,5.22-4.49,5.29-9.06,10.7c-2.13,2.56-4.29,5.2-6.45,7.84l-4.15,5.07c-2.29,2.79-4.65,5.67-6.87,8.51l-8.74,11.02-2.11,2.68-6.35,8.27-4.24,5.54c-1.41,1.83-2.78,3.62-4.11,5.43l-8.35,11.24c-2.28,3.03-4.52,6.16-6.69,9.17l-4.16,5.79c-1.79,2.49-3.58,4.97-5.35,7.48l-7.92,11.37-3.92,5.65-11.58,17.19-11.33,17.35-3.69,5.81-7.38,11.66-10.8,17.62-3.52,5.9-7.03,11.84-6.88,11.93c-1.85,3.21-5.21,5-8.67,5Z"/>
            <path class="cls-2" d="M317.81,4652.07l7.08-12.27,7.24-12.2,3.63-6.09,3.71-6.06,7.43-12.11,7.6-12.03,3.81-6.01,3.89-5.97,7.8-11.93,7.97-11.84,3.99-5.92,4.07-5.87,8.17-11.73c2.75-3.89,5.56-7.76,8.34-11.64,2.79-3.87,5.56-7.76,8.43-11.58l8.55-11.51c1.41-1.92,2.87-3.82,4.33-5.72l4.37-5.7,4.37-5.69,2.19-2.85,2.23-2.82,8.93-11.27c2.96-3.77,6.02-7.47,9.06-11.18,3.05-3.71,6.07-7.43,9.14-11.12l9.32-11,4.66-5.5,4.75-5.43,9.51-10.85c3.19-3.6,6.45-7.15,9.68-10.73l4.85-5.35,2.43-2.67,2.47-2.64,9.9-10.55c3.28-3.53,6.66-6.98,10.02-10.44l10.1-10.38,10.27-10.22,5.14-5.1c1.71-1.71,3.47-3.36,5.21-5.04l10.47-10.04,2.62-2.51,2.66-2.47,5.32-4.93c3.56-3.28,7.09-6.58,10.67-9.84l10.83-9.67,24.55,27.66-10.53,9.4c-3.48,3.16-6.92,6.38-10.37,9.57l-5.18,4.79-2.58,2.4-2.55,2.44-10.18,9.76c-1.69,1.64-3.41,3.24-5.07,4.9l-5,4.96-9.99,9.94-9.82,10.09c-3.27,3.37-6.56,6.72-9.75,10.16l-9.63,10.26-2.4,2.57-2.37,2.6-4.72,5.21c-3.14,3.48-6.31,6.93-9.42,10.44l-9.26,10.56-4.62,5.29-4.54,5.35-9.07,10.71c-2.99,3.59-5.94,7.22-8.9,10.83-2.96,3.62-5.94,7.21-8.82,10.89l-8.7,10.97-2.17,2.75-2.13,2.77-4.26,5.55-4.25,5.55c-1.42,1.85-2.84,3.7-4.22,5.57l-8.33,11.21c-2.8,3.73-5.49,7.51-8.21,11.29-2.71,3.78-5.44,7.54-8.13,11.34l-7.96,11.43-3.97,5.72-3.89,5.77-7.77,11.54-7.6,11.64-3.8,5.82-3.72,5.86-7.42,11.73-7.25,11.82-3.62,5.91-3.55,5.95-7.07,11.91-6.91,11.98-32.09-18.39h.03Z"/>
            <path class="cls-2" d="M787.44,4813.1c-2.07,0-4.11-.64-5.81-1.86l-456.91-326.42c-4.49-3.21-5.53-9.45-2.33-13.94,31.79-44.63,66.88-88.43,104.28-130.19,1.77-1.98,4.25-3.17,6.9-3.31.18,0,.36-.01.54-.01h0s.01,0,.01,0c2.64,0,5.12,1.04,6.95,2.81l417.65,374.77c4.11,3.68,4.45,10,.78,14.11-23.12,25.86-44.62,52.73-63.92,79.85-1.54,2.16-3.88,3.63-6.5,4.07-.55.09-1.1.14-1.65.14Z"/>
            <path class="cls-2" d="M434.11,4347.35l417.94,375.03c-22.77,25.47-44.41,52.32-64.61,80.72l-456.91-326.42c31.85-44.71,66.51-87.93,103.59-129.33h-.01Z"/>
          </g>
          <g>
            <path class="cls-2" d="M866.58,4599.63c-.19,0-.38,0-.58-.02-2.66-.15-5.14-1.36-6.91-3.35l-24.54-27.67c-1.62-1.83-2.52-4.19-2.52-6.64,0-2.85,1.21-5.58,3.34-7.47l3.96-3.54c.91-.8,1.77-1.54,2.64-2.28l9.57-8.24s2.14-1.83,2.18-1.87l2.05-1.69,4.07-3.37c1.08-.89,2.13-1.76,3.18-2.64,1.69-1.4,3.37-2.8,5.07-4.19.03-.02,12.49-9.96,12.49-9.96.94-.77,1.91-1.51,2.88-2.25.48-.37.97-.74,1.45-1.11.03-.02.05-.04.08-.06,1.58-1.2,3.15-2.41,4.72-3.62,4-3.08,8.14-6.26,12.36-9.32,22.93-16.98,46.85-33.14,71.09-48.05,48.19-29.55,100.13-55.6,154.38-77.46,1.22-.49,2.49-.73,3.73-.73,3.96,0,7.71,2.37,9.28,6.27l13.82,34.31c2.06,5.12-.42,10.95-5.54,13.01-51.34,20.69-100.42,45.3-145.86,73.17-22.9,14.09-45.45,29.33-67.02,45.3-.03.03-.07.05-.1.08-3.91,2.82-7.85,5.86-11.67,8.79-1.46,1.13-2.92,2.25-4.39,3.37-.45.35-.97.75-1.5,1.14-.78.59-1.56,1.18-2.31,1.79l-4.04,3.23-7.96,6.34c-1.44,1.17-2.87,2.36-4.29,3.55-1.17.97-2.33,1.94-3.5,2.9l-5.81,4.81-10.76,9.25c-.88.75-1.76,1.51-2.63,2.28l-3.76,3.37c-1.84,1.65-4.21,2.55-6.67,2.55Z"/>
            <path class="cls-2" d="M842.04,4561.94l3.96-3.54c1.33-1.17,2.68-2.31,4.02-3.47l8.05-6.93,2.02-1.73,2.05-1.69,4.09-3.39c2.73-2.25,5.44-4.53,8.19-6.77l8.3-6.62,4.15-3.31c1.37-1.12,2.8-2.16,4.2-3.25,5.63-4.29,11.19-8.67,16.93-12.82,22.76-16.85,46.24-32.73,70.42-47.6,48.39-29.67,99.55-55.22,152.88-76.7l13.82,34.31c-51.5,20.75-100.79,45.37-147.35,73.92-23.26,14.31-45.85,29.58-67.74,45.79-5.52,3.98-10.87,8.2-16.28,12.33-1.34,1.04-2.72,2.05-4.04,3.12l-3.99,3.19-7.99,6.36c-2.64,2.15-5.24,4.35-7.87,6.51l-3.94,3.26-1.97,1.63-1.94,1.67-7.75,6.67c-1.29,1.11-2.59,2.21-3.87,3.34l-3.81,3.41-24.54-27.67v-.02h0Z"/>
            <path class="cls-2" d="M629.98,4332.9c-.19,0-.39,0-.58-.02-2.65-.16-5.13-1.36-6.9-3.35l-24.54-27.67c-1.9-2.14-2.79-5-2.44-7.85.31-2.53,1.57-4.83,3.5-6.45l5.22-4.65c1.39-1.22,2.73-2.38,4.08-3.54l12.55-10.8s2.85-2.44,2.89-2.47l8.39-6.96c1.42-1.17,2.81-2.32,4.19-3.47,2.36-1.95,4.71-3.91,7.09-5.84l11.43-9.13,5.68-4.53c1.3-1.04,2.65-2.08,4.01-3.12.62-.47,6.53-5.02,6.53-5.02,6.08-4.67,12.37-9.5,18.72-14.13,31.24-23.14,63.87-45.19,96.89-65.48,65.1-39.93,134.95-75.01,207.61-104.28,1.22-.49,2.49-.73,3.73-.73,3.96,0,7.71,2.37,9.28,6.27l13.82,34.31c2.06,5.12-.42,10.95-5.54,13.01-69.74,28.09-136.73,61.73-199.1,99.99-31.69,19.48-62.93,40.59-92.84,62.74-5.94,4.32-11.85,8.86-17.56,13.25-1.61,1.24-6,4.61-6.61,5.07-1.21.92-2.42,1.85-3.6,2.8l-5.59,4.45-11.03,8.8c-2.27,1.85-4.6,3.78-6.94,5.71-1.28,1.06-2.56,2.12-3.84,3.18l-8.07,6.69-2.62,2.25-12.42,10.69c-1.18,1.01-2.36,2.03-3.53,3.06l-5.22,4.66c-1.84,1.64-4.21,2.54-6.66,2.54Z"/>
            <path class="cls-2" d="M605.47,4295.21l5.42-4.83c1.82-1.6,3.66-3.17,5.49-4.75l11.01-9.47,2.76-2.36,2.79-2.32,5.59-4.64c3.74-3.08,7.45-6.19,11.21-9.25l11.36-9.07,5.68-4.53c1.89-1.52,3.83-2.97,5.74-4.45,7.69-5.89,15.34-11.85,23.17-17.55,31.15-23.07,63.28-44.79,96.24-65.04,65.96-40.46,135.19-74.96,206.11-103.52l13.82,34.31c-69.09,27.83-136.45,61.4-200.59,100.74-32.05,19.7-63.29,40.81-93.56,63.23-7.62,5.54-15.05,11.34-22.52,17.06-1.86,1.44-3.75,2.85-5.58,4.33l-5.53,4.4-11.04,8.81c-3.65,2.97-7.26,5.99-10.9,8.99l-5.44,4.51-2.72,2.26-2.68,2.3-10.71,9.21c-1.78,1.54-3.57,3.06-5.34,4.62l-5.27,4.7-24.54-27.67.03-.02h0Z"/>
            <path class="cls-2" d="M999.36,4601.72c-3.16,0-6.26-1.49-8.21-4.28l-321.54-460.36c-1.52-2.18-2.11-4.87-1.65-7.48.47-2.61,1.95-4.94,4.13-6.45,23.52-16.36,47.3-31.95,70.69-46.33,24.32-14.84,48.9-28.95,73.09-41.96,1.47-.79,3.1-1.19,4.74-1.19.97,0,1.94.14,2.89.43,2.54.77,4.67,2.51,5.93,4.85l265.23,494.95c2.6,4.86.78,10.91-4.07,13.53-14.13,7.61-28.84,16.05-43.7,25.08-13.64,8.4-27.74,17.64-41.84,27.43-1.74,1.21-3.73,1.79-5.69,1.79Z"/>
            <path class="cls-2" d="M820.62,4043.67l265.23,494.95c-14.99,8.07-29.69,16.55-44.15,25.34-14.4,8.87-28.5,18.15-42.35,27.76l-321.54-460.36c23-16,46.41-31.38,70.22-46.02,23.86-14.56,48.06-28.48,72.59-41.67h0Z"/>
          </g>
          <g>
            <path class="cls-2" d="M1145.5,4428.28c-3.96,0-7.71-2.37-9.28-6.27l-13.81-34.31c-1.24-3.08-.87-6.58.99-9.33.49-.73,1.08-1.39,1.73-1.95.83-.72,1.78-1.32,2.84-1.74,52.66-21.2,108.95-38.97,167.3-52.82,28.1-6.68,57.45-12.63,87.24-17.68,28.04-4.73,58-8.81,89.07-12.12.35-.04.71-.06,1.06-.06,2.28,0,4.5.78,6.28,2.22,2.06,1.67,3.38,4.08,3.66,6.72l3.91,36.78c.58,5.49-3.39,10.42-8.88,11-29.99,3.2-58.8,7.12-85.63,11.66-28.55,4.84-56.66,10.54-83.54,16.93-55.59,13.2-109.15,30.11-159.21,50.25-1.22.49-2.49.73-3.73.73Z"/>
            <path class="cls-2" d="M1131.7,4383.96c53.34-21.47,108.85-38.83,165.88-52.37,28.52-6.78,57.41-12.6,86.6-17.55,29.2-4.93,58.72-8.87,88.46-12.04l3.91,36.78c-29.02,3.1-57.81,6.94-86.23,11.74-28.42,4.82-56.51,10.48-84.19,17.06-55.37,13.15-109.11,29.97-160.63,50.7l-13.81-34.31h.01Z"/>
            <path class="cls-2" d="M1012.42,4097.52c-3.96,0-7.71-2.37-9.28-6.27l-13.81-34.31c-.48-1.19-.72-2.46-.72-3.73,0-4.08,2.48-7.76,6.27-9.29,69.08-27.8,142.43-51,218-68.94,35.79-8.51,72.95-16.04,110.45-22.38,35.44-5.98,71.59-10.92,110.52-15.07.35-.04.71-.06,1.06-.06,2.28,0,4.5.78,6.28,2.22,2.06,1.67,3.38,4.09,3.66,6.72l3.91,36.78c.58,5.49-3.39,10.42-8.88,11-37.1,3.96-73.13,8.87-107.08,14.6-36.13,6.11-72.05,13.39-106.75,21.64-72.85,17.3-143.47,39.63-209.9,66.37-1.22.49-2.49.73-3.73.73Z"/>
            <path class="cls-2" d="M998.61,4053.2c70.94-28.55,143.55-51.15,216.58-68.49,36.52-8.68,73.16-16.05,109.81-22.25,36.65-6.19,73.31-11.08,109.91-14.99l3.91,36.78c-35.88,3.83-71.8,8.63-107.68,14.68-35.88,6.07-71.71,13.29-107.4,21.77-71.37,16.95-142.2,39-211.32,66.82l-13.81-34.31h0Z"/>
            <path class="cls-2" d="M1273.56,4472.95c-1.66,0-3.31-.41-4.79-1.22-2.34-1.28-4.07-3.44-4.81-6l-156.03-539.42c-1.53-5.29,1.5-10.81,6.78-12.37,0,0,4.98-1.47,5.02-1.48l4.88-1.36,9.79-2.71,9.95-2.74c3.2-.88,6.52-1.8,9.86-2.63,2.76-.7,5.59-1.43,8.42-2.16,10.11-2.59,20.55-5.28,30.91-7.65,1.94-.46,3.93-.93,5.93-1.4,4.56-1.08,9.12-2.16,13.69-3.19l19.69-4.27s9.92-2.13,9.97-2.15l9.8-1.95,19.62-3.86c.64-.12,1.28-.19,1.93-.19,4.8,0,8.94,3.42,9.84,8.14l104.63,551.7c1.02,5.4-2.5,10.61-7.89,11.67l-13.42,2.65-6.62,1.3-6.55,1.43-13.26,2.86c-2.68.61-5.34,1.25-8,1.88-1.69.4-3.38.8-5.07,1.2-6,1.35-11.99,2.89-17.78,4.38-2.74.71-5.48,1.41-8.23,2.1-1.88.46-3.69.96-5.62,1.5l-7.08,1.96-6.48,1.77-3.12.86-3.09.92c-.93.28-1.9.42-2.85.42Z"/>
            <path class="cls-2" d="M1274.16,3886.22l104.63,551.7-13.42,2.65-6.71,1.32-6.65,1.45-13.3,2.87c-4.41,1.01-8.78,2.07-13.18,3.1-8.82,1.98-17.45,4.33-26.16,6.51-2.18.53-4.33,1.14-6.48,1.74l-6.45,1.78-6.46,1.77-3.23.89-3.19.95-156.03-539.42,4.88-1.44,4.88-1.36,9.77-2.7,9.77-2.69c3.26-.9,6.51-1.8,9.78-2.61,13.04-3.32,26.09-6.77,39.15-9.76,6.53-1.53,13.06-3.1,19.59-4.58l19.6-4.25,9.8-2.11,9.8-1.95,19.6-3.86h0Z"/>
          </g>
          <g>
            <path class="cls-2" d="M1477.01,4348.73c-2.27,0-4.49-.78-6.28-2.22-2.07-1.67-3.38-4.09-3.66-6.73l-3.85-36.32c-.08-.5-.11-1-.11-1.52,0-5.11,3.85-9.41,8.93-9.95,0,0,11.22-1.21,11.26-1.21,2.36-.23,4.71-.44,7.07-.64,1.4-.12,2.79-.25,4.18-.37l11.21-1.01s5.72-.51,5.77-.51l5.62-.41s22.61-1.63,22.67-1.63l22.58-1.27c29.61-1.44,60.35-2.22,91.45-2.3,36.18-.08,72.01-.98,106.53-2.67l26.71-1.5c6.5-.44,13-.91,19.51-1.39l13.89-1.02,6.65-.58s16.47-1.47,18-1.61c2.93-.26,5.86-.52,8.8-.81l13.38-1.42c.35-.04.71-.06,1.06-.06,2.28,0,4.5.78,6.29,2.22,2.06,1.67,3.38,4.09,3.66,6.72l3.9,36.78c.58,5.49-3.4,10.42-8.89,11l-13.72,1.46c-2.98.29-5.87.55-8.75.8-1.7.15-18.83,1.69-18.83,1.69,0,0-6.97.61-7.02.61l-14.99,1.1c-6.42.47-12.85.94-19.27,1.38-.04,0-27.45,1.55-27.45,1.55-35.4,1.74-72.18,2.66-109.4,2.75-30.26.08-60.07.83-88.58,2.22l-21.94,1.23-27.32,1.98-19.93,1.78c-2.41.21-4.82.43-7.22.66l-10.82,1.16c-.36.04-.71.06-1.07.06Z"/>
            <path class="cls-2" d="M1473.1,4301.94l11.15-1.2c3.73-.36,7.47-.67,11.2-1.01l11.2-1.01,5.6-.5,5.62-.41,22.5-1.62,22.58-1.27c30.16-1.47,60.48-2.2,90.91-2.28,35.56-.08,71.24-.93,106.99-2.68l26.84-1.51c8.95-.6,17.91-1.28,26.87-1.93l6.72-.49,6.72-.59,13.45-1.2c4.48-.41,8.96-.79,13.45-1.23l13.46-1.43,3.9,36.78-13.72,1.46c-4.57.44-9.14.83-13.71,1.25l-13.71,1.23-6.85.6-6.84.5c-9.12.66-18.25,1.35-27.37,1.97l-27.33,1.54c-36.41,1.79-72.7,2.65-108.86,2.73-29.84.08-59.54.79-89.05,2.23l-22.09,1.24-21.99,1.59-5.5.4-5.47.49-10.94.98c-3.65.33-7.3.64-10.94.99l-10.88,1.17-3.9-36.78h-.01Z"/>
            <path class="cls-2" d="M1439.36,3994.18c-2.28,0-4.5-.78-6.29-2.22-2.06-1.67-3.38-4.09-3.66-6.72l-3.9-36.78c-.3-2.82.61-5.63,2.51-7.74,1.76-1.96,4.22-3.14,6.84-3.29,0,0,13.33-1.42,13.37-1.42,2.88-.28,5.75-.53,8.63-.79,1.71-.15,18.86-1.69,18.86-1.69,0,0,6.97-.61,7.01-.61l14.88-1.09c6.46-.47,12.93-.95,19.38-1.39.04,0,27.45-1.55,27.45-1.55,35.41-1.74,72.19-2.66,109.4-2.75,30.3-.08,60.1-.83,88.58-2.22l21.94-1.23,27.32-1.98,19.93-1.79c2.41-.21,4.82-.43,7.22-.66l10.82-1.16c.36-.04.71-.06,1.07-.06,2.27,0,4.49.78,6.28,2.22,2.07,1.67,3.38,4.09,3.66,6.73l3.9,36.78c.58,5.49-3.39,10.41-8.87,11,0,0-11.22,1.21-11.26,1.21-2.35.23-4.71.44-7.07.64-1.4.12-2.79.25-4.19.37l-11.21,1.01s-5.72.51-5.77.51l-5.62.41s-22.61,1.63-22.67,1.63l-22.58,1.27c-29.59,1.44-60.33,2.21-91.45,2.3-36.18.08-72.02.98-106.53,2.67l-26.71,1.5c-6.42.43-12.84.9-19.27,1.37l-14.14,1.03-6.65.58s-16.44,1.47-17.96,1.61c-2.95.26-5.89.53-8.84.82l-13.38,1.42c-.35.04-.71.06-1.06.06Z"/>
            <path class="cls-2" d="M1435.47,3947.41l13.72-1.46c4.57-.44,9.14-.83,13.71-1.25l13.71-1.23,6.85-.6,6.84-.5c9.12-.66,18.25-1.35,27.37-1.97l27.33-1.54c36.41-1.79,72.7-2.65,108.86-2.73,29.84-.08,59.54-.79,89.05-2.23l22.09-1.24,21.99-1.59,5.5-.4,5.47-.49,10.94-.98c3.65-.33,7.3-.64,10.94-.99l10.88-1.17,3.9,36.78-11.15,1.2c-3.73.36-7.47.67-11.2,1.01l-11.2,1.01-5.6.5-5.62.41-22.5,1.62-22.58,1.27c-30.16,1.47-60.48,2.2-90.91,2.28-35.56.08-71.24.93-106.99,2.68l-26.84,1.51c-8.95.6-17.91,1.28-26.87,1.93l-6.72.49-6.72.59-13.45,1.2c-4.48.41-8.96.79-13.45,1.23l-13.46,1.43-3.9-36.78h.01Z"/>
            <path class="cls-2" d="M1596.02,4424.64c-2.52,0-4.96-.95-6.81-2.68-1.95-1.81-3.1-4.33-3.19-6.99l-18.93-561.21c-.19-5.51,4.12-10.12,9.62-10.33,0,0,4.9-.18,4.94-.18l4.8-.12,9.62-.23s19.29-.45,19.33-.45c9.35-.12,18.83-.19,28-.25l10.37-.08,28.91-.25,14.35-.35,7.22-.17,3.54-.08,3.51-.14c.13,0,.26,0,.39,0,2.52,0,4.96.95,6.81,2.68,1.95,1.81,3.1,4.33,3.19,6.99l18.93,561.21c.19,5.51-4.12,10.12-9.62,10.33,0,0-4.9.18-4.94.18l-4.8.12s-28.91.68-28.95.68c-9.34.12-18.81.19-27.97.25l-10.39.08-28.92.25-14.35.35-7.22.17-3.54.08-3.51.14c-.13,0-.26,0-.39,0Z"/>
            <path class="cls-2" d="M1711.69,3851.13l18.93,561.21-4.82.18-4.8.12-9.61.23-19.22.45c-12.78.17-25.54.23-38.31.33l-29,.25-14.43.35-7.21.17-3.61.08-3.59.14-18.93-561.21,4.82-.18,4.8-.12,9.61-.23,19.22-.45c12.78-.17,25.54-.23,38.31-.33l29-.25,14.43-.35,7.21-.17,3.61-.08,3.59-.14h0Z"/>
          </g>
          <g>
            <path class="cls-2" d="M1872.81,4328.29c-2.28,0-4.5-.78-6.28-2.22-2.06-1.67-3.38-4.09-3.66-6.72l-3.91-36.77c-.04-.36-.06-.71-.06-1.06h0c0-5.29,4.11-9.66,9.38-9.99,36.93-3.95,72.81-8.85,106.64-14.55,36.12-6.11,72.04-13.39,106.75-21.64,72.85-17.3,143.47-39.63,209.9-66.37,1.22-.49,2.49-.73,3.73-.73,3.96,0,7.71,2.37,9.28,6.27l13.81,34.31c.99,2.46.96,5.21-.08,7.65-1.04,2.44-3.01,4.37-5.47,5.36-69.08,27.8-142.43,51-218,68.94-35.78,8.5-72.94,16.03-110.45,22.38-35.41,5.98-71.56,10.91-110.52,15.07-.35.04-.71.06-1.06.06Z"/>
            <path class="cls-2" d="M1868.9,4281.52c35.88-3.83,71.8-8.63,107.68-14.68,35.88-6.07,71.71-13.29,107.4-21.77,71.37-16.95,142.2-39,211.32-66.82l13.81,34.31c-70.94,28.55-143.55,51.15-216.58,68.49-36.52,8.68-73.16,16.05-109.81,22.25-36.65,6.19-73.31,11.08-109.91,14.99l-3.91-36.78h0Z"/>
            <path class="cls-2" d="M1835.09,3973.76c-2.28,0-4.5-.78-6.28-2.22-2.06-1.67-3.38-4.08-3.66-6.72l-3.86-36.32c-.1-.65-.14-1.32-.1-2h0c.25-5.13,4.32-9.2,9.37-9.51,29.82-3.19,58.48-7.1,85.18-11.61,28.55-4.84,56.66-10.54,83.54-16.93,55.6-13.2,109.16-30.11,159.21-50.25,1.22-.49,2.49-.73,3.73-.73,3.96,0,7.71,2.37,9.28,6.27l13.81,34.31c2.06,5.12-.42,10.95-5.54,13.01-52.66,21.2-108.95,38.97-167.3,52.82-28.1,6.68-57.46,12.63-87.24,17.68-28.05,4.74-58.01,8.81-89.07,12.12-.35.04-.71.06-1.06.06Z"/>
            <path class="cls-2" d="M1831.17,3926.99c29.02-3.1,57.81-6.94,86.23-11.74,28.42-4.82,56.51-10.48,84.19-17.06,55.37-13.15,109.11-29.97,160.63-50.7l13.81,34.31c-53.34,21.47-108.85,38.83-165.88,52.37-28.52,6.78-57.41,12.6-86.6,17.55-29.2,4.93-58.72,8.87-88.46,12.04l-3.91-36.78h-.01Z"/>
            <path class="cls-2" d="M2033.56,4389.55c-1.98,0-3.94-.59-5.6-1.72-2.21-1.49-3.73-3.8-4.22-6.42l-104.63-551.7c-1.02-5.4,2.5-10.61,7.89-11.67l13.42-2.65,6.62-1.3,6.55-1.43,13.25-2.86c2.67-.61,5.33-1.24,7.98-1.87,1.7-.4,3.39-.8,5.09-1.2,6-1.35,11.99-2.89,17.78-4.38,2.74-.71,5.48-1.41,8.23-2.1,1.88-.46,3.7-.97,5.63-1.51l7.07-1.95,6.48-1.77,3.12-.86,3.08-.92c.93-.28,1.9-.42,2.85-.42h.01c4.66,0,8.66,3.2,9.72,7.66l155.9,538.98c1.53,5.29-1.5,10.81-6.78,12.37,0,0-4.98,1.47-5.03,1.48l-4.88,1.36-9.79,2.71-9.94,2.74c-3.21.89-6.53,1.8-9.87,2.63-2.74.7-5.55,1.42-8.35,2.14-10.13,2.6-20.6,5.29-30.97,7.66-1.95.46-3.94.93-5.94,1.4-4.56,1.08-9.11,2.15-13.67,3.19l-19.69,4.27s-9.92,2.13-9.97,2.15l-9.8,1.95-19.62,3.86c-.64.13-1.29.19-1.93.19Z"/>
            <path class="cls-2" d="M2034.15,3802.82l156.03,539.42-4.88,1.44-4.88,1.36-9.77,2.7-9.77,2.69c-3.26.9-6.51,1.8-9.78,2.61-13.04,3.32-26.09,6.77-39.15,9.76-6.53,1.53-13.06,3.1-19.59,4.58l-19.6,4.25-9.8,2.11-9.8,1.95-19.6,3.86-104.63-551.7,13.42-2.65,6.71-1.32,6.65-1.45,13.3-2.87c4.41-1.01,8.78-2.07,13.18-3.1,8.82-1.98,17.45-4.33,26.16-6.51,2.18-.53,4.33-1.14,6.48-1.74l6.45-1.78,6.46-1.77,3.23-.89,3.19-.95h-.01,0Z"/>
          </g>
          <g>
            <path class="cls-2" d="M2309.68,4222.32c-3.96,0-7.71-2.37-9.28-6.27l-13.62-33.81c-1.79-3.84-.99-8.46,2.15-11.46l.02-.02c1.04-.99,2.27-1.74,3.59-2.2,69.58-28.05,136.41-61.63,198.65-99.81,31.69-19.48,62.93-40.59,92.84-62.74,5.94-4.32,11.83-8.85,17.54-13.24,1.62-1.24,6-4.61,6.6-5.07,1.22-.93,2.44-1.86,3.63-2.83l5.59-4.45,11.03-8.8c2.27-1.85,4.6-3.78,6.93-5.71,1.28-1.06,2.56-2.12,3.85-3.18l8.07-6.69,15.11-12.99c1.16-.99,2.31-1.99,3.46-3l5.23-4.66c1.84-1.64,4.21-2.54,6.66-2.54.19,0,.39,0,.58.02,2.65.16,5.13,1.36,6.9,3.35l24.54,27.67c3.66,4.12,3.29,10.43-.83,14.1l-5.42,4.83c-1.39,1.22-2.73,2.38-4.08,3.53l-12.56,10.8s-2.85,2.44-2.89,2.47l-8.39,6.97c-1.42,1.17-2.82,2.33-4.21,3.48-2.35,1.95-4.71,3.9-7.08,5.83l-11.43,9.13-5.7,4.54c-1.3,1.04-2.66,2.08-4.01,3.12-.61.47-6.49,4.99-6.49,4.99-6.09,4.68-12.39,9.52-18.75,14.15-31.24,23.14-63.86,45.18-96.89,65.47-65.1,39.93-134.95,75.02-207.61,104.28-1.22.49-2.49.73-3.73.73Z"/>
            <path class="cls-2" d="M2295.84,4178.03c69.09-27.83,136.45-61.4,200.59-100.74,32.05-19.7,63.29-40.81,93.56-63.23,7.62-5.54,15.05-11.34,22.52-17.06,1.86-1.44,3.75-2.85,5.58-4.33l5.53-4.4,11.04-8.81c3.65-2.97,7.26-5.99,10.9-8.99l5.44-4.51,2.72-2.26,2.68-2.3,10.71-9.21c1.78-1.54,3.57-3.06,5.34-4.62l5.27-4.7,24.54,27.67-5.42,4.83c-1.82,1.6-3.66,3.17-5.49,4.75l-11.01,9.47-2.76,2.36-2.79,2.32-5.59,4.64c-3.74,3.08-7.45,6.19-11.21,9.25l-11.36,9.07-5.69,4.53c-1.89,1.52-3.83,2.97-5.74,4.45-7.69,5.89-15.34,11.85-23.17,17.55-31.15,23.07-63.28,44.79-96.24,65.04-65.96,40.46-135.19,74.96-206.11,103.52l-13.82-34.31-.02.02Z"/>
            <path class="cls-2" d="M2176.44,3891.62c-3.96,0-7.71-2.37-9.28-6.27l-13.59-33.74c-.35-.75-.62-1.54-.78-2.38-.4-2.04-.14-4.07.64-5.87,1.1-2.57,3.26-4.61,5.98-5.53,51.14-20.64,100.03-45.18,145.32-72.95,22.91-14.1,45.46-29.34,67.02-45.3.03-.03.07-.05.1-.08,3.92-2.82,7.87-5.87,11.7-8.82,1.45-1.12,2.9-2.24,4.36-3.35.45-.35.97-.74,1.48-1.13.78-.59,1.57-1.19,2.33-1.81l4.04-3.23,7.96-6.34c1.45-1.18,2.89-2.38,4.32-3.57,1.16-.96,2.31-1.92,3.47-2.88l5.81-4.8,10.74-9.24c.88-.76,1.77-1.52,2.65-2.29l3.76-3.37c1.84-1.64,4.21-2.55,6.67-2.55.19,0,.38,0,.58.02,2.66.15,5.14,1.36,6.91,3.35l24.54,27.67c3.65,4.12,3.29,10.42-.82,14.09l-3.96,3.54c-.92.81-1.79,1.55-2.66,2.3,0,0-11.67,10.05-11.73,10.09l-2.05,1.69-4.07,3.37c-1.08.89-2.13,1.76-3.18,2.63-1.69,1.4-3.37,2.8-5.08,4.19-.03.02-12.49,9.96-12.49,9.96-.94.76-1.9,1.5-2.86,2.23-.49.37-.98.75-1.47,1.13-.03.02-.06.04-.09.07-1.58,1.2-3.15,2.41-4.72,3.62-4,3.08-8.14,6.26-12.37,9.32-22.94,16.98-46.86,33.15-71.09,48.05-48.19,29.55-100.13,55.6-154.38,77.46-1.22.49-2.49.73-3.73.73Z"/>
            <path class="cls-2" d="M2162.61,3847.33c51.5-20.75,100.79-45.37,147.35-73.92,23.26-14.31,45.85-29.58,67.74-45.79,5.52-3.98,10.87-8.2,16.28-12.33,1.34-1.04,2.72-2.05,4.04-3.12l3.99-3.19,7.99-6.36c2.64-2.15,5.24-4.35,7.87-6.51l3.94-3.26,1.97-1.63,1.94-1.67,7.75-6.67c1.29-1.11,2.59-2.21,3.87-3.34l3.81-3.41,24.54,27.67-3.96,3.54c-1.33,1.17-2.68,2.31-4.02,3.47l-8.05,6.93-2.01,1.73-2.05,1.69-4.09,3.39c-2.73,2.25-5.44,4.53-8.19,6.77l-8.3,6.62-4.15,3.31c-1.37,1.12-2.8,2.16-4.2,3.25-5.63,4.29-11.19,8.67-16.93,12.82-22.76,16.85-46.24,32.73-70.42,47.6-48.39,29.67-99.55,55.22-152.88,76.7l-13.82-34.31v.02h-.01Z"/>
            <path class="cls-2" d="M2487.11,4232.1c-.97,0-1.94-.14-2.89-.43-2.54-.77-4.67-2.51-5.93-4.85l-265.23-494.95c-2.6-4.86-.78-10.92,4.07-13.53,14.14-7.61,28.84-16.05,43.7-25.08,13.65-8.41,27.74-17.65,41.84-27.43,1.74-1.21,3.73-1.79,5.69-1.79,3.16,0,6.26,1.49,8.21,4.28l321.54,460.36c1.52,2.18,2.11,4.87,1.65,7.48-.47,2.61-1.95,4.94-4.13,6.45-23.5,16.35-47.29,31.94-70.69,46.33-24.32,14.84-48.9,28.95-73.09,41.96-1.47.79-3.1,1.19-4.74,1.19Z"/>
            <path class="cls-2" d="M2308.38,3674.05l321.54,460.36c-23,16-46.41,31.38-70.22,46.02-23.86,14.56-48.06,28.48-72.59,41.67l-265.23-494.95c14.99-8.07,29.69-16.55,44.15-25.34,14.4-8.87,28.5-18.15,42.35-27.76Z"/>
          </g>
          <g>
            <path class="cls-2" d="M2702.71,3980.16c-.19,0-.39,0-.58-.02-2.65-.15-5.14-1.36-6.9-3.34l-24.32-27.4c-.9-.94-1.62-2.07-2.1-3.33-1.48-3.88-.42-8.26,2.67-11.02l10.53-9.4c2.39-2.17,4.83-4.44,7.26-6.69l8.16-7.55,2.51-2.33,12.67-12.14c.6-.58,1.25-1.21,1.9-1.83,1.02-.97,2.03-1.94,3.02-2.93l5.03-4.99,9.92-9.87,11.46-11.78c2.62-2.7,5.33-5.48,7.89-8.24l9.67-10.3,2.34-2.51,2.33-2.56s6.8-7.5,7.85-8.67c2.07-2.28,4.15-4.57,6.19-6.88l9.22-10.52,4.56-5.22,4.49-5.3,9.06-10.7c2.13-2.55,4.28-5.19,6.44-7.83l4.2-5.12c2.27-2.77,4.63-5.64,6.84-8.47l8.74-11.02,2.11-2.68,6.35-8.27,4.24-5.54c1.39-1.81,2.77-3.61,4.11-5.43l8.35-11.24c2.3-3.06,4.57-6.22,6.76-9.27l4.08-5.67c1.8-2.49,3.59-4.99,5.37-7.5l7.92-11.37,3.92-5.65,11.58-17.19,11.33-17.35,3.69-5.81,7.37-11.66,10.8-17.62,3.52-5.9,7.03-11.84,6.88-11.92c1.85-3.21,5.21-5,8.67-5,1.69,0,3.4.43,4.96,1.33l32.09,18.39c2.31,1.32,3.99,3.51,4.68,6.07.69,2.57.33,5.3-.99,7.6,0,0-7.12,12.34-7.14,12.38l-7.24,12.2s-3.68,6.18-3.7,6.21l-3.71,6.06s-7.48,12.19-7.5,12.23l-7.6,12.03s-3.86,6.09-3.89,6.13l-3.89,5.97s-7.86,12.02-7.88,12.06c0,0-12.01,17.84-12.04,17.87l-4.07,5.87-8.18,11.75c-1.89,2.67-3.76,5.27-5.63,7.87-.93,1.29-4.33,6.03-4.33,6.03-2.27,3.15-4.61,6.41-7.02,9.61l-8.52,11.47c-1.5,2.04-3.02,4.01-4.43,5.85,0,0-10.99,14.31-11.02,14.35l-11.16,14.1c-2.55,3.25-5.21,6.49-7.79,9.63,0,0-3.46,4.21-4.49,5.48-2.02,2.46-4.04,4.93-6.07,7.38,0,0-14.11,16.65-14.14,16.69l-4.75,5.43-9.52,10.86c-2.2,2.48-4.39,4.9-6.59,7.32-1.06,1.17-2.13,2.35-3.19,3.52,0,0-7.38,8.12-7.41,8.15l-2.47,2.64-9.91,10.56c-2.86,3.08-5.85,6.15-8.73,9.11,0,0-11.59,11.91-11.63,11.95l-10.27,10.22-5.15,5.11c-1.2,1.2-2.45,2.39-3.7,3.59-.54.51-14.81,14.2-14.84,14.23l-7.99,7.41c-1.29,1.18-2.55,2.35-3.81,3.52-2.3,2.13-4.6,4.26-6.92,6.38l-10.9,9.74c-1.84,1.64-4.21,2.54-6.66,2.54Z"/>
            <path class="cls-2" d="M2678.14,3942.5l10.53-9.4c3.48-3.16,6.92-6.38,10.37-9.57l5.18-4.79,2.58-2.4,2.55-2.44,10.18-9.76c1.69-1.64,3.41-3.24,5.07-4.9l5-4.96,9.99-9.94,9.82-10.09c3.27-3.37,6.56-6.72,9.75-10.16l9.63-10.26,2.4-2.57,2.37-2.6,4.72-5.21c3.14-3.48,6.31-6.93,9.42-10.44l9.26-10.56,4.62-5.29,4.54-5.35,9.07-10.71c2.99-3.59,5.94-7.22,8.9-10.83,2.96-3.62,5.94-7.21,8.82-10.89l8.7-10.97,2.17-2.75,2.13-2.77,4.26-5.55,4.25-5.55c1.42-1.85,2.84-3.7,4.22-5.57l8.33-11.21c2.8-3.73,5.49-7.51,8.21-11.29,2.71-3.78,5.44-7.54,8.13-11.34l7.96-11.43,3.97-5.72,3.89-5.77,7.77-11.54,7.6-11.64,3.8-5.82,3.72-5.86,7.42-11.73,7.25-11.82,3.62-5.91,3.55-5.95,7.07-11.91,6.91-11.98,32.09,18.39-7.08,12.27-7.24,12.2-3.63,6.09-3.71,6.06-7.43,12.11-7.6,12.03-3.81,6.01-3.89,5.97-7.8,11.93-7.97,11.84-3.99,5.92-4.07,5.87-8.17,11.73c-2.75,3.89-5.56,7.76-8.34,11.64-2.79,3.87-5.56,7.76-8.43,11.58l-8.55,11.51c-1.42,1.92-2.87,3.82-4.33,5.72l-4.37,5.7-4.37,5.69-2.19,2.85-2.23,2.82-8.93,11.27c-2.96,3.77-6.02,7.47-9.06,11.18-3.05,3.71-6.07,7.43-9.14,11.12l-9.32,11-4.66,5.5-4.75,5.43-9.51,10.85c-3.19,3.6-6.45,7.15-9.68,10.73l-4.86,5.35-2.43,2.67-2.47,2.64-9.9,10.55c-3.28,3.53-6.66,6.98-10.02,10.44l-10.1,10.38-10.27,10.22-5.14,5.1c-1.71,1.71-3.47,3.36-5.21,5.04l-10.47,10.04-2.62,2.51-2.66,2.47-5.32,4.93c-3.56,3.28-7.09,6.58-10.67,9.84l-10.83,9.67-24.55-27.66h-.02Z"/>
            <path class="cls-2" d="M2465.97,3713.51c-.19,0-.39,0-.58-.02-2.65-.15-5.14-1.36-6.9-3.34l-24.55-27.66c-3.33-3.75-3.37-9.38-.09-13.18.48-.55,1-1.04,1.56-1.46l6.97-6.21c1.44-1.32,2.88-2.65,4.31-3.98,1.05-.97,2.09-1.94,3.14-2.91l5.55-5.12,9.18-8.81c.42-.41.88-.84,1.33-1.27.73-.7,1.47-1.39,2.19-2.12l3.67-3.66,7.23-7.18,8.98-9.25c1.76-1.81,3.43-3.52,5.06-5.29l8.79-9.37,5.12-5.66c.86-.95,1.74-1.92,2.62-2.88,1.42-1.55,2.83-3.11,4.23-4.68l10.1-11.53,3.29-3.88,6.64-7.83s7.66-9.32,8.23-10.03c1.62-1.97,3.15-3.83,4.63-5.74.02-.03,8.07-10.19,8.07-10.19,0,0,7.92-10.32,7.93-10.33,1.03-1.33,2-2.58,2.92-3.84l6.25-8.43c1.63-2.16,3.15-4.28,4.77-6.53l1.28-1.78c.81-1.13,1.64-2.29,2.48-3.45,1.18-1.64,2.37-3.29,3.54-4.95l8.87-12.75,2.88-4.28,5.82-8.63,5.69-8.72,2.84-4.34,8.36-13.21,5.47-8.93,2.73-4.44,8.02-13.49,5.25-9.11c1.85-3.21,5.22-5.01,8.68-5.01,1.69,0,3.4.43,4.96,1.33l32.09,18.39c2.3,1.32,3.99,3.5,4.68,6.07.69,2.56.34,5.3-.99,7.6,0,0-5.5,9.54-5.52,9.58l-5.57,9.37s-2.84,4.77-2.87,4.8c0,0-8.59,13.99-8.61,14.03,0,0-8.76,13.85-8.79,13.9l-2.97,4.54s-5.98,9.17-6.01,9.21l-6.06,8.98s-3.07,4.56-3.1,4.61l-9.27,13.32c-1.37,1.93-2.71,3.79-4.04,5.65-.78,1.08-3.57,4.97-3.57,4.97-1.69,2.36-3.44,4.8-5.26,7.2l-6.38,8.58c-.92,1.25-1.91,2.55-2.9,3.84l-3.73,4.85s-4.97,6.48-5,6.52l-8.36,10.54c-1.63,2.1-3.36,4.2-5.03,6.24-.6.74-3.48,4.24-4.3,5.25-1.46,1.78-2.91,3.56-4.39,5.33l-6.99,8.24s-3.53,4.17-3.57,4.22l-3.53,4.02-7.04,8.04c-1.55,1.75-3.1,3.45-4.64,5.15-.88.96-1.75,1.92-2.62,2.89,0,0-5.5,6.06-5.54,6.11l-1.83,1.94-7.29,7.77c-1.86,2.03-3.83,4.04-5.73,6,0,0-9.29,9.56-9.33,9.6l-11.34,11.27c-.83.83-1.72,1.69-2.62,2.54-.43.41-.87.83-1.3,1.25,0,0-9.72,9.32-9.75,9.36l-1.95,1.81-3.93,3.63c-1.12,1.03-2.22,2.05-3.31,3.07-1.51,1.4-3.02,2.8-4.54,4.19-.03.02-8.01,7.15-8.01,7.15-1.84,1.64-4.21,2.54-6.66,2.54Z"/>
            <path class="cls-2" d="M2441.45,3675.87l7.63-6.81c2.52-2.3,5.01-4.64,7.52-6.95l3.76-3.47,1.88-1.74,1.85-1.78,7.39-7.09c1.23-1.19,2.48-2.34,3.69-3.56l3.63-3.62,7.28-7.23,7.15-7.37c2.38-2.46,4.79-4.89,7.12-7.41l7.04-7.5,1.76-1.87,1.73-1.91,3.46-3.82c2.3-2.55,4.63-5.07,6.91-7.64l6.8-7.76,3.4-3.88,3.34-3.95,6.68-7.88,6.57-8c2.18-2.67,4.4-5.31,6.52-8.05l6.44-8.13,1.61-2.03,1.58-2.06,3.16-4.12,3.16-4.12c1.06-1.37,2.12-2.74,3.14-4.14l6.2-8.36c2.09-2.77,4.1-5.61,6.13-8.43,2.02-2.83,4.07-5.63,6.08-8.48l5.97-8.58,2.98-4.29,2.92-4.34,5.86-8.68,5.73-8.79,2.87-4.39,2.81-4.44,5.63-8.89,5.51-8.99,2.76-4.49,2.7-4.54,5.4-9.08,5.28-9.17,32.09,18.39-5.45,9.46-5.57,9.37-2.79,4.68-2.85,4.64-5.69,9.28-5.81,9.18-2.9,4.59-2.97,4.54-5.93,9.09-6.06,8.98-3.02,4.49-3.09,4.44-6.18,8.88c-2.08,2.94-4.2,5.85-6.29,8.77-2.1,2.92-4.18,5.86-6.35,8.73l-6.43,8.65c-1.06,1.45-2.16,2.87-3.25,4.29l-3.28,4.27-3.27,4.27-1.64,2.14-1.67,2.11-6.68,8.42c-2.2,2.83-4.5,5.57-6.76,8.34-2.27,2.76-4.52,5.54-6.81,8.29l-6.93,8.17-3.46,4.09-3.53,4.02-7.05,8.05c-2.36,2.67-4.78,5.28-7.17,7.93l-3.59,3.96-1.8,1.98-1.83,1.94-7.31,7.79c-2.41,2.62-4.91,5.14-7.39,7.7l-7.43,7.65-7.56,7.51-3.78,3.76c-1.25,1.26-2.55,2.46-3.83,3.7l-7.68,7.37-1.92,1.84-1.95,1.81-3.91,3.61c-2.61,2.4-5.19,4.83-7.81,7.22l-7.93,7.08-24.55-27.66.03.02h0Z"/>
            <path class="cls-2" d="M2873.61,3928.41c-2.46,0-4.84-.91-6.68-2.56l-417.94-375.03c-4.11-3.68-4.45-10-.78-14.11,23.12-25.86,44.62-52.72,63.92-79.85,1.88-2.64,4.91-4.2,8.15-4.2,2.08,0,4.13.65,5.82,1.86l456.91,326.42c4.49,3.21,5.53,9.45,2.33,13.94-31.8,44.64-66.89,88.44-104.29,130.2-1.77,1.98-4.25,3.17-6.9,3.31-.18.01-.36.02-.55.02Z"/>
            <path class="cls-2" d="M2520.29,3462.66l456.91,326.42c-31.85,44.71-66.51,87.93-103.59,129.33l-417.94-375.03c22.77-25.47,44.41-52.32,64.61-80.72h.01Z"/>
          </g>
          <g>
            <path class="cls-2" d="M2990.2,3623.18c-1.69,0-3.39-.43-4.96-1.32l-31.77-18.19c-.46-.24-.9-.52-1.33-.84-4.07-3.03-5.24-8.62-2.71-13.01l3.42-5.93,3.34-5.97,6.68-11.99,6.53-12.08,3.24-6.01,3.17-6.05,6.35-12.14,6.2-12.22c2.08-4.06,4.11-8.19,6.07-12.18.7-1.43,1.41-2.87,2.12-4.32,1.3-2.64,2.6-5.28,3.87-7.93l1.89-3.96c3.24-6.77,6.58-13.78,9.73-20.67,3.29-7.04,6.49-14.19,9.58-21.11l1.69-3.78c1.13-2.54,2.24-5.09,3.35-7.65.69-1.6,1.39-3.21,2.09-4.81l2.71-6.24,2.62-6.21,5.26-12.52,5.13-12.58c26.34-65.17,49.41-133.98,68.56-204.5,1.21-4.45,5.24-7.38,9.65-7.38.87,0,1.75.11,2.62.35l35.7,9.68c2.56.69,4.74,2.38,6.06,4.68,1.32,2.3,1.67,5.03.97,7.59-19.74,72.65-43.54,143.62-70.74,210.95,0,0-5.3,13-5.31,13.03l-5.4,12.87-2.73,6.46-4.47,10.3c-1.31,3.04-2.63,6.07-3.98,9.1l-1.46,3.27c-3.28,7.34-6.67,14.93-10.16,22.4-3.36,7.35-6.93,14.83-10.38,22.05l-1.62,3.39c-1.34,2.8-2.71,5.58-4.09,8.37-.71,1.45-1.43,2.89-2.13,4.34l-.85,1.72c-1.78,3.61-3.62,7.35-5.5,11.03,0,0-6.39,12.59-6.41,12.63l-6.53,12.49s-3.31,6.32-3.33,6.36l-3.35,6.21s-6.76,12.5-6.78,12.54l-6.88,12.35s-3.5,6.25-3.52,6.29l-3.53,6.14c-1.85,3.22-5.22,5.02-8.68,5.02Z"/>
            <path class="cls-2" d="M2958.1,3594.81l3.45-5.99,3.37-6.03,6.72-12.06,6.56-12.13,3.27-6.07,3.2-6.1,6.38-12.21,6.23-12.27c2.09-4.08,4.11-8.19,6.13-12.3,2.01-4.11,4.06-8.21,6.04-12.34,3.94-8.26,7.91-16.5,11.7-24.81,3.87-8.28,7.57-16.62,11.3-24.95,1.86-4.17,3.64-8.36,5.47-12.54l2.72-6.27,2.66-6.29,5.29-12.59,5.15-12.63c27.26-67.45,50.08-136.17,68.95-205.65l35.7,9.68c-19.24,70.82-42.52,140.92-70.36,209.83l-5.26,12.91-5.4,12.87-2.72,6.43-2.78,6.41c-1.86,4.27-3.69,8.55-5.59,12.81-3.81,8.52-7.59,17.04-11.55,25.51-3.88,8.49-7.94,16.93-11.97,25.37-2.02,4.22-4.12,8.41-6.18,12.62-2.07,4.2-4.13,8.41-6.27,12.59l-6.37,12.55-6.53,12.49-3.27,6.24-3.35,6.21-6.72,12.42-6.88,12.35-3.45,6.17-3.53,6.14-32.1-18.38h0Z"/>
            <path class="cls-2" d="M2680.78,3446.05c-1.68,0-3.39-.43-4.96-1.32l-32.1-18.37c-2.3-1.32-3.99-3.5-4.68-6.06s-.35-5.29.97-7.59c53.93-94.1,97.31-200.8,128.92-317.11,1.21-4.45,5.24-7.38,9.65-7.38.87,0,1.75.11,2.62.35l35.69,9.68c2.56.69,4.74,2.38,6.06,4.68,1.32,2.3,1.67,5.03.97,7.59-16.01,58.96-35.25,116.39-57.19,170.7,0,0-4.23,10.38-4.25,10.41,0,0-6.48,15.4-6.5,15.44l-2.21,5.08c-.6,1.37-1.18,2.72-1.77,4.07-.89,2.06-1.78,4.11-2.69,6.16l-2.08,4.64c-2.29,5.12-4.66,10.42-7.1,15.61-2.43,5.33-4.96,10.65-7.42,15.79l-2.04,4.27c-1.02,2.14-2.07,4.27-3.12,6.39-.59,1.19-1.18,2.39-1.77,3.59l-.79,1.61c-1.35,2.76-2.76,5.61-4.2,8.42,0,0-4.99,9.84-5.01,9.88,0,0-7.67,14.66-7.69,14.7,0,0-7.86,14.55-7.88,14.59l-5.33,9.55s-2.7,4.86-2.73,4.9l-2.73,4.73c-1.85,3.21-5.21,5-8.67,5Z"/>
            <path class="cls-2" d="M2648.69,3417.68c56.16-97.99,99.16-206.38,129.89-319.46l35.69,9.68c-15.72,57.89-34.62,114.64-56.81,169.57l-4.19,10.28-4.3,10.22-2.15,5.11-2.21,5.08c-1.48,3.38-2.92,6.78-4.42,10.15-3.02,6.72-6,13.47-9.12,20.13-3.05,6.71-6.25,13.32-9.41,19.96-1.58,3.32-3.23,6.59-4.84,9.89-1.62,3.29-3.23,6.59-4.9,9.85l-4.97,9.8-5.09,9.73-2.54,4.86-2.6,4.82-5.21,9.64-5.33,9.55-2.66,4.78-2.73,4.73-32.1-18.37h0Z"/>
            <path class="cls-2" d="M3134.42,3525.76c-1.42,0-2.84-.3-4.15-.9l-510.83-233.18c-5.02-2.29-7.24-8.22-4.95-13.25,14.82-32.48,28.63-66.64,41.05-101.53,1.42-3.99,5.19-6.65,9.42-6.65,1.33,0,2.6.26,3.76.73l528.62,188.17c2.5.89,4.54,2.74,5.68,5.13,1.14,2.4,1.28,5.15.39,7.64-18,50.56-38.15,100.35-59.88,147.99-1.1,2.41-3.12,4.29-5.6,5.22-1.13.42-2.31.63-3.5.63Z"/>
            <path class="cls-2" d="M2664.97,3180.26l529.01,188.31c-17.64,49.54-37.43,98.68-59.56,147.19l-510.83-233.18c15.12-33.14,28.91-67.32,41.37-102.33h.01Z"/>
          </g>
          <g>
            <path class="cls-2" d="M3158.51,3210.71c-.88,0-1.75-.12-2.61-.35l-35.7-9.67c-5.33-1.44-8.48-6.93-7.04-12.26,18.54-68.5,33.53-139.04,44.56-209.65,5.58-35.73,10.15-71.63,13.59-106.72,1.84-18.87,3.28-36.65,4.41-54.34.62-9.65,1.11-18.75,1.5-27.84.19-4.48.38-9.33.52-14.39l.19-7.6.07-4.15.04-5.03c.04-5.49,4.51-9.92,10-9.92h36.99c2.67,0,5.22,1.07,7.1,2.96s2.92,4.46,2.9,7.13l-.05,5.6-.07,4.57-.2,8.06c-.13,4.64-.31,9.47-.56,15.21-.39,9.13-.9,18.63-1.56,29.04-1.16,18.09-2.65,36.49-4.57,56.25-3.54,36.18-8.26,73.17-14,109.97-11.36,72.68-26.79,145.28-45.86,215.76-.69,2.56-2.38,4.74-4.68,6.06-1.53.88-3.25,1.33-4.98,1.33Z"/>
            <path class="cls-2" d="M3122.81,3191.04c18.81-69.51,33.7-139.74,44.79-210.72,5.54-35.5,10.12-71.19,13.66-107.29,1.76-18.07,3.26-36.22,4.44-54.68.59-9.23,1.1-18.54,1.51-28.05.2-4.77.39-9.56.53-14.54l.19-7.63.07-4.23.04-5.12h36.99l-.05,5.6-.07,4.5-.2,7.96c-.15,5.17-.34,10.12-.55,15.04-.42,9.81-.95,19.36-1.55,28.83-1.21,18.92-2.75,37.47-4.54,55.92-3.61,36.85-8.28,73.22-13.93,109.39-11.3,72.31-26.46,143.84-45.63,214.69l-35.7-9.67Z"/>
            <path class="cls-2" d="M2814.41,3117.45c-.88,0-1.75-.12-2.61-.35l-35.33-9.57c-4.5-1.03-7.76-5.04-7.76-9.74h0c0-1.03.15-2.01.43-2.93,15.12-55.93,27.34-113.47,36.33-171.04,4.53-29.06,8.24-58.13,11.02-86.41,1.43-14.74,2.59-29,3.44-42.4.44-6.8.81-13.66,1.1-20.4.12-2.95.26-6.39.34-9.52l.11-4.4.03-1.53c0-.34,0-.68.02-1.02.27-5.32,4.66-9.49,9.99-9.49h36.99c2.68,0,5.25,1.08,7.13,2.99,1.88,1.91,2.91,4.5,2.87,7.18l-.05,3.04-.12,4.83c-.09,3.27-.23,6.7-.37,10.15v.19c-.3,6.85-.69,14.11-1.17,21.6-.88,13.83-2.09,28.74-3.6,44.31-2.89,29.48-6.73,59.64-11.42,89.66-9.33,59.74-22.01,119.45-37.71,177.47-.69,2.56-2.37,4.74-4.68,6.06-1.53.88-3.25,1.33-4.98,1.33Z"/>
            <path class="cls-2" d="M2778.7,3097.79c15.3-56.56,27.57-114.34,36.64-172.43,4.53-29.03,8.26-58.15,11.09-86.98,1.4-14.4,2.58-28.73,3.47-42.74.45-7,.82-13.92,1.11-20.6.14-3.32.27-6.62.35-9.69l.11-4.41.03-1.69c0-.2,0-.4.01-.6h36.99l-.05,3.04-.12,4.74c-.09,3.27-.23,6.72-.37,10.19-.3,6.97-.69,14.14-1.15,21.37-.92,14.47-2.14,29.21-3.57,43.98-2.9,29.58-6.71,59.38-11.35,89.08-9.28,59.43-21.82,118.5-37.48,176.4l-35.7-9.67h-.01Z"/>
            <path class="cls-2" d="M3273.75,3085.52c-.64,0-1.27-.06-1.91-.18l-551.23-107.08c-5.42-1.05-8.96-6.3-7.91-11.72,7.22-37.19,13.06-74.65,17.35-111.34.59-5.06,4.89-8.84,9.92-8.84.2,0,.39,0,.59.02.35.02.69.06,1.03.11l557.28,65.21c2.63.31,5.04,1.65,6.68,3.73,1.64,2.08,2.39,4.73,2.09,7.37-5.99,51.07-14.09,103.1-24.08,154.63-.5,2.6-2.02,4.9-4.22,6.39-1.66,1.12-3.62,1.71-5.59,1.71Z"/>
            <path class="cls-2" d="M2739.99,2856.37l557.73,65.26c-6.09,51.91-14.11,103.03-23.97,153.89l-551.23-107.08c7.23-37.24,13.11-74.84,17.47-112.08h0Z"/>
          </g>
        </g>
        <g>
          <g>
            <path class="cls-2" d="M3225.26,2768.68c-.51,0-1.01-.04-1.5-.11l-35.5-.03c-5.52,0-9.99-4.48-9.99-10,0-.06.05-3.27.05-3.27l.12-4.83c.09-3.37.24-6.91.38-10.34.29-6.86.69-14.12,1.16-21.6.88-13.86,2.09-28.76,3.6-44.31,2.89-29.46,6.73-59.63,11.42-89.66,9.33-59.74,22.01-119.45,37.71-177.47.69-2.56,2.37-4.74,4.67-6.06,1.53-.88,3.25-1.33,4.98-1.33.88,0,1.75.11,2.61.35l35.7,9.67c5.33,1.44,8.48,6.93,7.04,12.26-15.15,56.02-27.41,113.67-36.41,171.36-4.52,28.91-8.23,57.98-11.02,86.41-1.44,14.77-2.59,29.04-3.44,42.4-.44,6.8-.81,13.66-1.1,20.4-.12,2.94-.26,6.39-.34,9.52l-.11,4.4-.03,1.72v.51c0,5.52-4.48,10-10,10Z"/>
            <path class="cls-2" d="M3188.27,2758.51l.05-3.07.12-4.74c.09-3.27.23-6.72.37-10.19.3-6.97.69-14.14,1.15-21.37.92-14.47,2.14-29.21,3.57-43.98,2.9-29.58,6.71-59.38,11.35-89.08,9.28-59.43,21.82-118.5,37.48-176.4l35.7,9.67c-15.3,56.56-27.57,114.34-36.64,172.43-4.54,29.03-8.26,58.15-11.09,86.98-1.4,14.4-2.58,28.73-3.47,42.74-.45,7-.82,13.92-1.11,20.6-.14,3.32-.27,6.62-.35,9.69l-.11,4.41-.03,1.89v.59-.11l-36.99-.03v-.03h0Z"/>
            <path class="cls-2" d="M2832.07,2768.24c-.1,0-.21,0-.31,0-2.14,0-4.13-.67-5.75-1.82-2.58-1.81-4.26-4.81-4.26-8.19,0-.18,0-.36.01-.53l.05-5.26.07-4.38.2-8.05c.13-4.64.31-9.46.56-15.21.39-9.11.9-18.61,1.56-29.04,1.16-18.13,2.65-36.53,4.57-56.25,3.54-36.17,8.25-73.17,14-109.97,11.36-72.69,26.79-145.28,45.86-215.76.69-2.56,2.37-4.74,4.68-6.06,1.53-.88,3.25-1.33,4.98-1.33.88,0,1.75.11,2.61.35l35.7,9.67c5.33,1.44,8.48,6.93,7.04,12.27-18.54,68.5-33.53,139.04-44.56,209.65-5.58,35.73-10.15,71.64-13.59,106.72-1.84,18.87-3.28,36.65-4.41,54.34-.62,9.67-1.11,18.78-1.5,27.84-.19,4.5-.38,9.37-.52,14.39l-.19,7.6-.07,3.99-.05,5.14c-.05,5.49-4.52,9.9-10,9.9,0,0-36.67-.03-36.67-.03Z"/>
            <path class="cls-2" d="M2831.75,2758.25l.05-5.72.07-4.3.2-7.96c.15-5.17.34-10.12.55-15.04.42-9.81.95-19.36,1.55-28.83,1.21-18.92,2.75-37.47,4.54-55.92,3.61-36.85,8.28-73.22,13.93-109.39,11.3-72.31,26.46-143.84,45.63-214.69l35.7,9.67c-18.81,69.51-33.7,139.74-44.79,210.72-5.54,35.5-10.12,71.19-13.66,107.29-1.76,18.07-3.26,36.22-4.44,54.68-.59,9.23-1.1,18.54-1.51,28.05-.2,4.77-.39,9.56-.53,14.54l-.19,7.63-.07,4.07-.05,5.22-36.99-.03h.01Z"/>
            <path class="cls-2" d="M3316.8,2670.75c-.39,0-.78-.02-1.17-.07l-557.73-65.26c-2.64-.31-5.04-1.65-6.68-3.73-1.65-2.08-2.4-4.73-2.09-7.37,5.99-51.06,14.09-103.07,24.07-154.57.43-2.29,1.64-4.38,3.47-5.88,1.81-1.49,4.06-2.29,6.37-2.29.63,0,1.27.06,1.9.18l551.23,107.08c5.42,1.05,8.96,6.3,7.91,11.72-7.22,37.19-13.06,74.65-17.35,111.34-.6,5.09-4.92,8.84-9.92,8.84Z"/>
            <path class="cls-2" d="M2783.03,2441.59l551.23,107.08c-7.23,37.24-13.11,74.84-17.47,112.08l-557.73-65.26c6.09-51.91,14.11-103.03,23.97-153.89h0Z"/>
          </g>
          <g>
            <path class="cls-2" d="M3278.2,2428.89c-.87,0-1.75-.11-2.62-.35l-35.7-9.68c-4.93-1.34-8.06-6.17-7.26-11.21.08-.52.2-1.02.36-1.5,15.99-58.81,35.19-116.09,57.07-170.25,0,0,4.23-10.38,4.24-10.41,0,0,6.48-15.4,6.5-15.44l2.21-5.08c.59-1.35,1.16-2.68,1.74-4.01.9-2.08,1.8-4.16,2.72-6.22l2.09-4.66c2.29-5.12,4.66-10.41,7.09-15.61,2.43-5.35,4.99-10.69,7.45-15.86l2-4.2c1.02-2.15,2.08-4.28,3.13-6.41.59-1.19,1.17-2.38,1.76-3.57l.8-1.63c1.35-2.75,2.75-5.59,4.18-8.39,0,0,4.99-9.84,5.01-9.88,0,0,7.67-14.66,7.69-14.7l2.6-4.82s5.26-9.73,5.28-9.77l5.33-9.55s2.71-4.86,2.73-4.91l2.73-4.73c1.85-3.21,5.21-5,8.67-5,1.69,0,3.39.43,4.96,1.32l32.1,18.38c2.3,1.32,3.99,3.5,4.68,6.06.7,2.56.34,5.29-.97,7.59-53.93,94.11-97.31,200.8-128.92,317.11-1.21,4.45-5.24,7.38-9.64,7.38Z"/>
            <path class="cls-2" d="M3242.5,2409.21c15.72-57.89,34.62-114.64,56.81-169.57l4.19-10.28,4.3-10.22,2.15-5.11,2.21-5.08c1.48-3.38,2.92-6.78,4.42-10.15,3.02-6.72,6-13.47,9.12-20.14,3.05-6.7,6.25-13.32,9.41-19.96,1.58-3.32,3.23-6.59,4.84-9.89,1.62-3.29,3.23-6.59,4.9-9.85l4.97-9.8,5.09-9.73,2.54-4.86,2.6-4.82,5.21-9.64,5.33-9.55,2.66-4.78,2.73-4.73,32.1,18.38c-56.16,97.99-99.16,206.38-129.89,319.46l-35.7-9.68h0Z"/>
            <path class="cls-2" d="M2934.11,2335.55c-.87,0-1.75-.11-2.62-.35l-35.7-9.68c-3.4-.92-6.06-3.57-7.01-6.96-.53-1.89-.48-3.86.08-5.67,19.72-72.53,43.49-143.39,70.64-210.61,0,0,5.3-13,5.31-13.03l5.4-12.87,2.73-6.46,4.52-10.41c1.3-3,2.6-6,3.93-8.99l1.47-3.29c3.28-7.34,6.67-14.92,10.15-22.38,3.39-7.42,7-14.97,10.48-22.26l1.52-3.18c1.34-2.8,2.71-5.58,4.08-8.36.71-1.45,1.43-2.89,2.14-4.34l.88-1.78c1.77-3.59,3.6-7.3,5.47-10.97,0,0,6.39-12.59,6.41-12.63l6.53-12.49s3.31-6.32,3.33-6.35l3.35-6.21s6.77-12.5,6.79-12.54l6.88-12.35s3.5-6.25,3.52-6.29l3.53-6.14c1.85-3.22,5.22-5.02,8.68-5.02,1.69,0,3.39.43,4.96,1.32l32.1,18.38c2.31,1.32,3.99,3.5,4.69,6.07.69,2.56.34,5.3-.99,7.6l-3.42,5.94-3.34,5.97-6.68,12-6.53,12.07-3.24,6.01-3.17,6.05-6.34,12.14-6.2,12.22c-2.07,4.03-4.1,8.17-6.07,12.17-.69,1.42-1.4,2.84-2.1,4.27-1.31,2.66-2.62,5.32-3.91,7.99l-1.86,3.9c-3.24,6.79-6.6,13.82-9.75,20.73-3.3,7.05-6.5,14.22-9.6,21.16l-1.67,3.73c-1.13,2.54-2.24,5.1-3.35,7.66-.69,1.6-1.39,3.2-2.09,4.81l-2.71,6.24-2.62,6.21-5.26,12.52-5.13,12.58c-26.34,65.17-49.41,133.98-68.56,204.5-1.21,4.45-5.24,7.38-9.65,7.38Z"/>
            <path class="cls-2" d="M2898.41,2315.86c19.24-70.82,42.52-140.92,70.36-209.83l5.26-12.91,5.4-12.87,2.72-6.43,2.78-6.41c1.86-4.27,3.69-8.55,5.59-12.81,3.81-8.52,7.59-17.04,11.55-25.51,3.88-8.49,7.94-16.93,11.97-25.37,2.02-4.22,4.12-8.41,6.18-12.62,2.07-4.2,4.13-8.41,6.27-12.59l6.37-12.55,6.53-12.49,3.27-6.24,3.35-6.21,6.72-12.42,6.88-12.35,3.45-6.17,3.53-6.14,32.1,18.38-3.45,5.99-3.37,6.03-6.72,12.06-6.56,12.13-3.27,6.07-3.2,6.1-6.38,12.21-6.23,12.27c-2.09,4.08-4.11,8.19-6.13,12.3-2.01,4.11-4.06,8.21-6.04,12.34-3.94,8.26-7.91,16.5-11.7,24.81-3.87,8.28-7.57,16.62-11.3,24.95-1.86,4.17-3.64,8.36-5.47,12.54l-2.72,6.27-2.66,6.29-5.29,12.59-5.15,12.63c-27.26,67.45-50.08,136.17-68.95,205.65l-35.7-9.68h0Z"/>
            <path class="cls-2" d="M3391.81,2346.86c-1.13,0-2.27-.19-3.35-.58l-529.01-188.31c-2.5-.89-4.54-2.74-5.68-5.13s-1.28-5.15-.39-7.64c17.95-50.41,38.03-100.06,59.7-147.57.76-1.9,2.1-3.54,3.87-4.68,1.64-1.05,3.52-1.59,5.42-1.59,1.41,0,2.82.3,4.15.9l510.83,233.18c5.02,2.29,7.24,8.22,4.95,13.25-14.82,32.48-28.63,66.64-41.05,101.53-.89,2.5-2.74,4.54-5.13,5.68-1.35.64-2.82.97-4.29.97Z"/>
            <path class="cls-2" d="M2922.35,2001.35l510.83,233.18c-15.12,33.14-28.91,67.32-41.37,102.33l-529.01-188.31c17.64-49.54,37.43-98.68,59.56-147.19h-.01Z"/>
          </g>
          <g>
            <path class="cls-2" d="M3408.32,2109.08c-1.69,0-3.4-.43-4.96-1.33l-32.09-18.39c-.23-.13-.45-.27-.66-.42-4.32-2.95-5.67-8.74-3.06-13.27,0,0,5.5-9.54,5.52-9.58l5.57-9.37s2.84-4.77,2.87-4.81l2.85-4.64s5.74-9.35,5.76-9.39l5.81-9.18s2.95-4.67,2.98-4.72l2.97-4.54s5.98-9.17,6.01-9.21l6.06-8.98s3.07-4.56,3.1-4.61l9.27-13.32c1.37-1.94,2.71-3.79,4.05-5.65.78-1.08,3.55-4.94,3.55-4.94,1.7-2.37,3.45-4.81,5.27-7.23l6.38-8.58c.92-1.25,1.91-2.55,2.9-3.84l3.72-4.85s4.97-6.48,5-6.52l8.36-10.54c1.63-2.09,3.35-4.19,5.02-6.23.61-.74,3.49-4.26,4.31-5.26,1.46-1.78,2.91-3.56,4.39-5.33l6.99-8.24s3.53-4.17,3.57-4.22l3.53-4.02,7.04-8.04c1.55-1.75,3.09-3.45,4.64-5.15.88-.96,1.75-1.93,2.63-2.89,0,0,5.5-6.06,5.54-6.1l1.83-1.94,7.29-7.77c1.86-2.02,3.82-4.04,5.72-5.98,0,0,9.3-9.58,9.34-9.62l11.34-11.27c.83-.83,1.72-1.69,2.62-2.55.43-.41.87-.83,1.3-1.25,0,0,9.71-9.32,9.75-9.36l1.95-1.81,3.93-3.63c1.12-1.03,2.21-2.04,3.31-3.06,1.51-1.4,3.02-2.81,4.55-4.2.03-.02,8.01-7.15,8.01-7.15,1.84-1.64,4.21-2.54,6.66-2.54.19,0,.39,0,.58.02,2.65.15,5.14,1.36,6.9,3.35l24.55,27.66c3.66,4.12,3.29,10.43-.82,14.1l-7.59,6.77c-1.45,1.32-2.88,2.65-4.31,3.98-1.04.97-2.09,1.94-3.13,2.9l-5.55,5.13-9.18,8.81c-.42.41-.88.84-1.33,1.27-.73.7-1.46,1.39-2.18,2.11l-3.67,3.66-7.23,7.18-8.97,9.24c-1.77,1.82-3.44,3.53-5.07,5.3l-8.79,9.37-5.12,5.66c-.85.94-1.71,1.89-2.57,2.83-1.43,1.57-2.86,3.14-4.27,4.73l-10.1,11.53-3.28,3.88-6.64,7.83s-7.65,9.32-8.23,10.02c-1.62,1.97-3.15,3.83-4.63,5.74-.02.03-8.07,10.19-8.07,10.19l-7.85,10.23c-1.02,1.32-2.05,2.65-2.99,3.94l-6.25,8.43c-1.63,2.16-3.16,4.29-4.77,6.54l-1.28,1.78c-.81,1.13-1.65,2.3-2.49,3.46-1.18,1.64-2.37,3.28-3.54,4.94l-5.93,8.53-2.93,4.22-2.88,4.28-5.82,8.63-5.68,8.72-2.84,4.34-8.36,13.21-5.47,8.93-2.73,4.44-8.03,13.49-5.25,9.11c-1.85,3.21-5.22,5.01-8.68,5.01Z"/>
            <path class="cls-2" d="M3376.21,2080.67l5.45-9.46,5.57-9.37,2.79-4.68,2.85-4.64,5.69-9.28,5.81-9.18,2.9-4.59,2.97-4.54,5.93-9.09,6.06-8.98,3.02-4.49,3.09-4.44,6.18-8.88c2.08-2.94,4.2-5.85,6.29-8.77,2.1-2.92,4.18-5.86,6.35-8.73l6.43-8.65c1.06-1.45,2.16-2.87,3.25-4.29l3.28-4.27,3.27-4.27,1.64-2.14,1.67-2.11,6.68-8.42c2.2-2.83,4.5-5.57,6.76-8.34,2.27-2.76,4.52-5.54,6.81-8.29l6.93-8.17,3.46-4.09,3.53-4.02,7.05-8.05c2.36-2.67,4.78-5.28,7.17-7.93l3.59-3.96,1.8-1.98,1.83-1.94,7.31-7.79c2.41-2.62,4.91-5.14,7.39-7.7l7.43-7.65,7.56-7.51,3.78-3.76c1.25-1.26,2.55-2.46,3.83-3.7l7.68-7.37,1.92-1.84,1.95-1.81,3.91-3.61c2.61-2.4,5.19-4.83,7.81-7.22l7.93-7.08,24.55,27.66-7.63,6.81c-2.52,2.3-5.01,4.64-7.52,6.95l-3.76,3.47-1.88,1.74-1.85,1.78-7.39,7.09c-1.23,1.19-2.48,2.34-3.69,3.56l-3.63,3.62-7.28,7.23-7.15,7.37c-2.38,2.46-4.79,4.89-7.12,7.41l-7.04,7.5-1.76,1.87-1.73,1.91-3.46,3.82c-2.3,2.55-4.63,5.07-6.91,7.64l-6.8,7.76-3.4,3.88-3.34,3.95-6.68,7.88-6.57,8c-2.18,2.67-4.4,5.31-6.52,8.05l-6.44,8.13-1.61,2.03-1.58,2.06-3.16,4.12-3.16,4.12c-1.06,1.37-2.12,2.74-3.14,4.14l-6.2,8.36c-2.09,2.77-4.1,5.61-6.13,8.43-2.02,2.83-4.07,5.63-6.08,8.48l-5.97,8.58-2.98,4.29-2.92,4.34-5.86,8.68-5.73,8.79-2.87,4.39-2.81,4.44-5.63,8.89-5.51,8.99-2.76,4.49-2.7,4.54-5.4,9.08-5.28,9.17-32.09-18.39-.03-.02h0Z"/>
            <path class="cls-2" d="M3098.91,1931.82c-1.69,0-3.4-.43-4.96-1.33l-32.09-18.39c-3.93-2.25-5.86-6.87-4.69-11.25.3-1.11.77-2.14,1.39-3.05,0,0,6.76-11.72,6.78-11.75l7.24-12.2s3.68-6.17,3.7-6.21l3.71-6.06s7.48-12.19,7.51-12.23l7.6-12.03s3.86-6.09,3.89-6.13l3.89-5.97s7.86-12.02,7.88-12.05c0,0,12.01-17.84,12.04-17.87l4.07-5.87,8.18-11.75c1.87-2.65,3.73-5.23,5.59-7.82.94-1.31,4.38-6.1,4.38-6.1,2.26-3.15,4.6-6.4,7-9.59l8.52-11.47c1.44-1.96,2.96-3.94,4.43-5.85,0,0,10.99-14.31,11.02-14.35l11.17-14.1c2.56-3.26,5.23-6.51,7.81-9.66,0,0,3.41-4.15,4.43-5.4,2.03-2.48,4.06-4.96,6.11-7.42,0,0,14.11-16.65,14.14-16.69l4.75-5.43,9.52-10.86c2.2-2.48,4.39-4.9,6.58-7.31,1.06-1.17,2.13-2.35,3.19-3.52l4.87-5.37s2.51-2.75,2.54-2.79l2.47-2.64,9.91-10.56c2.86-3.07,5.83-6.13,8.71-9.09,0,0,11.62-11.94,11.65-11.98l10.27-10.22,5.15-5.11c1.21-1.21,2.46-2.41,3.72-3.62,0,0,14.78-14.17,14.82-14.2l7.99-7.41c1.26-1.17,2.5-2.31,3.75-3.46,2.32-2.15,4.65-4.3,6.99-6.44l10.9-9.74c1.84-1.64,4.21-2.54,6.66-2.54.19,0,.39,0,.58.02,2.65.15,5.14,1.36,6.9,3.35l24.55,27.66c3.66,4.12,3.29,10.43-.82,14.1l-10.53,9.4c-2.39,2.17-4.83,4.44-7.27,6.7l-2.97,2.75-5.18,4.79-2.51,2.33-12.67,12.14c-.6.58-1.24,1.2-1.89,1.81-1.02.97-2.04,1.95-3.03,2.94l-5.03,4.99-9.92,9.87-11.47,11.79c-2.62,2.69-5.32,5.48-7.88,8.23l-9.67,10.3-2.34,2.51-2.33,2.56-4.7,5.19c-1.03,1.14-2.07,2.29-3.12,3.44-2.08,2.3-4.17,4.59-6.23,6.92l-9.23,10.52-4.56,5.22-4.49,5.3-9.06,10.7c-2.14,2.57-4.31,5.22-6.47,7.87l-4.12,5.04c-2.29,2.79-4.65,5.67-6.88,8.52l-8.74,11.02-2.12,2.68-6.35,8.26-4.24,5.54c-1.41,1.84-2.78,3.62-4.11,5.43l-8.35,11.24c-2.3,3.06-4.57,6.22-6.76,9.27l-4.1,5.7c-1.79,2.49-3.58,4.97-5.35,7.47l-7.92,11.37-3.92,5.65-11.58,17.19-11.33,17.35-3.68,5.81-7.38,11.66-10.8,17.62-3.52,5.9-7.03,11.84-6.88,11.93c-1.85,3.21-5.21,5.01-8.67,5.01Z"/>
            <path class="cls-2" d="M3066.86,1903.43l7.08-12.27,7.24-12.2,3.63-6.09,3.71-6.06,7.43-12.11,7.6-12.03,3.81-6.01,3.89-5.97,7.8-11.93,7.97-11.84,3.99-5.92,4.07-5.87,8.17-11.73c2.75-3.89,5.56-7.76,8.34-11.64,2.79-3.87,5.56-7.76,8.43-11.58l8.55-11.51c1.41-1.92,2.87-3.82,4.33-5.72l4.37-5.7,4.37-5.69,2.19-2.85,2.23-2.82,8.93-11.27c2.96-3.77,6.02-7.47,9.06-11.18,3.05-3.71,6.07-7.43,9.14-11.12l9.32-11,4.66-5.5,4.75-5.43,9.51-10.85c3.19-3.6,6.45-7.15,9.68-10.73l4.85-5.35,2.43-2.67,2.47-2.64,9.9-10.55c3.28-3.53,6.66-6.98,10.02-10.44l10.1-10.38,10.27-10.22,5.14-5.1c1.71-1.71,3.47-3.36,5.21-5.04l10.47-10.04,2.62-2.51,2.66-2.47,5.32-4.93c3.56-3.28,7.09-6.58,10.67-9.84l10.83-9.67,24.55,27.66-10.53,9.4c-3.48,3.16-6.92,6.38-10.37,9.57l-5.18,4.79-2.58,2.4-2.55,2.44-10.18,9.76c-1.69,1.64-3.41,3.24-5.07,4.9l-5,4.96-9.99,9.94-9.82,10.09c-3.27,3.37-6.56,6.72-9.75,10.16l-9.63,10.26-2.4,2.57-2.37,2.6-4.72,5.21c-3.14,3.48-6.31,6.93-9.42,10.44l-9.26,10.56-4.62,5.29-4.54,5.35-9.07,10.71c-2.99,3.59-5.94,7.22-8.9,10.83-2.96,3.62-5.94,7.21-8.82,10.89l-8.7,10.97-2.17,2.75-2.13,2.77-4.26,5.55-4.25,5.55c-1.42,1.85-2.84,3.7-4.22,5.57l-8.33,11.21c-2.8,3.73-5.49,7.51-8.21,11.29-2.71,3.78-5.44,7.54-8.13,11.34l-7.96,11.43-3.97,5.72-3.89,5.77-7.77,11.54-7.6,11.64-3.8,5.82-3.72,5.86-7.42,11.73-7.25,11.82-3.62,5.91-3.55,5.95-7.07,11.91-6.91,11.98-32.09-18.39h.03Z"/>
            <path class="cls-2" d="M3536.49,2064.46c-2.07,0-4.11-.64-5.81-1.86l-456.91-326.42c-4.49-3.21-5.53-9.45-2.33-13.94,31.79-44.63,66.88-88.43,104.28-130.19,1.77-1.98,4.25-3.17,6.9-3.31.18,0,.36-.01.54-.01h0s0,0,0,0c2.64,0,5.12,1.04,6.95,2.81l417.66,374.78c4.11,3.68,4.45,10,.78,14.11-23.12,25.86-44.62,52.73-63.92,79.85-1.54,2.16-3.88,3.63-6.5,4.07-.55.09-1.1.14-1.65.14Z"/>
            <path class="cls-2" d="M3183.16,1598.71l417.94,375.03c-22.77,25.47-44.41,52.32-64.61,80.72l-456.91-326.42c31.85-44.71,66.51-87.93,103.59-129.33h-.01Z"/>
          </g>
          <g>
            <path class="cls-2" d="M3615.63,1850.98c-.19,0-.38,0-.58-.02-2.66-.15-5.14-1.36-6.91-3.35l-24.54-27.67c-1.62-1.83-2.52-4.19-2.52-6.64,0-2.85,1.21-5.58,3.34-7.48l3.96-3.54c.91-.8,1.78-1.54,2.64-2.28l9.57-8.24s2.14-1.83,2.18-1.87l2.05-1.69,4.07-3.37c1.06-.88,2.1-1.74,3.15-2.61,1.7-1.41,3.4-2.82,5.11-4.22.03-.02,12.49-9.96,12.49-9.96.94-.77,1.9-1.5,2.87-2.23.49-.37.98-.74,1.47-1.12l.08-.07c1.57-1.19,3.13-2.39,4.69-3.59,4.01-3.09,8.16-6.28,12.4-9.34,22.94-16.98,46.86-33.15,71.08-48.05,48.19-29.55,100.13-55.6,154.38-77.46,1.22-.49,2.49-.73,3.73-.73,3.96,0,7.71,2.37,9.28,6.27l13.82,34.31c2.06,5.12-.42,10.95-5.54,13.01-51.34,20.69-100.42,45.31-145.86,73.17-22.91,14.09-45.46,29.34-67.02,45.3-.03.02-.07.05-.1.07-3.91,2.82-7.87,5.87-11.69,8.81-1.46,1.12-2.91,2.24-4.37,3.36-.45.35-.98.75-1.5,1.15-.78.59-1.56,1.18-2.31,1.79l-4.04,3.23-7.96,6.34c-1.44,1.17-2.86,2.36-4.29,3.55-1.17.97-2.33,1.94-3.51,2.9l-5.81,4.81-10.71,9.22c-.89.77-1.79,1.53-2.68,2.32l-3.76,3.36c-1.84,1.65-4.22,2.55-6.67,2.55Z"/>
            <path class="cls-2" d="M3591.09,1813.29l3.96-3.54c1.33-1.17,2.68-2.31,4.02-3.47l8.05-6.93,2.02-1.73,2.05-1.69,4.09-3.39c2.73-2.25,5.44-4.53,8.19-6.77l8.3-6.62,4.15-3.31c1.37-1.12,2.8-2.16,4.2-3.25,5.63-4.29,11.19-8.67,16.93-12.82,22.76-16.85,46.24-32.73,70.42-47.6,48.39-29.67,99.55-55.22,152.88-76.7l13.82,34.31c-51.5,20.75-100.79,45.37-147.35,73.92-23.26,14.31-45.85,29.58-67.74,45.79-5.52,3.98-10.87,8.2-16.28,12.33-1.34,1.04-2.72,2.05-4.04,3.12l-3.99,3.19-7.99,6.36c-2.64,2.15-5.24,4.35-7.87,6.51l-3.94,3.26-1.97,1.63-1.94,1.67-7.75,6.67c-1.29,1.11-2.59,2.21-3.87,3.34l-3.81,3.41-24.54-27.67v-.02h0Z"/>
            <path class="cls-2" d="M3379.03,1584.25c-.19,0-.39,0-.58-.02-2.65-.16-5.13-1.36-6.9-3.35l-24.54-27.67c-1.91-2.15-2.79-5.01-2.44-7.86.31-2.52,1.57-4.82,3.5-6.44l5.22-4.65c1.38-1.21,2.72-2.37,4.06-3.52l12.57-10.81s2.85-2.44,2.89-2.47l8.39-6.96c1.44-1.19,2.85-2.35,4.25-3.52,2.34-1.94,4.67-3.88,7.03-5.79l17.12-13.66c1.3-1.05,2.66-2.09,4.01-3.12.61-.47,6.51-5,6.51-5,6.08-4.68,12.38-9.51,18.73-14.14,31.24-23.14,63.86-45.18,96.89-65.48,65.1-39.93,134.94-75.01,207.61-104.28,1.22-.49,2.49-.73,3.73-.73,3.96,0,7.71,2.37,9.28,6.27l13.82,34.31c2.06,5.12-.42,10.95-5.54,13.01-69.74,28.09-136.73,61.73-199.1,99.99-31.69,19.48-62.93,40.59-92.84,62.74-5.96,4.33-11.87,8.88-17.59,13.28-1.6,1.23-5.95,4.57-6.55,5.03-1.22.93-2.43,1.86-3.62,2.82l-5.59,4.45-11.03,8.8c-2.26,1.84-4.58,3.76-6.9,5.68-1.29,1.07-2.58,2.14-3.88,3.21l-8.07,6.69-2.62,2.25-12.48,10.74c-1.16,1-2.32,1.99-3.47,3l-5.22,4.66c-1.84,1.64-4.21,2.54-6.66,2.54Z"/>
            <path class="cls-2" d="M3354.52,1546.56l5.42-4.83c1.82-1.6,3.66-3.17,5.49-4.75l11.01-9.47,2.76-2.36,2.79-2.32,5.59-4.64c3.74-3.08,7.45-6.19,11.21-9.25l11.36-9.07,5.68-4.53c1.89-1.52,3.83-2.97,5.74-4.45,7.69-5.89,15.34-11.85,23.17-17.55,31.15-23.07,63.28-44.79,96.24-65.04,65.96-40.46,135.19-74.96,206.11-103.52l13.82,34.31c-69.09,27.83-136.45,61.4-200.59,100.74-32.05,19.7-63.29,40.81-93.56,63.23-7.62,5.54-15.05,11.34-22.52,17.06-1.86,1.44-3.75,2.85-5.58,4.33l-5.53,4.4-11.04,8.81c-3.65,2.97-7.26,5.99-10.9,8.99l-5.44,4.51-2.72,2.26-2.68,2.3-10.71,9.21c-1.78,1.54-3.57,3.06-5.34,4.62l-5.27,4.7-24.54-27.67.03-.02h0Z"/>
            <path class="cls-2" d="M3748.41,1853.07c-3.16,0-6.26-1.49-8.21-4.27l-321.54-460.36c-1.52-2.18-2.11-4.87-1.65-7.48s1.95-4.94,4.13-6.45c23.51-16.36,47.3-31.94,70.69-46.33,24.31-14.84,48.9-28.95,73.09-41.96,1.47-.79,3.1-1.19,4.74-1.19.97,0,1.94.14,2.89.43,2.54.77,4.67,2.51,5.93,4.85l265.23,494.95c2.61,4.86.78,10.92-4.07,13.53-14.15,7.62-28.85,16.05-43.7,25.08-13.64,8.4-27.73,17.64-41.84,27.43-1.74,1.21-3.73,1.79-5.69,1.79Z"/>
            <path class="cls-2" d="M3569.67,1295.02l265.23,494.95c-14.99,8.07-29.69,16.55-44.15,25.34-14.4,8.87-28.5,18.15-42.35,27.76l-321.54-460.36c23-16,46.41-31.38,70.22-46.02,23.86-14.56,48.06-28.48,72.59-41.67h0Z"/>
          </g>
          <g>
            <path class="cls-2" d="M3894.55,1679.63c-3.96,0-7.71-2.37-9.28-6.27l-13.81-34.31c-1.5-3.72-.63-7.97,2.21-10.81.95-.95,2.1-1.71,3.35-2.22,52.66-21.2,108.95-38.97,167.3-52.82,28.1-6.68,57.45-12.63,87.24-17.68,28.04-4.73,58-8.81,89.07-12.12.35-.04.71-.06,1.06-.06,2.28,0,4.5.78,6.28,2.22,2.06,1.67,3.38,4.08,3.66,6.72l3.91,36.78c.58,5.49-3.39,10.41-8.88,11-29.99,3.2-58.8,7.13-85.63,11.66-28.55,4.84-56.66,10.54-83.54,16.93-55.59,13.2-109.16,30.11-159.21,50.25-1.22.49-2.49.73-3.73.73Z"/>
            <path class="cls-2" d="M3880.75,1635.31c53.34-21.47,108.85-38.83,165.88-52.37,28.52-6.78,57.41-12.6,86.6-17.55,29.2-4.93,58.72-8.87,88.46-12.04l3.91,36.78c-29.02,3.1-57.81,6.94-86.23,11.74-28.42,4.82-56.51,10.48-84.19,17.06-55.37,13.15-109.11,29.97-160.63,50.7l-13.81-34.31h0Z"/>
            <path class="cls-2" d="M3761.47,1348.88c-3.96,0-7.71-2.37-9.28-6.27l-13.81-34.31c-.48-1.19-.72-2.45-.72-3.73,0-4.08,2.48-7.76,6.27-9.29,69.08-27.8,142.43-51,218-68.94,35.79-8.51,72.95-16.04,110.45-22.38,35.43-5.98,71.58-10.91,110.52-15.07.35-.04.71-.06,1.06-.06,2.28,0,4.5.78,6.28,2.22,2.06,1.67,3.38,4.09,3.66,6.72l3.91,36.78c.58,5.49-3.39,10.42-8.88,11-37.08,3.96-73.11,8.87-107.08,14.6-36.13,6.11-72.04,13.39-106.75,21.64-72.85,17.3-143.47,39.63-209.9,66.37-1.22.49-2.49.73-3.73.73Z"/>
            <path class="cls-2" d="M3747.66,1304.56c70.94-28.55,143.55-51.15,216.58-68.49,36.52-8.68,73.16-16.05,109.81-22.25,36.65-6.19,73.31-11.08,109.91-14.99l3.91,36.78c-35.88,3.83-71.8,8.63-107.68,14.68-35.88,6.07-71.71,13.29-107.4,21.77-71.37,16.95-142.2,39-211.32,66.82l-13.81-34.31h0Z"/>
            <path class="cls-2" d="M4022.62,1724.3c-1.66,0-3.31-.41-4.79-1.22-2.34-1.28-4.07-3.44-4.81-6l-156.03-539.42c-1.53-5.29,1.5-10.81,6.78-12.37,0,0,4.98-1.47,5.03-1.48l4.88-1.36,9.79-2.71,10.04-2.77c3.17-.88,6.46-1.78,9.77-2.6,2.76-.7,5.58-1.43,8.41-2.15,10.11-2.59,20.56-5.28,30.92-7.65,1.96-.46,3.98-.94,5.99-1.41,4.54-1.07,9.08-2.14,13.62-3.17l19.69-4.27s9.92-2.13,9.97-2.14l9.8-1.95,19.62-3.86c.45-.09.91-.15,1.36-.17.19-.01.39-.02.58-.02,4.77,0,8.93,3.39,9.83,8.14l104.63,551.7c1.02,5.4-2.5,10.61-7.89,11.67l-13.42,2.65-6.62,1.3-6.55,1.43-13.25,2.86c-2.67.61-5.32,1.24-7.97,1.87-1.7.4-3.4.81-5.11,1.21-6,1.35-12,2.89-17.79,4.38-2.74.7-5.47,1.41-8.21,2.09-1.84.45-3.62.95-5.51,1.47l-7.19,1.99-9.59,2.63-3.09.92c-.94.28-1.9.42-2.85.42Z"/>
            <path class="cls-2" d="M4023.22,1137.57l104.63,551.7-13.42,2.65-6.71,1.32-6.65,1.45-13.3,2.87c-4.41,1.01-8.78,2.07-13.18,3.1-8.82,1.98-17.45,4.33-26.16,6.51-2.18.53-4.33,1.14-6.48,1.74l-6.45,1.78-6.46,1.77-3.23.89-3.19.95-156.03-539.42,4.88-1.44,4.88-1.36,9.77-2.7,9.77-2.69c3.26-.9,6.51-1.8,9.78-2.61,13.04-3.32,26.09-6.77,39.15-9.76,6.53-1.53,13.06-3.1,19.59-4.58l19.6-4.25,9.8-2.11,9.8-1.95,19.6-3.86h0Z"/>
          </g>
          <g>
            <path class="cls-2" d="M4226.06,1600.09c-2.28,0-4.49-.78-6.28-2.22-2.07-1.67-3.38-4.09-3.67-6.73l-3.85-36.34c-.39-2.61.26-5.28,1.83-7.42,1.66-2.26,4.2-3.73,6.99-4.03,0,0,11.22-1.21,11.26-1.21,2.35-.23,4.71-.43,7.06-.64,1.4-.12,2.79-.25,4.19-.37l11.21-1.01s5.72-.51,5.77-.51l5.62-.41s22.61-1.63,22.67-1.63l22.58-1.27c29.6-1.44,60.34-2.21,91.45-2.3,36.18-.08,72.02-.98,106.53-2.67l26.71-1.5c6.43-.43,12.87-.9,19.31-1.38l14.1-1.03,6.64-.58s16.46-1.47,17.99-1.61c2.94-.26,5.87-.52,8.81-.81l13.38-1.42c.35-.04.71-.06,1.06-.06,2.28,0,4.5.78,6.29,2.22,2.06,1.67,3.38,4.09,3.66,6.72l3.9,36.78c.58,5.49-3.4,10.41-8.89,11,0,0-13.79,1.47-13.82,1.47-2.85.27-5.71.53-8.56.79-1.73.15-18.92,1.7-18.92,1.7,0,0-6.97.61-7.01.61l-14.95,1.09c-6.44.47-12.88.94-19.31,1.38-.04,0-27.45,1.55-27.45,1.55-35.4,1.74-72.19,2.66-109.4,2.75-30.27.08-60.08.83-88.59,2.22l-21.94,1.23-27.32,1.98-19.95,1.79c-2.4.21-4.8.43-7.2.66l-10.82,1.16c-.36.04-.71.06-1.07.06Z"/>
            <path class="cls-2" d="M4222.15,1553.3l11.15-1.2c3.73-.36,7.47-.67,11.2-1.01l11.2-1.01,5.6-.5,5.62-.41,22.5-1.62,22.58-1.27c30.16-1.47,60.48-2.2,90.91-2.28,35.56-.08,71.24-.93,106.99-2.68l26.84-1.51c8.95-.6,17.91-1.28,26.87-1.93l6.72-.49,6.72-.59,13.45-1.2c4.48-.41,8.96-.79,13.45-1.23l13.46-1.43,3.9,36.78-13.72,1.46c-4.57.44-9.14.83-13.71,1.25l-13.71,1.23-6.85.6-6.84.5c-9.12.66-18.25,1.35-27.37,1.97l-27.33,1.54c-36.41,1.79-72.7,2.65-108.86,2.73-29.84.08-59.54.79-89.05,2.23l-22.09,1.24-21.99,1.59-5.5.4-5.47.49-10.94.98c-3.65.33-7.3.64-10.94.99l-10.88,1.17-3.9-36.78h-.01Z"/>
            <path class="cls-2" d="M4188.41,1245.53c-2.28,0-4.5-.78-6.29-2.22-2.06-1.67-3.38-4.09-3.66-6.72l-3.9-36.78c-.3-2.82.61-5.63,2.51-7.74,1.76-1.96,4.23-3.14,6.84-3.3l13.26-1.41c2.98-.29,5.86-.55,8.75-.8,1.7-.15,18.84-1.69,18.84-1.69,0,0,6.97-.61,7.01-.61l14.95-1.09c6.44-.47,12.88-.94,19.31-1.38.04,0,27.45-1.55,27.45-1.55,35.4-1.74,72.19-2.66,109.4-2.75,30.28-.08,60.09-.83,88.58-2.22l21.94-1.23,27.32-1.98,19.94-1.78c2.4-.21,4.81-.43,7.21-.66l10.82-1.16c.36-.04.71-.06,1.07-.06,2.28,0,4.49.78,6.28,2.22,2.07,1.67,3.38,4.09,3.67,6.73l3.9,36.78c.58,5.49-3.39,10.41-8.88,11,0,0-11.22,1.21-11.26,1.21-2.34.23-4.68.43-7.02.64-1.41.12-2.82.25-4.23.38l-11.21,1.01s-5.71.51-5.77.51l-5.62.41s-22.61,1.63-22.67,1.63l-22.58,1.27c-29.6,1.44-60.34,2.21-91.45,2.3-36.18.08-72.02.98-106.53,2.67l-26.71,1.5c-6.44.43-12.88.91-19.33,1.38l-14.08,1.03-6.65.58s-16.46,1.47-17.98,1.61c-2.94.26-5.88.52-8.82.81l-13.38,1.42c-.35.04-.71.06-1.06.06Z"/>
            <path class="cls-2" d="M4184.52,1198.76l13.72-1.46c4.57-.44,9.14-.83,13.71-1.25l13.71-1.23,6.85-.6,6.84-.5c9.12-.66,18.25-1.35,27.37-1.97l27.33-1.54c36.41-1.79,72.7-2.65,108.86-2.73,29.84-.08,59.54-.79,89.05-2.23l22.09-1.24,21.99-1.59,5.5-.4,5.47-.49,10.94-.98c3.65-.33,7.3-.64,10.94-.99l10.88-1.17,3.9,36.78-11.15,1.2c-3.73.36-7.47.67-11.2,1.01l-11.2,1.01-5.6.5-5.62.41-22.5,1.62-22.58,1.27c-30.16,1.47-60.48,2.2-90.91,2.28-35.56.08-71.24.93-106.99,2.68l-26.84,1.51c-8.95.6-17.91,1.28-26.87,1.93l-6.72.49-6.72.59-13.45,1.2c-4.48.41-8.96.79-13.45,1.23l-13.46,1.43-3.9-36.78h.01Z"/>
            <path class="cls-2" d="M4345.07,1675.99c-2.52,0-4.96-.95-6.81-2.68-1.95-1.81-3.09-4.33-3.18-6.99l-18.93-561.21c-.19-5.51,4.12-10.13,9.62-10.33,0,0,4.9-.18,4.94-.18l14.42-.35s19.29-.45,19.33-.45c9.39-.12,18.92-.19,28.12-.26l10.24-.07,28.91-.25,21.57-.52,3.54-.08,3.51-.14c.13,0,.26,0,.39,0,2.52,0,4.96.95,6.81,2.68,1.95,1.81,3.09,4.33,3.18,6.99l18.93,561.21c.19,5.51-4.12,10.12-9.62,10.33,0,0-4.9.18-4.94.18l-14.42.35s-19.29.45-19.33.45c-9.39.12-18.92.19-28.13.26l-10.24.07-28.91.25-21.57.52-3.54.08-3.51.14c-.13,0-.26,0-.39,0Z"/>
            <path class="cls-2" d="M4460.74,1102.48l18.93,561.21-4.82.18-4.8.12-9.61.23-19.22.45c-12.78.17-25.54.23-38.31.33l-29,.25-14.43.35-7.21.17-3.61.08-3.59.14-18.93-561.21,4.82-.18,4.8-.12,9.61-.23,19.22-.45c12.78-.17,25.54-.23,38.31-.33l29-.25,14.43-.35,7.21-.17,3.61-.08,3.59-.14h0Z"/>
          </g>
          <g>
            <path class="cls-2" d="M4621.87,1579.64c-2.28,0-4.5-.78-6.28-2.22-2.06-1.67-3.38-4.09-3.66-6.72l-3.92-36.87c-.53-5.48,3.46-10.36,8.94-10.92.14-.01.27-.02.41-.03,36.92-3.95,72.79-8.84,106.62-14.55,36.13-6.11,72.04-13.39,106.75-21.64,72.85-17.3,143.47-39.63,209.9-66.37,1.22-.49,2.49-.73,3.73-.73,3.96,0,7.71,2.37,9.28,6.27l13.81,34.31c.99,2.46.96,5.21-.08,7.65-1.04,2.44-3.01,4.37-5.47,5.36-69.08,27.8-142.43,51-218,68.94-35.79,8.51-72.96,16.04-110.45,22.38-35.42,5.98-71.57,10.91-110.52,15.07-.35.04-.71.06-1.06.06Z"/>
            <path class="cls-2" d="M4617.96,1532.87c35.88-3.83,71.8-8.63,107.68-14.68,35.88-6.07,71.71-13.29,107.4-21.77,71.37-16.95,142.2-39,211.32-66.82l13.81,34.31c-70.94,28.55-143.55,51.15-216.58,68.49-36.52,8.68-73.16,16.05-109.81,22.25-36.65,6.19-73.31,11.08-109.91,14.99l-3.91-36.78h0Z"/>
            <path class="cls-2" d="M4584.14,1225.12c-2.28,0-4.5-.78-6.28-2.22-2.06-1.67-3.38-4.08-3.66-6.72l-3.87-36.41c-.44-3.06.56-6.23,2.82-8.49h0c1.75-1.76,4.05-2.76,6.43-2.92,29.83-3.2,58.5-7.1,85.2-11.61,28.55-4.84,56.66-10.54,83.54-16.93,55.59-13.2,109.16-30.11,159.21-50.25,1.22-.49,2.49-.73,3.73-.73,3.96,0,7.71,2.37,9.28,6.27l13.81,34.31c.99,2.46.96,5.21-.08,7.65-1.04,2.44-3.01,4.37-5.47,5.36-52.66,21.2-108.95,38.97-167.3,52.82-28.1,6.68-57.45,12.63-87.24,17.68-28.04,4.73-58,8.81-89.07,12.12-.35.04-.71.06-1.06.06Z"/>
            <path class="cls-2" d="M4580.22,1178.35c29.02-3.1,57.81-6.94,86.23-11.74,28.42-4.82,56.51-10.48,84.19-17.06,55.37-13.15,109.11-29.97,160.63-50.7l13.81,34.31c-53.34,21.47-108.85,38.83-165.88,52.37-28.52,6.78-57.41,12.6-86.6,17.55-29.2,4.93-58.72,8.87-88.46,12.04l-3.91-36.78h0Z"/>
            <path class="cls-2" d="M4782.61,1640.9c-1.98,0-3.93-.59-5.6-1.72-2.21-1.49-3.73-3.8-4.22-6.42l-104.63-551.7c-1.02-5.4,2.5-10.61,7.89-11.67l13.42-2.65,6.62-1.3,6.55-1.43,13.25-2.86c2.66-.61,5.31-1.24,7.96-1.87,1.7-.4,3.41-.81,5.12-1.21,6-1.35,12.01-2.89,17.81-4.38,2.73-.7,5.46-1.4,8.2-2.09,1.84-.45,3.62-.95,5.51-1.47l7.19-1.99,6.48-1.77,3.12-.86,3.08-.92c.93-.28,1.9-.42,2.85-.42h.01c4.66,0,8.66,3.21,9.73,7.67l155.9,538.97c1.53,5.29-1.5,10.81-6.78,12.37,0,0-4.98,1.47-5.02,1.48l-4.88,1.36-9.79,2.71-9.99,2.75c-3.19.88-6.49,1.79-9.81,2.62-2.75.7-5.56,1.42-8.37,2.14-10.12,2.6-20.59,5.28-30.96,7.66-1.93.45-3.92.92-5.9,1.39-4.57,1.08-9.14,2.16-13.71,3.2l-19.69,4.27s-9.92,2.13-9.97,2.15l-9.8,1.95-19.62,3.86c-.64.13-1.29.19-1.93.19Z"/>
            <path class="cls-2" d="M4783.2,1054.17l156.03,539.42-4.88,1.44-4.88,1.36-9.77,2.7-9.77,2.69c-3.26.9-6.51,1.8-9.78,2.61-13.04,3.32-26.09,6.77-39.15,9.76-6.53,1.53-13.06,3.1-19.59,4.58l-19.6,4.25-9.8,2.11-9.8,1.95-19.6,3.86-104.63-551.7,13.42-2.65,6.71-1.32,6.65-1.45,13.3-2.87c4.41-1.01,8.78-2.07,13.18-3.1,8.82-1.98,17.45-4.33,26.16-6.51,2.18-.53,4.33-1.14,6.48-1.74l6.45-1.78,6.46-1.77,3.23-.89,3.19-.95h-.01Z"/>
          </g>
          <g>
            <path class="cls-2" d="M5058.73,1473.68c-3.96,0-7.71-2.37-9.28-6.27l-13.62-33.81c-1.72-3.68-1.06-8.1,1.81-11.11l.02-.02c1.12-1.17,2.48-2.04,3.96-2.55,69.57-28.05,136.39-61.63,198.63-99.8,31.69-19.48,62.93-40.59,92.84-62.74,5.95-4.32,11.85-8.86,17.57-13.26,1.61-1.24,5.99-4.6,6.6-5.07,1.21-.92,2.42-1.85,3.6-2.8l5.59-4.45,11.03-8.8c2.28-1.85,4.62-3.79,6.96-5.73,1.27-1.05,9.24-7.65,9.24-7.65l2.65-2.2,15.15-13.03c1.14-.98,2.29-1.97,3.42-2.97l5.22-4.66c1.84-1.64,4.21-2.54,6.66-2.54.19,0,.39,0,.58.02,2.65.15,5.13,1.36,6.9,3.35l24.54,27.67c3.66,4.12,3.29,10.43-.83,14.1l-5.42,4.83c-1.38,1.21-2.72,2.37-4.06,3.52l-12.57,10.81s-2.85,2.44-2.89,2.47l-8.39,6.96c-1.43,1.18-2.83,2.34-4.23,3.5-2.34,1.94-4.69,3.89-7.05,5.81l-11.43,9.13-5.7,4.54c-1.29,1.04-2.65,2.08-4,3.12-.61.47-1.23.94-1.84,1.41l-4.65,3.57c-6.09,4.68-12.39,9.52-18.76,14.16-31.24,23.14-63.86,45.18-96.89,65.48-65.1,39.93-134.94,75.01-207.61,104.28-1.22.49-2.49.73-3.73.73Z"/>
            <path class="cls-2" d="M5044.89,1429.39c69.09-27.83,136.45-61.4,200.59-100.74,32.05-19.7,63.29-40.81,93.56-63.23,7.62-5.54,15.05-11.34,22.52-17.06,1.86-1.44,3.75-2.85,5.58-4.33l5.53-4.4,11.04-8.81c3.65-2.97,7.26-5.99,10.9-8.99l5.44-4.51,2.72-2.26,2.68-2.3,10.71-9.21c1.78-1.54,3.57-3.06,5.34-4.62l5.27-4.7,24.54,27.67-5.42,4.83c-1.82,1.6-3.66,3.17-5.49,4.75l-11.01,9.47-2.76,2.36-2.79,2.32-5.59,4.64c-3.74,3.08-7.45,6.19-11.21,9.25l-11.36,9.07-5.69,4.53c-1.89,1.52-3.83,2.97-5.74,4.45-7.69,5.89-15.34,11.85-23.17,17.55-31.15,23.07-63.28,44.79-96.24,65.04-65.96,40.46-135.19,74.96-206.11,103.52l-13.82-34.31-.02.02h0Z"/>
            <path class="cls-2" d="M4925.5,1142.98c-3.96,0-7.71-2.37-9.28-6.27l-13.58-33.72c-.36-.75-.63-1.56-.79-2.41-.46-2.37-.04-4.74,1.06-6.74,1.18-2.15,3.14-3.83,5.54-4.65,51.15-20.64,100.05-45.19,145.34-72.96,22.91-14.09,45.46-29.34,67.02-45.3.03-.02.07-.05.1-.08,3.92-2.82,7.87-5.87,11.69-8.81,1.45-1.12,2.91-2.24,4.37-3.35.45-.35.97-.75,1.5-1.14.78-.59,1.56-1.18,2.32-1.8l4.04-3.23,7.96-6.34c1.44-1.18,2.87-2.37,4.3-3.56,1.16-.97,2.32-1.93,3.49-2.89l5.81-4.81,10.76-9.26c.88-.75,1.76-1.5,2.63-2.27l3.76-3.37c1.84-1.65,4.21-2.55,6.67-2.55.19,0,.38,0,.58.02,2.66.15,5.14,1.36,6.91,3.35l24.54,27.67c3.65,4.12,3.29,10.42-.82,14.09l-3.96,3.54c-.92.81-1.78,1.55-2.65,2.29,0,0-11.68,10.05-11.73,10.09l-2.05,1.69-4.07,3.37c-1.08.89-2.14,1.77-3.2,2.65-1.68,1.4-3.36,2.79-5.06,4.17-.03.02-12.48,9.96-12.48,9.96-.99.81-1.96,1.55-2.9,2.26-.48.37-.96.73-1.44,1.1l-.08.06c-1.58,1.2-3.14,2.41-4.71,3.61-4,3.08-8.15,6.26-12.37,9.32-22.94,16.98-46.86,33.15-71.09,48.05-48.19,29.55-100.13,55.61-154.38,77.46-1.22.49-2.49.73-3.73.73Z"/>
            <path class="cls-2" d="M4911.66,1098.69c51.5-20.75,100.79-45.37,147.35-73.92,23.26-14.31,45.85-29.58,67.74-45.79,5.52-3.98,10.87-8.2,16.28-12.33,1.34-1.04,2.72-2.05,4.04-3.12l3.99-3.19,7.99-6.36c2.64-2.15,5.24-4.35,7.87-6.51l3.94-3.26,1.97-1.63,1.94-1.67,7.75-6.67c1.29-1.11,2.59-2.21,3.87-3.34l3.81-3.41,24.54,27.67-3.96,3.54c-1.33,1.17-2.68,2.31-4.02,3.47l-8.05,6.93-2.01,1.73-2.05,1.69-4.09,3.39c-2.73,2.25-5.44,4.53-8.19,6.77l-8.3,6.62-4.15,3.31c-1.37,1.12-2.8,2.16-4.2,3.25-5.63,4.29-11.19,8.67-16.93,12.82-22.76,16.85-46.24,32.73-70.42,47.6-48.39,29.67-99.55,55.22-152.88,76.7l-13.82-34.31v.02h-.01Z"/>
            <path class="cls-2" d="M5236.16,1483.45c-.97,0-1.94-.14-2.89-.43-2.54-.77-4.67-2.51-5.93-4.85l-265.23-494.95c-2.61-4.86-.78-10.92,4.07-13.53,14.15-7.62,28.85-16.05,43.7-25.08,13.64-8.4,27.74-17.64,41.84-27.43,1.74-1.21,3.73-1.79,5.69-1.79,3.16,0,6.26,1.49,8.21,4.27l321.54,460.36c1.52,2.18,2.11,4.87,1.65,7.48s-1.95,4.94-4.13,6.45c-23.52,16.36-47.3,31.95-70.69,46.33-24.3,14.83-48.89,28.94-73.09,41.96-1.47.79-3.1,1.19-4.74,1.19Z"/>
            <path class="cls-2" d="M5057.43,925.4l321.54,460.36c-23,16-46.41,31.38-70.22,46.02-23.86,14.56-48.06,28.48-72.59,41.67l-265.23-494.95c14.99-8.07,29.69-16.55,44.15-25.34,14.4-8.87,28.5-18.15,42.35-27.76Z"/>
          </g>
          <g>
            <path class="cls-2" d="M5451.76,1231.51c-.19,0-.39,0-.58-.02-2.65-.15-5.14-1.36-6.9-3.35l-24.32-27.4c-.9-.94-1.62-2.07-2.1-3.33-1.48-3.88-.42-8.26,2.67-11.02l10.53-9.4c2.38-2.17,4.81-4.42,7.24-6.67l8.18-7.57,2.51-2.33,2.5-2.39,10.17-9.75c.6-.58,1.25-1.2,1.9-1.82,1.01-.97,2.03-1.94,3.02-2.93l5.03-4.99,9.92-9.87,11.44-11.76c2.63-2.7,5.34-5.5,7.91-8.26l9.67-10.3,2.34-2.51,2.33-2.55,4.7-5.19c1.03-1.14,2.07-2.29,3.12-3.44,2.08-2.3,4.17-4.59,6.23-6.91l9.23-10.52,4.56-5.22,4.49-5.3,9.06-10.7c2.11-2.53,4.25-5.15,6.39-7.76l4.21-5.14c2.29-2.79,4.65-5.67,6.87-8.51l8.74-11.02,2.11-2.68,6.35-8.27,4.24-5.54c1.39-1.81,2.77-3.61,4.12-5.43l8.35-11.23c2.29-3.05,4.55-6.2,6.74-9.24l4.11-5.71c1.79-2.49,3.58-4.98,5.36-7.49l7.92-11.37,3.92-5.65,3.85-5.71,7.73-11.47,11.33-17.35,3.69-5.8,7.37-11.66,7.21-11.76,3.58-5.85,3.52-5.9,7.02-11.83,6.88-11.93c1.85-3.21,5.21-5.01,8.67-5.01,1.69,0,3.4.43,4.96,1.33l32.09,18.39c2.31,1.32,3.99,3.51,4.68,6.07.69,2.57.33,5.3-.99,7.6,0,0-7.12,12.34-7.14,12.38l-7.24,12.2s-3.68,6.17-3.7,6.21l-3.71,6.06s-7.48,12.19-7.5,12.23l-7.6,12.03s-3.86,6.09-3.89,6.13l-3.89,5.97s-7.86,12.02-7.88,12.06c0,0-12.01,17.84-12.04,17.87l-4.07,5.87-8.18,11.75c-1.9,2.69-3.79,5.31-5.68,7.94l-4.3,5.99c-2.26,3.14-4.6,6.4-7,9.59l-8.51,11.46c-1.44,1.95-2.93,3.9-4.43,5.85,0,0-10.99,14.31-11.02,14.35l-2.23,2.82-8.94,11.28c-2.53,3.22-5.17,6.44-7.72,9.55,0,0-3.54,4.32-4.58,5.59-2.01,2.46-4.02,4.91-6.05,7.35,0,0-14.11,16.65-14.14,16.69l-4.75,5.43-9.52,10.86c-2.21,2.49-4.41,4.92-6.61,7.35-1.06,1.16-2.11,2.33-3.16,3.49,0,0-7.38,8.12-7.41,8.15l-2.47,2.64-9.91,10.56c-2.84,3.06-5.79,6.1-8.65,9.04,0,0-11.67,11.99-11.71,12.03l-10.27,10.22-5.15,5.11c-1.21,1.21-2.46,2.41-3.72,3.62,0,0-14.78,14.17-14.82,14.2l-7.99,7.41c-1.29,1.19-2.55,2.36-3.81,3.53-2.3,2.13-4.6,4.26-6.92,6.37l-10.9,9.74c-1.84,1.64-4.21,2.54-6.66,2.54Z"/>
            <path class="cls-2" d="M5427.19,1193.85l10.53-9.4c3.48-3.16,6.92-6.38,10.37-9.57l5.18-4.79,2.58-2.4,2.55-2.44,10.18-9.76c1.69-1.64,3.41-3.24,5.07-4.9l5-4.96,9.99-9.94,9.82-10.09c3.27-3.37,6.56-6.72,9.75-10.16l9.63-10.26,2.4-2.57,2.37-2.6,4.72-5.21c3.14-3.48,6.31-6.93,9.42-10.44l9.26-10.56,4.62-5.29,4.54-5.35,9.07-10.71c2.99-3.59,5.94-7.22,8.9-10.83,2.96-3.62,5.94-7.21,8.82-10.89l8.7-10.97,2.17-2.75,2.13-2.77,4.26-5.55,4.25-5.55c1.42-1.85,2.84-3.7,4.22-5.57l8.33-11.21c2.8-3.73,5.49-7.51,8.21-11.29,2.71-3.78,5.44-7.54,8.13-11.34l7.96-11.43,3.97-5.72,3.89-5.77,7.77-11.54,7.6-11.64,3.8-5.82,3.72-5.86,7.42-11.73,7.25-11.82,3.62-5.91,3.55-5.95,7.07-11.91,6.91-11.98,32.09,18.39-7.08,12.27-7.24,12.2-3.63,6.09-3.71,6.06-7.43,12.11-7.6,12.03-3.81,6.01-3.89,5.97-7.8,11.93-7.97,11.84-3.99,5.92-4.07,5.87-8.17,11.73c-2.75,3.89-5.56,7.76-8.34,11.64-2.79,3.87-5.56,7.76-8.43,11.58l-8.55,11.51c-1.42,1.92-2.87,3.82-4.33,5.72l-4.37,5.7-4.37,5.69-2.19,2.85-2.23,2.82-8.93,11.27c-2.96,3.77-6.02,7.47-9.06,11.18-3.05,3.71-6.07,7.43-9.14,11.12l-9.32,11-4.66,5.5-4.75,5.43-9.51,10.85c-3.19,3.6-6.45,7.15-9.68,10.73l-4.86,5.35-2.43,2.67-2.47,2.64-9.9,10.55c-3.28,3.53-6.66,6.98-10.02,10.44l-10.1,10.38-10.27,10.22-5.14,5.1c-1.71,1.71-3.47,3.36-5.21,5.04l-10.47,10.04-2.62,2.51-2.66,2.47-5.32,4.93c-3.56,3.28-7.09,6.58-10.67,9.84l-10.83,9.67-24.55-27.66h-.02,0Z"/>
            <path class="cls-2" d="M5215.02,964.87c-.19,0-.39,0-.58-.02-2.65-.15-5.14-1.36-6.9-3.35l-24.55-27.66c-3.32-3.74-3.37-9.36-.11-13.15.48-.56,1.02-1.06,1.59-1.49l6.96-6.21c1.42-1.3,2.84-2.61,4.25-3.92,1.07-.99,2.13-1.98,3.2-2.96l5.54-5.12,9.18-8.81c.43-.41.89-.85,1.34-1.29.73-.69,1.46-1.38,2.17-2.1l3.67-3.66,7.23-7.18,8.98-9.25c1.77-1.81,3.43-3.53,5.07-5.29l8.79-9.37,5.12-5.66c.85-.94,1.71-1.89,2.57-2.83,1.43-1.57,2.86-3.14,4.27-4.73l10.1-11.53,3.28-3.88,6.64-7.83,8.22-10.02c1.62-1.97,3.16-3.83,4.64-5.75.02-.03,8.07-10.19,8.07-10.19l7.85-10.24c1.07-1.39,2.06-2.66,2.99-3.94l6.25-8.43c1.65-2.18,3.18-4.33,4.81-6.6l1.23-1.72c.81-1.13,1.64-2.28,2.47-3.44,1.19-1.65,2.38-3.3,3.55-4.96l8.87-12.75,2.88-4.28,5.82-8.63,5.69-8.72,2.84-4.34,8.36-13.21,5.47-8.93,2.73-4.44,8.03-13.5,5.25-9.11c1.85-3.21,5.22-5.01,8.68-5.01,1.69,0,3.4.43,4.96,1.33l32.09,18.39c2.3,1.32,3.99,3.5,4.68,6.07.69,2.56.34,5.3-.99,7.6,0,0-5.5,9.54-5.52,9.58l-5.57,9.37s-2.84,4.77-2.87,4.8c0,0-8.59,13.99-8.61,14.03,0,0-8.76,13.85-8.79,13.9l-2.97,4.54s-5.98,9.17-6.01,9.21l-6.06,8.98s-3.07,4.56-3.1,4.61l-9.27,13.32c-1.35,1.91-2.67,3.75-4,5.58-.79,1.1-3.6,5.01-3.6,5.01-1.7,2.37-3.45,4.81-5.28,7.23l-6.38,8.58c-.92,1.25-1.91,2.55-2.9,3.84l-3.73,4.85s-4.97,6.48-5,6.52l-8.33,10.5c-1.68,2.16-3.4,4.25-5.06,6.27-.61.74-3.44,4.19-4.24,5.17-1.48,1.81-2.96,3.62-4.45,5.41l-6.99,8.24s-3.53,4.17-3.57,4.22l-3.53,4.02-7.04,8.04c-1.57,1.77-3.13,3.49-4.69,5.21-.86.94-1.72,1.89-2.57,2.83,0,0-5.5,6.06-5.54,6.1l-1.83,1.94-7.29,7.77c-1.87,2.03-3.84,4.05-5.75,6.01,0,0-9.28,9.55-9.32,9.59l-11.33,11.26c-.83.83-1.72,1.68-2.61,2.53-.44.42-.88.83-1.31,1.26,0,0-9.72,9.32-9.76,9.36l-1.95,1.81-3.93,3.63c-1.1,1.02-2.19,2.02-3.27,3.03-1.52,1.41-3.05,2.83-4.58,4.23-.03.02-8.01,7.15-8.01,7.15-1.84,1.64-4.21,2.54-6.66,2.54Z"/>
            <path class="cls-2" d="M5190.5,927.23l7.63-6.81c2.52-2.3,5.01-4.64,7.52-6.95l3.76-3.47,1.88-1.74,1.85-1.78,7.39-7.09c1.23-1.19,2.48-2.34,3.69-3.56l3.63-3.62,7.28-7.23,7.15-7.37c2.38-2.46,4.79-4.89,7.12-7.41l7.04-7.5,1.76-1.87,1.73-1.91,3.46-3.82c2.3-2.55,4.63-5.07,6.91-7.64l6.8-7.76,3.4-3.88,3.34-3.95,6.68-7.88,6.57-8c2.18-2.67,4.4-5.31,6.52-8.05l6.44-8.13,1.61-2.03,1.58-2.06,3.16-4.12,3.16-4.12c1.06-1.37,2.12-2.74,3.14-4.14l6.2-8.36c2.09-2.77,4.1-5.61,6.13-8.43,2.02-2.83,4.07-5.63,6.08-8.48l5.97-8.58,2.98-4.29,2.92-4.34,5.86-8.68,5.73-8.79,2.87-4.39,2.81-4.44,5.63-8.89,5.51-8.99,2.76-4.49,2.7-4.54,5.4-9.08,5.28-9.17,32.09,18.39-5.45,9.46-5.57,9.37-2.79,4.68-2.85,4.64-5.69,9.28-5.81,9.18-2.9,4.59-2.97,4.54-5.93,9.09-6.06,8.98-3.02,4.49-3.09,4.44-6.18,8.88c-2.08,2.94-4.2,5.85-6.29,8.77-2.1,2.92-4.18,5.86-6.35,8.73l-6.43,8.65c-1.06,1.45-2.16,2.87-3.25,4.29l-3.28,4.27-3.27,4.27-1.64,2.14-1.67,2.11-6.68,8.42c-2.2,2.83-4.5,5.57-6.76,8.34-2.27,2.76-4.52,5.54-6.81,8.29l-6.93,8.17-3.46,4.09-3.53,4.02-7.05,8.05c-2.36,2.67-4.78,5.28-7.17,7.93l-3.59,3.96-1.8,1.98-1.83,1.94-7.31,7.79c-2.41,2.62-4.91,5.14-7.39,7.7l-7.43,7.65-7.56,7.51-3.78,3.76c-1.25,1.26-2.55,2.46-3.83,3.7l-7.68,7.37-1.92,1.84-1.95,1.81-3.91,3.61c-2.61,2.4-5.19,4.83-7.81,7.22l-7.93,7.08-24.55-27.66.03.02h0Z"/>
            <path class="cls-2" d="M5622.66,1179.76c-2.46,0-4.84-.91-6.68-2.56l-417.94-375.03c-4.11-3.68-4.45-10-.78-14.11,23.12-25.86,44.62-52.73,63.92-79.85,1.88-2.64,4.91-4.2,8.15-4.2,2.08,0,4.13.65,5.82,1.86l456.91,326.42c4.49,3.21,5.53,9.45,2.33,13.94-31.79,44.63-66.88,88.43-104.29,130.2-1.77,1.98-4.25,3.17-6.9,3.31-.18,0-.36.01-.54.01Z"/>
            <path class="cls-2" d="M5269.34,714.01l456.91,326.42c-31.85,44.71-66.51,87.93-103.59,129.33l-417.94-375.03c22.77-25.47,44.41-52.32,64.61-80.72h0Z"/>
          </g>
          <g>
            <path class="cls-2" d="M5739.25,874.54c-1.69,0-3.39-.43-4.96-1.32l-31.72-18.17c-3.89-2-6.07-6.35-5.24-10.74h0c.23-1.24.69-2.39,1.31-3.41l3.26-5.66,3.34-5.97,6.68-11.99,6.53-12.07,3.24-6.01,3.17-6.05,6.35-12.15,6.2-12.22c2.08-4.05,4.11-8.19,6.07-12.18.69-1.41,1.39-2.84,2.1-4.27,1.31-2.66,2.62-5.31,3.9-7.99l1.83-3.84c3.26-6.82,6.62-13.86,9.79-20.8,3.3-7.07,6.51-14.25,9.62-21.2l1.65-3.69c1.13-2.54,2.24-5.1,3.35-7.67.69-1.6,1.39-3.2,2.08-4.8l2.71-6.24,2.62-6.2,5.26-12.52,5.13-12.58c26.34-65.17,49.41-133.98,68.56-204.49,1.21-4.45,5.24-7.38,9.65-7.38.87,0,1.75.11,2.62.35l35.7,9.68c2.56.69,4.74,2.38,6.06,4.68,1.32,2.3,1.67,5.03.97,7.59-19.74,72.65-43.54,143.63-70.74,210.95,0,0-5.3,13-5.31,13.03l-5.4,12.87-2.73,6.46-4.47,10.31c-1.31,3.03-2.63,6.06-3.98,9.09l-1.53,3.41c-3.26,7.3-6.63,14.84-10.1,22.26-3.36,7.36-6.94,14.85-10.4,22.09l-1.6,3.36c-1.34,2.79-2.71,5.56-4.07,8.34-.72,1.46-1.44,2.91-2.15,4.37l-.8,1.62c-1.79,3.64-3.65,7.41-5.55,11.13,0,0-6.39,12.59-6.41,12.63l-6.53,12.49s-3.31,6.32-3.33,6.35l-3.35,6.21s-6.77,12.5-6.79,12.54l-6.88,12.35s-3.5,6.25-3.52,6.29l-3.53,6.14c-1.85,3.22-5.22,5.02-8.68,5.02Z"/>
            <path class="cls-2" d="M5707.15,846.17l3.45-5.99,3.37-6.03,6.72-12.06,6.56-12.13,3.27-6.07,3.2-6.1,6.38-12.21,6.23-12.27c2.09-4.08,4.11-8.19,6.13-12.3,2.01-4.11,4.06-8.21,6.04-12.34,3.94-8.26,7.91-16.5,11.7-24.81,3.87-8.28,7.57-16.62,11.3-24.95,1.86-4.17,3.64-8.36,5.47-12.54l2.72-6.27,2.66-6.29,5.29-12.59,5.15-12.63c27.26-67.45,50.08-136.17,68.95-205.65l35.7,9.68c-19.24,70.82-42.52,140.92-70.36,209.83l-5.26,12.91-5.4,12.87-2.72,6.43-2.78,6.41c-1.86,4.27-3.69,8.55-5.59,12.81-3.81,8.52-7.59,17.04-11.55,25.51-3.88,8.49-7.94,16.93-11.97,25.37-2.02,4.22-4.12,8.41-6.18,12.62-2.07,4.2-4.13,8.41-6.27,12.59l-6.37,12.55-6.53,12.49-3.27,6.24-3.35,6.21-6.72,12.42-6.88,12.35-3.45,6.17-3.53,6.14-32.1-18.38h-.01Z"/>
            <path class="cls-2" d="M5429.83,697.41c-1.68,0-3.39-.43-4.96-1.32l-32.1-18.37c-2.3-1.32-3.99-3.5-4.68-6.06-.7-2.56-.35-5.29.97-7.59,53.93-94.11,97.31-200.8,128.92-317.11,1.21-4.45,5.24-7.38,9.64-7.38.87,0,1.75.11,2.62.35l35.69,9.68c2.56.69,4.74,2.38,6.06,4.68s1.67,5.03.97,7.59c-16.01,58.97-35.26,116.4-57.19,170.7,0,0-4.23,10.38-4.24,10.41,0,0-6.48,15.4-6.5,15.44l-2.21,5.08c-.59,1.35-1.17,2.68-1.74,4.01-.9,2.08-1.79,4.15-2.71,6.21l-2.05,4.59c-2.3,5.14-4.68,10.45-7.12,15.67-2.43,5.34-4.97,10.67-7.43,15.82l-2.03,4.25c-1.02,2.14-2.06,4.25-3.11,6.37-.59,1.2-1.19,2.4-1.78,3.61l-.85,1.73c-1.34,2.72-2.72,5.52-4.14,8.29,0,0-4.99,9.84-5.01,9.88,0,0-7.67,14.66-7.69,14.7,0,0-7.86,14.55-7.88,14.58l-5.33,9.55s-2.71,4.86-2.73,4.91l-2.73,4.73c-1.85,3.21-5.21,5-8.67,5Z"/>
            <path class="cls-2" d="M5397.74,669.04c56.16-97.99,99.16-206.38,129.89-319.46l35.69,9.68c-15.72,57.89-34.62,114.64-56.81,169.57l-4.19,10.28-4.3,10.22-2.15,5.11-2.21,5.08c-1.48,3.38-2.92,6.78-4.42,10.15-3.02,6.72-6,13.47-9.12,20.13-3.05,6.71-6.25,13.32-9.41,19.96-1.58,3.32-3.23,6.59-4.84,9.89-1.62,3.29-3.23,6.59-4.9,9.85l-4.97,9.8-5.09,9.73-2.54,4.86-2.6,4.82-5.21,9.64-5.33,9.55-2.66,4.78-2.73,4.73-32.1-18.37Z"/>
            <path class="cls-2" d="M5883.47,777.12c-1.42,0-2.84-.3-4.15-.9l-510.83-233.18c-5.02-2.29-7.24-8.22-4.95-13.25,14.82-32.49,28.63-66.65,41.05-101.53,1.17-3.27,3.95-5.71,7.34-6.43.69-.15,1.39-.22,2.08-.22,1.27,0,2.52.24,3.69.71l528.68,188.19c2.5.89,4.54,2.74,5.68,5.13,1.14,2.4,1.28,5.15.39,7.64-18,50.54-38.14,100.33-59.88,147.99-1.1,2.41-3.12,4.29-5.6,5.22-1.13.42-2.32.63-3.5.63Z"/>
            <path class="cls-2" d="M5414.02,431.62l529.01,188.31c-17.64,49.54-37.43,98.68-59.56,147.19l-510.83-233.18c15.12-33.14,28.91-67.32,41.37-102.33h0Z"/>
          </g>
          <g>
            <path class="cls-2" d="M5907.56,462.06c-.88,0-1.75-.11-2.61-.35l-35.7-9.67c-5.33-1.44-8.48-6.93-7.04-12.27,18.54-68.5,33.53-139.04,44.56-209.65,5.57-35.73,10.15-71.63,13.59-106.72,1.84-18.88,3.28-36.65,4.41-54.34.62-9.65,1.11-18.75,1.5-27.84.19-4.53.38-9.41.52-14.39l.19-7.6.07-4.14.04-5.04c.04-5.49,4.51-9.92,10-9.92h36.99c2.67,0,5.23,1.07,7.1,2.96s2.92,4.46,2.9,7.13l-.05,5.6-.07,4.56-.2,8.06c-.14,4.71-.31,9.53-.56,15.21-.39,9.11-.9,18.61-1.56,29.04-1.16,18.13-2.65,36.53-4.57,56.25-3.54,36.18-8.26,73.17-14,109.97-11.36,72.68-26.79,145.27-45.86,215.76-.69,2.56-2.38,4.74-4.68,6.06-1.53.88-3.25,1.33-4.98,1.33Z"/>
            <path class="cls-2" d="M5871.86,442.39c18.81-69.51,33.7-139.74,44.79-210.72,5.54-35.5,10.12-71.19,13.66-107.29,1.76-18.07,3.26-36.22,4.44-54.68.59-9.23,1.1-18.54,1.51-28.05.2-4.77.39-9.56.53-14.54l.19-7.63.07-4.23.04-5.12h36.99l-.05,5.6-.07,4.5-.2,7.96c-.15,5.17-.34,10.12-.55,15.04-.42,9.81-.95,19.36-1.55,28.83-1.21,18.92-2.75,37.47-4.54,55.92-3.61,36.85-8.28,73.22-13.93,109.39-11.3,72.31-26.46,143.84-45.63,214.69l-35.7-9.67h0Z"/>
            <path class="cls-2" d="M5563.45,368.8c-.88,0-1.75-.11-2.61-.35l-35.38-9.58c-4.47-1.05-7.71-5.05-7.71-9.73h0c0-.98.14-1.94.41-2.85,15.13-55.96,27.36-113.53,36.35-171.13,4.54-29.07,8.24-58.15,11.02-86.41,1.44-14.77,2.59-29.03,3.44-42.4.43-6.75.8-13.61,1.1-20.4.12-2.94.26-6.39.34-9.52l.11-4.4.03-1.53v-.51c0-5.52,4.48-10,10-10h36.99c2.68,0,5.25,1.08,7.13,2.99s2.91,4.5,2.87,7.18l-.05,3.04-.12,4.83c-.09,3.37-.24,6.92-.38,10.34-.3,6.88-.69,14.13-1.16,21.6-.88,13.84-2.09,28.75-3.6,44.31-2.89,29.47-6.73,59.63-11.42,89.66-9.33,59.74-22.01,119.45-37.71,177.47-.69,2.56-2.37,4.74-4.67,6.06-1.53.88-3.25,1.33-4.98,1.33Z"/>
            <path class="cls-2" d="M5527.75,349.14c15.3-56.56,27.57-114.34,36.64-172.43,4.53-29.03,8.26-58.15,11.09-86.98,1.4-14.4,2.58-28.73,3.47-42.74.45-7,.82-13.92,1.11-20.6.14-3.32.27-6.62.35-9.69l.11-4.41.03-1.69v-.6h36.99l-.05,3.04-.12,4.74c-.09,3.27-.23,6.72-.37,10.19-.3,6.97-.69,14.14-1.15,21.37-.92,14.47-2.14,29.21-3.57,43.98-2.9,29.58-6.71,59.38-11.35,89.08-9.28,59.43-21.82,118.5-37.48,176.4l-35.7-9.67h0Z"/>
            <path class="cls-2" d="M6022.8,336.87c-.64,0-1.27-.06-1.91-.18l-551.23-107.08c-5.42-1.05-8.96-6.3-7.91-11.72,7.22-37.19,13.06-74.65,17.35-111.34.59-5.06,4.89-8.84,9.92-8.84.2,0,.39,0,.59.02.35.02.7.06,1.04.12l557.27,65.21c2.63.31,5.04,1.65,6.68,3.73,1.64,2.08,2.39,4.73,2.09,7.37-5.99,51.08-14.1,103.11-24.08,154.63-.5,2.6-2.02,4.9-4.22,6.39-1.66,1.12-3.62,1.71-5.59,1.71Z"/>
            <path class="cls-2" d="M5489.04,107.72l557.73,65.26c-6.09,51.91-14.11,103.03-23.97,153.89l-551.23-107.08c7.23-37.24,13.11-74.84,17.47-112.08h0Z"/>
          </g>
        </g>
      </g>
    </g>
  </g>
</svg>