<?xml version="1.0" encoding="UTF-8"?>
<svg id="Layer_2" xmlns="http://www.w3.org/2000/svg" viewBox="0 0 6969.18 4385.15">
  <defs>
    <style>
      .cls-1 {
        opacity: .2;
      }

      .cls-2 {
        fill: #b7bde1;
      }
    </style>
  </defs>
  <g id="Layer_2-2" data-name="Layer_2" class="cls-1">
    <g id="Layer_2-2">
      <g id="Layer_1-2">
        <g>
          <g>
            <path class="cls-2" d="M432.14,4384.95c-.5-.1-.98-.24-1.45-.41l-34.78-7.13c-5.41-1.11-8.89-6.39-7.79-11.8.01-.05.7-3.19.7-3.19l1.09-4.71c.73-3.15,1.55-6.44,2.36-9.76l.07-.3c1.66-6.66,3.5-13.69,5.46-20.93,3.63-13.39,7.8-27.76,12.39-42.69,8.73-28.29,18.52-57.08,29.13-85.56,21.09-56.67,45.46-112.63,72.45-166.34,1.19-2.37,3.27-4.17,5.79-5,1.67-.55,3.45-.65,5.14-.3.86.18,1.7.46,2.49.86l33.04,16.62c4.93,2.48,6.92,8.49,4.44,13.42-26.06,51.86-49.59,105.9-69.96,160.61-10.21,27.41-19.66,55.15-28.08,82.46-4.35,14.15-8.34,27.9-11.85,40.85-1.78,6.56-3.52,13.2-5.16,19.77-.71,2.85-1.53,6.19-2.24,9.26l-.99,4.29-.37,1.68-.1.5c-1.1,5.41-6.39,8.9-11.8,7.8Z"/>
            <path class="cls-2" d="M397.94,4367.58l.66-3,1.07-4.62c.74-3.19,1.57-6.54,2.4-9.91,1.69-6.77,3.5-13.72,5.4-20.71,3.8-13.99,7.94-28.19,12.3-42.38,8.76-28.4,18.45-56.84,28.94-85.01,20.98-56.37,45.08-111.74,72.01-165.34l33.04,16.62c-26.3,52.36-49.89,106.51-70.39,161.62-10.26,27.53-19.73,55.32-28.27,83-4.25,13.83-8.27,27.63-11.95,41.18-1.84,6.77-3.59,13.47-5.21,19.96-.8,3.22-1.59,6.43-2.28,9.42l-.99,4.3-.41,1.85-.12.58.02-.11-36.24-7.43v-.03s0,0,0,0Z"/>
            <path class="cls-2" d="M46.97,4305.87c-.1-.02-.2-.04-.3-.06-1.86-.38-3.49-1.25-4.78-2.45-2.49-2.3-3.75-5.8-3.02-9.36.04-.18.08-.36.12-.53l1.09-5.13.94-4.27,1.81-7.85c1.07-4.56,2.21-9.24,3.59-14.8,2.21-8.88,4.61-18.08,7.34-28.14,4.76-17.53,9.91-35.26,15.73-54.2,10.71-34.73,22.72-70.04,35.72-104.94,25.67-68.95,55.31-136.99,88.09-202.23,1.19-2.37,3.27-4.17,5.79-5,1.67-.55,3.45-.65,5.14-.3.86.18,1.7.46,2.49.86l33.04,16.62c4.93,2.48,6.92,8.49,4.44,13.42-31.86,63.4-60.66,129.52-85.6,196.5-12.61,33.89-24.27,68.16-34.66,101.85-5.57,18.12-10.55,35.25-15.19,52.36-2.53,9.33-4.84,18.16-7.04,26.98-1.09,4.38-2.25,9.11-3.39,13.99l-1.71,7.41-.87,3.9-1.08,5.03c-1.15,5.36-6.4,8.8-11.78,7.7,0,0-35.93-7.37-35.93-7.37Z"/>
            <path class="cls-2" d="M48.67,4296.02l1.19-5.59.93-4.2,1.79-7.76c1.18-5.04,2.36-9.85,3.55-14.63,2.37-9.53,4.8-18.78,7.29-27.94,4.97-18.3,10.19-36.16,15.63-53.88,10.91-35.38,22.76-70.08,35.53-104.39,25.54-68.59,54.7-135.64,87.65-201.22l33.04,16.62c-32.33,64.34-60.97,130.17-86.04,197.5-12.53,33.67-24.16,67.73-34.85,102.39-5.34,17.35-10.44,34.84-15.29,52.69-2.42,8.93-4.79,17.95-7.09,27.18-1.15,4.63-2.29,9.29-3.43,14.14l-1.71,7.44-.88,3.97-1.09,5.1-36.24-7.43h0s0,.01,0,.01Z"/>
            <path class="cls-2" d="M541.42,4307.32c-.38-.08-.76-.18-1.14-.3L6.87,4131.5c-2.52-.83-4.61-2.63-5.8-4.99-1.2-2.37-1.4-5.11-.57-7.63,16.09-48.85,34.43-98.2,54.53-146.68,1.83-4.42,6.55-6.93,11.24-5.97.63.13,1.25.32,1.84.56l518.67,215.18c5.1,2.12,7.52,7.97,5.41,13.07-14.51,34.99-27.73,70.53-39.28,105.62-1.6,4.87-6.59,7.68-11.49,6.68Z"/>
            <path class="cls-2" d="M64.28,3976.01l518.67,215.18c-14.53,35.04-27.82,70.7-39.54,106.32L10,4122c16.35-49.64,34.43-98.12,54.27-145.98h0s0,0,0,0Z"/>
          </g>
          <g>
            <path class="cls-2" d="M551.98,4062.63c-.85-.17-1.69-.46-2.5-.87l-33.04-16.63c-4.48-2.25-6.6-7.47-4.95-12.21.2-.58.45-1.12.74-1.64,27.43-54.42,57.7-106.7,89.97-155.39,0,0,6.22-9.32,6.24-9.35,0,0,9.43-13.8,9.46-13.83l3.18-4.54c.86-1.22,1.69-2.42,2.53-3.62,1.29-1.84,2.57-3.68,3.88-5.51l2.99-4.17c3.26-4.55,6.64-9.25,10.05-13.85,3.47-4.77,7.05-9.51,10.51-14.09l2.77-3.68c1.43-1.89,2.88-3.76,4.33-5.63.82-1.06,1.64-2.11,2.45-3.17l1.14-1.47c1.86-2.41,3.79-4.9,5.75-7.35,0,0,6.86-8.64,6.88-8.67,0,0,10.45-12.83,10.48-12.87,0,0,10.61-12.68,10.64-12.72l7.13-8.29s3.62-4.22,3.66-4.26l3.62-4.09c2.46-2.77,6.11-3.86,9.5-3.17,1.65.34,3.24,1.1,4.6,2.29l27.77,24.43c1.99,1.75,3.21,4.22,3.38,6.87s-.72,5.25-2.47,7.25c-71.67,81.42-135.51,177.27-189.74,284.91-2.08,4.12-6.61,6.18-10.93,5.3Z"/>
            <path class="cls-2" d="M520.94,4036.2c26.98-53.58,56.85-105.4,89.58-154.78l6.16-9.23,6.26-9.15,3.13-4.58,3.18-4.54c2.13-3.02,4.22-6.06,6.36-9.06,4.3-5.98,8.57-12,12.96-17.91,4.33-5.95,8.79-11.8,13.21-17.67,2.21-2.94,4.48-5.81,6.72-8.72,2.25-2.9,4.48-5.81,6.77-8.67l6.83-8.61,6.93-8.52,3.46-4.25,3.51-4.2,7.03-8.4,7.13-8.29,3.56-4.15,3.62-4.09,27.77,24.43c-74.63,84.78-138.44,182.37-191.17,287.02l-33.04-16.63h0s0,0,0,0Z"/>
            <path class="cls-2" d="M233.51,3902.34c-.85-.17-1.69-.46-2.5-.87l-33.04-16.63c-4.48-2.25-6.6-7.47-4.95-12.21.19-.56.43-1.09.71-1.59,33.82-67.11,71.28-131.76,111.33-192.18,0,0,7.79-11.68,7.81-11.71l7.87-11.53,3.97-5.78,6.53-9.33c1.86-2.67,3.73-5.33,5.63-7.99l2.07-2.89c4.69-6.54,9.53-13.31,14.45-19.93,4.8-6.58,9.83-13.24,14.7-19.68l2.15-2.85c1.88-2.48,3.78-4.94,5.69-7.39.98-1.27,1.97-2.54,2.95-3.81l1.28-1.65c2.43-3.14,4.94-6.38,7.5-9.57,0,0,8.78-11.06,8.8-11.09l8.9-10.93s4.51-5.53,4.53-5.56l4.52-5.42s9.13-10.9,9.16-10.93l9.21-10.72s4.68-5.43,4.7-5.46l4.69-5.31c2.46-2.78,6.11-3.87,9.51-3.18,1.65.34,3.24,1.1,4.6,2.29l27.77,24.43c1.99,1.75,3.21,4.23,3.38,6.88s-.73,5.26-2.49,7.25l-4.54,5.13-4.46,5.18-8.95,10.42-8.81,10.52-4.37,5.24-4.32,5.3-8.65,10.63-8.52,10.73c-2.85,3.56-5.66,7.2-8.39,10.72-.96,1.25-1.94,2.51-2.91,3.77-1.81,2.34-3.63,4.68-5.41,7.04l-2.58,3.42c-4.55,6.02-9.25,12.24-13.73,18.39-4.63,6.24-9.2,12.61-13.62,18.78l-2.41,3.35c-1.62,2.26-3.21,4.54-4.81,6.83-1,1.43-2,2.87-3.01,4.3l-3.9,5.57-3.81,5.56-7.66,11.21-7.54,11.3c-38.84,58.58-75.21,121.39-108.08,186.65-2.08,4.12-6.61,6.18-10.93,5.3Z"/>
            <path class="cls-2" d="M202.48,3875.91c33.02-65.54,69.85-129.57,110.91-191.51l7.74-11.6,7.87-11.53,3.95-5.76,4.01-5.72c2.68-3.81,5.33-7.64,8.04-11.43,5.44-7.59,10.85-15.18,16.42-22.68,5.5-7.54,11.17-15,16.8-22.46,2.82-3.73,5.72-7.42,8.58-11.13,2.87-3.7,5.73-7.41,8.66-11.08l8.75-11.02,8.9-10.93,4.45-5.46,4.52-5.41,9.07-10.82,9.21-10.72,4.61-5.36,4.69-5.31,27.77,24.43-4.58,5.18-4.51,5.23-9,10.47-8.85,10.57-4.42,5.29-4.36,5.34-8.69,10.69-8.56,10.78c-2.86,3.58-5.67,7.2-8.47,10.82-2.79,3.62-5.62,7.23-8.39,10.88-5.51,7.3-11.05,14.58-16.43,21.97-5.45,7.34-10.74,14.77-16.06,22.19-2.66,3.71-5.24,7.46-7.87,11.19l-3.92,5.6-3.86,5.63-7.7,11.28-7.57,11.34c-40.2,60.63-76.31,123.4-108.69,187.7l-33.04-16.63h0s0,0,0,0Z"/>
            <path class="cls-2" d="M679.71,4004.97c-1.11-.23-2.18-.64-3.17-1.24l-480.65-290.33c-2.27-1.37-3.9-3.59-4.54-6.16s-.22-5.3,1.15-7.57c27.68-45.82,57.31-90.47,88.05-132.7.38-.57.82-1.1,1.32-1.59,2.44-2.38,5.83-3.29,8.99-2.64,1.37.28,2.69.85,3.88,1.71l453.86,330.65c4.46,3.25,5.45,9.51,2.2,13.97-21.01,28.85-41.38,59.56-60.53,91.27-1.37,2.27-3.59,3.9-6.16,4.54-1.45.36-2.96.38-4.4.09Z"/>
            <path class="cls-2" d="M288.85,3572.53l453.86,330.65c-21.44,29.45-41.79,60.18-61,91.99l-480.65-290.33c27.19-45.01,56.41-89.2,87.8-132.3h0Z"/>
          </g>
          <g>
            <path class="cls-2" d="M743.45,3775.31c-1.65-.34-3.24-1.1-4.6-2.29l-27.76-24.44c-.19-.16-.37-.34-.54-.52-2.89-2.96-3.69-7.42-1.97-11.19.41-.89.95-1.72,1.6-2.46,0,0,7.29-8.25,7.32-8.28l7.33-8.07s3.74-4.1,3.77-4.13c0,0,11.21-11.99,11.24-12.03,0,0,11.36-11.82,11.39-11.86l3.82-3.85s7.69-7.78,7.73-7.82l7.73-7.59s3.92-3.86,3.96-3.89l11.75-11.2c1.71-1.6,3.37-3.14,5.04-4.67.99-.92,4.55-4.21,4.55-4.21,2.13-1.97,4.33-4.01,6.58-6l7.97-7.13c1.16-1.05,2.4-2.13,3.63-3.2l4.59-3.98s6.16-5.36,6.2-5.39l10.3-8.66c2-1.72,4.11-3.42,6.14-5.07.75-.61,4.27-3.47,5.26-4.28,1.8-1.46,3.59-2.93,5.4-4.38l8.5-6.67s4.29-3.38,4.34-3.42l4.26-3.23,8.51-6.47c1.87-1.41,3.73-2.77,5.59-4.12,1.05-.76,2.09-1.53,3.14-2.3l4.33-3.18s2.27-1.66,2.32-1.69l2.18-1.54,8.66-6.13c2.29-1.66,4.61-3.23,6.85-4.75,0,0,11.03-7.52,11.08-7.55l13.36-8.77c.97-.65,2.02-1.31,3.07-1.96.51-.32,12.92-8.16,12.97-8.19l2.27-1.38,4.58-2.77c1.31-.79,2.59-1.57,3.88-2.35,1.75-1.07,3.51-2.14,5.27-3.19.03-.02,9.28-5.4,9.28-5.4,2.13-1.24,4.63-1.65,7.03-1.16.19.04.38.08.57.13,2.57.68,4.76,2.36,6.09,4.66l18.52,32.01c2.76,4.77,1.14,10.88-3.62,13.65l-8.79,5.12c-1.68,1.01-3.36,2.03-5.03,3.04-1.21.74-2.43,1.48-3.64,2.21l-6.46,3.91-10.76,6.8c-.49.31-1.02.65-1.55.98-.86.54-1.72,1.07-2.56,1.64l-4.33,2.85-8.52,5.59-10.64,7.26c-2.1,1.43-4.07,2.77-6.03,4.18l-8.46,5.99-2.03,1.43-6.15,4.52c-1.02.75-2.06,1.51-3.1,2.27-1.71,1.25-3.42,2.5-5.11,3.77l-12.2,9.27-3.99,3.15-8.07,6.34s-9.38,7.62-10.09,8.19c-1.97,1.6-3.84,3.11-5.66,4.68-.03.02-9.95,8.37-9.95,8.37l-9.74,8.46c-1.33,1.14-2.55,2.19-3.72,3.26l-7.81,7.01c-2.03,1.79-3.95,3.57-5.98,5.45l-1.61,1.49c-1.01.94-2.06,1.91-3.11,2.87-1.5,1.38-2.99,2.76-4.48,4.16l-11.24,10.72-3.68,3.62-7.43,7.29-7.32,7.41-3.65,3.69-10.83,11.27-7.15,7.65-3.56,3.8-10.56,11.62-6.96,7.88c-2.46,2.78-6.11,3.87-9.5,3.17Z"/>
            <path class="cls-2" d="M717.67,3741.05l7.23-8.18,7.33-8.07,3.67-4.03,3.72-3.98,7.43-7.95,7.53-7.83,3.76-3.92,3.82-3.85,7.63-7.72,7.73-7.59,3.86-3.8,3.92-3.73,7.83-7.46c2.63-2.46,5.29-4.89,7.92-7.33,2.64-2.44,5.27-4.91,7.97-7.28l8.03-7.19c1.33-1.21,2.69-2.38,4.04-3.55l4.07-3.53,4.06-3.53,2.03-1.77,2.06-1.73,8.23-6.91c2.72-2.33,5.52-4.56,8.29-6.82,2.78-2.25,5.54-4.52,8.33-6.76l8.42-6.62,4.21-3.32,4.26-3.23,8.52-6.48c2.85-2.14,5.74-4.22,8.61-6.34l4.31-3.16,2.16-1.58,2.18-1.53,8.72-6.17c2.89-2.09,5.84-4.05,8.78-6.07l8.81-6.01,8.91-5.85,4.46-2.93c1.48-.98,2.99-1.9,4.49-2.86l9-5.68,2.25-1.42,2.27-1.38,4.55-2.75c3.04-1.83,6.05-3.69,9.1-5.51l9.19-5.35,18.52,32.01-8.84,5.15c-2.93,1.75-5.84,3.54-8.76,5.31l-4.38,2.65-2.19,1.33-2.17,1.37-8.66,5.47c-1.44.92-2.9,1.8-4.33,2.75l-4.28,2.82-8.58,5.63-8.48,5.79c-2.82,1.93-5.67,3.83-8.46,5.84l-8.4,5.94-2.1,1.48-2.08,1.53-4.15,3.05c-2.76,2.04-5.55,4.04-8.3,6.1l-8.21,6.24-4.11,3.12-4.06,3.2-8.12,6.38-8.04,6.52c-2.67,2.18-5.37,4.32-8,6.58l-7.94,6.68-1.98,1.67-1.96,1.7-3.92,3.4-3.92,3.4c-1.31,1.13-2.63,2.26-3.9,3.43l-7.75,6.95c-2.6,2.3-5.14,4.68-7.69,7.03-2.55,2.37-5.11,4.7-7.65,7.09l-7.57,7.21-3.78,3.61-3.73,3.67-7.48,7.33-7.37,7.47-3.69,3.73-3.64,3.79-7.29,7.58-7.2,7.71-3.6,3.85-3.55,3.91-7.11,7.82-7.01,7.93-27.76-24.44-.03-.03h0Z"/>
            <path class="cls-2" d="M475.75,3539.73c-1.65-.34-3.24-1.1-4.6-2.29l-27.76-24.44c-3.4-2.99-4.37-7.9-2.35-11.96.51-1.03,1.18-1.94,1.97-2.71,0,0,8.97-10.13,9-10.16l9.53-10.5s4.84-5.31,4.87-5.34l4.85-5.2s9.77-10.45,9.8-10.48l9.85-10.27s5-5.2,5.03-5.23l5.01-5.07s10.1-10.2,10.13-10.23c0,0,15.34-15.07,15.37-15.1l5.16-4.94,10.37-9.87c2.4-2.25,4.77-4.44,7.14-6.63l5.43-5.02c2.85-2.63,5.79-5.35,8.78-7.99l10.64-9.53c1.79-1.62,3.65-3.23,5.45-4.79l5.47-4.76s8.22-7.12,8.25-7.15l13.76-11.58c3.15-2.68,6.41-5.32,9.56-7.88,0,0,4.19-3.41,5.44-4.42,2.49-2.02,4.97-4.05,7.48-6.06,0,0,17.15-13.49,17.19-13.52l5.74-4.37,11.5-8.73c2.64-1.98,5.26-3.9,7.88-5.83,1.29-.94,2.58-1.89,3.86-2.84l5.84-4.29s3.01-2.2,3.04-2.22l2.95-2.09,11.82-8.36c3.41-2.44,6.93-4.84,10.34-7.16,0,0,13.78-9.38,13.82-9.41l12.11-7.96,6.07-3.98c1.42-.94,2.9-1.87,4.37-2.8,0,0,17.31-10.93,17.36-10.95l9.31-5.66c1.49-.9,2.95-1.78,4.4-2.67,2.69-1.63,5.38-3.27,8.09-4.88l12.63-7.36c2.13-1.24,4.63-1.65,7.03-1.16.19.04.38.08.57.13,2.57.68,4.76,2.36,6.09,4.66l18.52,32.01c2.76,4.77,1.14,10.88-3.62,13.65l-12.2,7.1c-2.75,1.63-5.56,3.34-8.36,5.05l-9.6,5.82-2.92,1.78-14.84,9.36c-.7.45-1.46.93-2.22,1.4-1.19.75-2.38,1.5-3.56,2.27l-5.92,3.88-11.7,7.69-13.58,9.25c-3.11,2.12-6.32,4.31-9.38,6.5l-11.54,8.16-2.79,1.99-2.8,2.04-5.64,4.14c-1.24.92-2.5,1.84-3.77,2.77-2.49,1.83-4.99,3.66-7.46,5.51l-11.14,8.46-5.51,4.2-5.46,4.29-11.02,8.67c-2.6,2.08-5.25,4.24-7.89,6.39l-5.08,4.13c-2.8,2.27-5.69,4.62-8.44,6.96l-10.77,9.05-2.61,2.2-7.87,6.83-5.27,4.58c-1.74,1.51-3.45,2.99-5.12,4.5l-10.43,9.34c-2.84,2.52-5.66,5.13-8.39,7.65l-5.24,4.84c-2.25,2.08-4.5,4.16-6.74,6.26l-10.03,9.55-4.97,4.75-14.79,14.53-14.57,14.73-4.77,4.95-9.56,9.95-14.11,15.1-4.63,5.08-9.25,10.19-9.13,10.31c-2.46,2.77-6.11,3.86-9.5,3.17Z"/>
            <path class="cls-2" d="M450.03,3505.5l9.39-10.61,9.53-10.51,4.77-5.24,4.85-5.2,9.7-10.38,9.85-10.27,4.94-5.13,5.01-5.07,10.03-10.13,10.18-10.01,5.09-5,5.16-4.94,10.35-9.86c3.47-3.26,7-6.49,10.5-9.74,3.51-3.23,7-6.49,10.58-9.66l10.68-9.57c1.77-1.6,3.58-3.17,5.39-4.74l5.42-4.71,5.42-4.7,2.72-2.35,2.75-2.32,11-9.26c3.65-3.1,7.39-6.12,11.11-9.14,3.73-3.02,7.43-6.07,11.18-9.07l11.33-8.91,5.67-4.46,5.74-4.37,11.49-8.73c3.85-2.89,7.75-5.72,11.63-8.58l5.82-4.27,2.91-2.13,2.95-2.09,11.81-8.36c3.92-2.8,7.92-5.51,11.91-8.22l11.97-8.15,12.11-7.96,6.06-3.97c2.02-1.33,4.07-2.6,6.11-3.9l12.27-7.74,3.07-1.93,3.1-1.89,6.2-3.77c4.14-2.5,8.26-5.03,12.42-7.51l12.55-7.31,18.52,32.01-12.2,7.1c-4.04,2.4-8.06,4.87-12.07,7.3l-6.03,3.66-3.01,1.84-2.99,1.88-11.93,7.53c-1.98,1.27-3.99,2.49-5.95,3.79l-5.89,3.86-11.78,7.74-11.64,7.92c-3.88,2.65-7.77,5.27-11.59,8l-11.49,8.13-2.87,2.04-2.84,2.07-5.67,4.16c-3.77,2.78-7.57,5.53-11.32,8.34l-11.19,8.49-5.58,4.26-5.52,4.33-11.03,8.68c-3.65,2.92-7.26,5.89-10.89,8.83-3.62,2.95-7.26,5.88-10.82,8.91l-10.72,9.01-2.68,2.26-2.64,2.29-5.28,4.59-5.27,4.59c-1.76,1.53-3.52,3.06-5.25,4.61l-10.4,9.32c-3.49,3.09-6.88,6.26-10.3,9.42-3.41,3.16-6.84,6.3-10.23,9.48l-10.09,9.61-5.03,4.81-4.97,4.88-9.92,9.75-9.77,9.88-4.89,4.94-4.82,5-9.62,10.01-9.47,10.13-4.73,5.07-4.67,5.12-9.31,10.26-9.17,10.36-27.76-24.44h.03s0,0,0,0Z"/>
            <path class="cls-2" d="M877.95,3757.22c-2.03-.41-3.89-1.45-5.32-2.99l-382.38-411.22c-3.76-4.04-3.53-10.36.5-14.13,40.08-37.37,83.21-73.27,128.22-106.7,2.13-1.58,4.8-2.25,7.43-1.87.18.03.36.06.53.09h0s.01,0,.01,0c2.59.53,4.81,2.05,6.25,4.15l334.24,450.75c3.29,4.43,2.36,10.68-2.06,13.98-27.82,20.71-54.27,42.73-78.6,65.45-1.94,1.81-4.52,2.78-7.18,2.68-.56-.02-1.11-.09-1.65-.2Z"/>
            <path class="cls-2" d="M624.93,3230.2l334.47,451.05c-27.4,20.4-53.98,42.38-79.45,66.16l-382.38-411.22c40.15-37.44,82.76-72.85,127.37-105.99h0Z"/>
          </g>
          <g>
            <path class="cls-2" d="M998.2,3563.89c-.19-.04-.37-.08-.56-.13-2.57-.68-4.77-2.36-6.1-4.66l-18.51-32.02c-1.22-2.12-1.63-4.61-1.14-7.01.57-2.79,2.3-5.22,4.76-6.66l4.59-2.68c1.06-.6,2.05-1.16,3.04-1.71l11.03-6.16s2.46-1.36,2.51-1.39l2.35-1.25,4.66-2.49c1.23-.65,2.44-1.3,3.64-1.95,1.93-1.03,3.86-2.07,5.81-3.09.03-.02,14.23-7.26,14.23-7.26,1.08-.57,2.18-1.1,3.28-1.62.55-.26,1.1-.53,1.64-.8.03-.01.06-.03.09-.04,1.79-.86,3.57-1.73,5.35-2.6,4.54-2.22,9.23-4.51,13.98-6.65,25.87-12.05,52.53-23.1,79.26-32.86,53.13-19.31,109.23-34.45,166.76-45.01,1.3-.24,2.58-.21,3.8.03,3.88.79,7.08,3.86,7.84,8l6.68,36.38c1,5.43-2.6,10.64-8.03,11.64-54.44,10-107.45,24.3-157.55,42.51-25.25,9.22-50.4,19.65-74.72,30.98-.04.02-.08.04-.12.05-4.39,1.98-8.87,4.17-13.19,6.28-1.66.81-3.32,1.62-4.98,2.43-.51.25-1.1.54-1.69.82-.88.42-1.76.85-2.63,1.3l-4.61,2.36-9.07,4.62c-1.64.86-3.28,1.74-4.92,2.62-1.34.72-2.67,1.43-4.01,2.14l-6.65,3.55-12.39,6.92c-1.01.56-2.03,1.12-3.04,1.7l-4.36,2.55c-2.13,1.24-4.64,1.65-7.04,1.16Z"/>
            <path class="cls-2" d="M981.69,3522.06l4.59-2.68c1.54-.88,3.09-1.73,4.63-2.6l9.27-5.18,2.33-1.29,2.35-1.25,4.69-2.5c3.12-1.66,6.24-3.35,9.38-4.99l9.46-4.83,4.73-2.41c1.57-.82,3.18-1.56,4.77-2.34,6.37-3.08,12.7-6.26,19.15-9.17,25.67-11.96,51.85-22.82,78.52-32.55,53.35-19.39,108.58-34.19,165.13-44.57l6.68,36.38c-54.61,10.03-107.83,24.29-159.16,42.95-25.65,9.37-50.84,19.81-75.53,31.31-6.2,2.8-12.29,5.86-18.42,8.82-1.52.75-3.08,1.46-4.58,2.25l-4.55,2.33-9.1,4.63c-3.02,1.58-6,3.21-9.01,4.8l-4.51,2.41-2.26,1.2-2.23,1.25-8.93,4.98c-1.49.83-2.98,1.65-4.46,2.5l-4.42,2.58-18.51-32.02v-.02s0,0,0,0Z"/>
            <path class="cls-2" d="M819.73,3255.23c-.19-.04-.38-.08-.57-.13-2.57-.68-4.76-2.36-6.09-4.66l-18.51-32.02c-1.43-2.48-1.73-5.46-.83-8.18.81-2.42,2.5-4.42,4.72-5.62l6.05-3.52c1.6-.92,3.16-1.78,4.71-2.65l14.46-8.07s3.28-1.82,3.32-1.84l9.61-5.15c1.63-.86,3.22-1.71,4.8-2.56,2.7-1.44,5.4-2.89,8.12-4.31l13.03-6.66,6.48-3.3c1.48-.76,3.02-1.51,4.55-2.25.7-.34,7.41-3.61,7.41-3.61,6.89-3.36,14.02-6.84,21.17-10.1,35.24-16.42,71.61-31.5,108.03-44.77,71.77-26.1,147.23-46.5,224.27-60.64,1.3-.24,2.58-.21,3.8.03,3.88.79,7.08,3.86,7.84,8l6.68,36.38c1,5.43-2.6,10.64-8.03,11.64-73.95,13.57-146.31,33.13-215.07,58.14-34.95,12.75-69.78,27.18-103.51,42.9-6.69,3.05-13.38,6.31-19.86,9.47-1.82.89-6.8,3.32-7.49,3.65-1.37.66-2.74,1.33-4.09,2.03l-6.37,3.24-12.57,6.42c-2.6,1.36-5.27,2.78-7.94,4.21-1.47.78-2.93,1.57-4.4,2.35l-9.25,4.94-3.02,1.68-14.31,7.98c-1.36.76-2.72,1.51-4.07,2.29l-6.05,3.52c-2.13,1.24-4.63,1.64-7.03,1.16Z"/>
            <path class="cls-2" d="M803.26,3213.39l6.28-3.65c2.1-1.2,4.22-2.37,6.33-3.56l12.68-7.08,3.18-1.76,3.2-1.71,6.41-3.43c4.28-2.27,8.54-4.57,12.83-6.82l12.94-6.61,6.47-3.3c2.16-1.11,4.35-2.14,6.51-3.21,8.71-4.23,17.4-8.54,26.21-12.56,35.14-16.37,70.96-31.23,107.31-44.47,72.72-26.45,147.45-46.4,222.65-60.2l6.68,36.38c-73.26,13.45-145.97,32.86-216.69,58.58-35.34,12.89-70.17,27.32-104.32,43.24-8.57,3.9-17.01,8.1-25.48,12.21-2.11,1.04-4.24,2.04-6.33,3.13l-6.3,3.2-12.58,6.42c-4.17,2.18-8.31,4.42-12.48,6.63l-6.23,3.33-3.12,1.67-3.09,1.72-12.34,6.88c-2.05,1.15-4.11,2.28-6.16,3.46l-6.1,3.55-18.51-32.02h.03s0-.01,0-.01Z"/>
            <path class="cls-2" d="M1127.87,3592.5c-3.09-.63-5.84-2.71-7.19-5.83l-222.95-515.37c-1.05-2.44-1.1-5.19-.12-7.66.98-2.47,2.9-4.44,5.34-5.49,26.31-11.32,52.74-21.84,78.53-31.25,26.79-9.67,53.7-18.58,80.01-26.49,1.6-.48,3.27-.55,4.88-.22.95.19,1.87.53,2.74.99,2.34,1.26,4.08,3.4,4.84,5.94l160.86,538c1.58,5.28-1.42,10.85-6.7,12.44-15.37,4.63-31.46,9.96-47.83,15.83-15.05,5.51-30.71,11.74-46.49,18.51-1.94.83-4.01,1-5.93.61Z"/>
            <path class="cls-2" d="M1064.38,3009.98l160.86,538c-16.3,4.91-32.4,10.28-48.33,16-15.88,5.81-31.55,12.08-47.05,18.73l-222.95-515.38c25.74-11.08,51.75-21.46,78.01-31.04,26.29-9.49,52.79-18.29,79.46-26.31h0Z"/>
          </g>
          <g>
            <path class="cls-2" d="M1305.76,3451.8c-3.88-.79-7.08-3.86-7.84-8l-6.67-36.38c-.6-3.27.46-6.62,2.84-8.95.63-.62,1.33-1.14,2.08-1.57.96-.54,2.01-.93,3.13-1.14,55.84-10.23,114.55-16.39,174.49-18.29,28.87-.92,58.82-.88,89.01.13,28.42.97,58.59,2.97,89.7,5.94.35.03.71.09,1.05.16,2.23.46,4.25,1.66,5.71,3.43,1.69,2.05,2.5,4.68,2.24,7.32l-3.53,36.82c-.53,5.5-5.41,9.53-10.9,9-30.02-2.86-59.03-4.78-86.23-5.71-28.94-.97-57.62-1.01-85.24-.13-57.1,1.81-112.97,7.66-166.04,17.38-1.3.24-2.58.21-3.8-.04Z"/>
            <path class="cls-2" d="M1301.1,3405.62c56.56-10.37,114.42-16.27,173-18.13,29.3-.94,58.77-.86,88.36.13,29.6,1.01,59.31,3.06,89.08,5.9l-3.53,36.82c-29.05-2.77-58.03-4.76-86.84-5.75-28.81-.96-57.46-1.04-85.9-.13-56.88,1.81-112.9,7.54-167.53,17.54l-6.67-36.38h0s0,0,0,0Z"/>
            <path class="cls-2" d="M1241.53,3101.11c-3.88-.79-7.08-3.86-7.84-8l-6.67-36.38c-.23-1.26-.22-2.55.04-3.8.82-4,3.98-7.11,8-7.85,73.25-13.42,149.75-21.48,227.39-23.94,36.77-1.17,74.69-1.12,112.7.17,35.92,1.23,72.32,3.63,111.3,7.34.35.03.71.09,1.05.16,2.23.46,4.25,1.66,5.71,3.43,1.69,2.05,2.5,4.68,2.24,7.32l-3.53,36.82c-.53,5.5-5.41,9.53-10.9,9-37.14-3.54-73.43-5.94-107.83-7.12-36.62-1.24-73.27-1.29-108.92-.15-74.84,2.38-148.5,10.13-218.93,23.04-1.3.24-2.58.21-3.8-.04Z"/>
            <path class="cls-2" d="M1236.86,3054.92c75.22-13.78,150.88-21.4,225.9-23.78,37.52-1.2,74.89-1.09,112.04.17,37.15,1.27,74.04,3.81,110.69,7.3l-3.53,36.82c-35.92-3.42-72.08-5.91-108.44-7.16-36.37-1.23-72.92-1.32-109.58-.15-73.32,2.33-147.13,9.77-220.42,23.2l-6.67-36.38h0Z"/>
            <path class="cls-2" d="M1422.29,3521.19c-1.63-.33-3.16-1.07-4.45-2.16-2.04-1.72-3.3-4.18-3.52-6.84l-44.97-559.73c-.44-5.49,3.63-10.3,9.12-10.77,0,0,5.17-.44,5.22-.45l5.05-.36,10.13-.69,10.3-.69c3.32-.23,6.75-.46,10.18-.6,2.85-.14,5.76-.28,8.68-.43,10.42-.52,21.19-1.06,31.81-1.31,1.99-.06,4.04-.12,6.09-.18,4.69-.14,9.37-.29,14.05-.39l20.15-.25s10.14-.11,10.2-.11l9.99.05,19.99.14c.65,0,1.3.07,1.93.2,4.71.96,8.08,5.14,8.01,9.94l-7.85,561.48c-.08,5.49-4.57,9.9-10.06,9.86l-13.68-.09-6.74-.05-6.7.09-13.56.15c-2.75.07-5.48.15-8.22.24-1.73.05-3.47.11-5.21.16-6.15.12-12.32.43-18.3.73-2.83.14-5.65.28-8.48.41-1.93.07-3.81.21-5.81.35l-7.33.5-6.7.44-3.23.22-3.21.28c-.97.09-1.94.03-2.88-.16Z"/>
            <path class="cls-2" d="M1540.25,2946.43l-7.85,561.48-13.68-.09-6.84-.05-6.81.09-13.61.15c-4.52.11-9.02.27-13.53.4-9.04.18-17.96.75-26.93,1.15-2.24.08-4.47.25-6.7.41l-6.68.45-6.68.44-3.34.23-3.32.29-44.97-559.73,5.07-.43,5.05-.36,10.11-.69,10.11-.68c3.37-.23,6.74-.46,10.1-.6,13.44-.64,26.92-1.41,40.31-1.73,6.7-.19,13.42-.42,20.11-.57l20.05-.24,10.02-.11,9.99.05,19.98.14h0Z"/>
          </g>
          <g>
            <path class="cls-2" d="M1646.48,3440.17c-2.23-.45-4.25-1.66-5.71-3.43-1.69-2.05-2.5-4.68-2.24-7.32l3.49-36.35c.03-.5.09-1,.19-1.51,1.02-5.01,5.65-8.45,10.74-7.97,0,0,11.24,1.06,11.27,1.07,2.35.25,4.71.52,7.06.79,1.39.16,2.78.32,4.17.47l11.18,1.25s5.7.64,5.76.65l5.59.72s22.48,2.93,22.53,2.94l22.38,3.27c29.3,4.51,59.57,9.9,90.06,16.04,35.46,7.16,70.75,13.45,104.91,18.7l26.47,3.87c6.45.87,12.92,1.71,19.39,2.54l13.82,1.78,6.63.76s16.43,1.85,17.96,2.02c2.92.33,5.85.66,8.78.97l13.39,1.28c.35.03.7.09,1.05.16,2.23.46,4.25,1.66,5.71,3.44,1.69,2.05,2.49,4.68,2.24,7.32l-3.54,36.82c-.53,5.5-5.41,9.53-10.91,9l-13.73-1.32c-2.98-.31-5.86-.64-8.73-.96-1.7-.19-18.79-2.11-18.79-2.11,0,0-6.95-.8-7-.8l-14.91-1.92c-6.39-.82-12.78-1.65-19.16-2.5-.04,0-27.2-3.97-27.2-3.97-35.03-5.37-71.25-11.83-107.74-19.19-29.67-5.97-59.02-11.21-87.24-15.55l-21.74-3.18-27.17-3.53-19.88-2.24c-2.4-.27-4.81-.55-7.21-.8l-10.84-1.02c-.36-.03-.71-.09-1.06-.16Z"/>
            <path class="cls-2" d="M1652.01,3393.55l11.16,1.05c3.73.39,7.45.84,11.18,1.25l11.18,1.25,5.59.63,5.59.72,22.37,2.91,22.38,3.27c29.84,4.59,59.7,9.94,89.53,15.95,34.86,7.03,69.99,13.34,105.36,18.78l26.6,3.89c8.89,1.2,17.8,2.33,26.71,3.48l6.68.86,6.7.77,13.42,1.51c4.47.49,8.94,1.02,13.42,1.49l13.47,1.29-3.54,36.82-13.73-1.31c-4.57-.48-9.12-1.02-13.68-1.52l-13.68-1.54-6.83-.78-6.8-.88c-9.07-1.18-18.15-2.33-27.21-3.54l-27.09-3.96c-36.03-5.53-71.76-11.95-107.21-19.1-29.25-5.89-58.49-11.14-87.7-15.63l-21.89-3.2-21.86-2.84-5.47-.71-5.46-.61-10.91-1.23c-3.64-.41-7.28-.83-10.92-1.22l-10.89-1.03,3.54-36.82h0s0-.01,0-.01Z"/>
            <path class="cls-2" d="M1680.51,3085.26c-2.23-.46-4.25-1.66-5.71-3.44-1.69-2.05-2.49-4.68-2.24-7.32l3.54-36.82c.27-2.82,1.73-5.4,4.01-7.08,2.12-1.57,4.77-2.23,7.36-1.86,0,0,13.35,1.28,13.38,1.28,2.87.3,5.74.63,8.61.95,1.7.19,18.81,2.11,18.81,2.11,0,0,6.95.8,7,.8l14.79,1.91c6.43.83,12.85,1.66,19.27,2.52.04,0,27.2,3.97,27.2,3.97,35.04,5.38,71.27,11.83,107.74,19.19,29.7,5.98,59.05,11.21,87.24,15.55l21.74,3.18,27.17,3.53,19.88,2.24c2.4.27,4.81.55,7.21.8l10.83,1.02c.36.03.71.09,1.06.16,2.23.45,4.25,1.66,5.71,3.43,1.69,2.05,2.5,4.68,2.24,7.32l-3.54,36.82c-.53,5.49-5.4,9.52-10.9,9,0,0-11.24-1.06-11.27-1.07-2.35-.25-4.7-.52-7.05-.78-1.39-.16-2.79-.32-4.18-.47l-11.19-1.25s-5.7-.64-5.76-.65l-5.59-.72s-22.48-2.93-22.53-2.94l-22.38-3.27c-29.28-4.51-59.56-9.9-90.06-16.04-35.46-7.16-70.76-13.45-104.91-18.7l-26.47-3.87c-6.37-.86-12.76-1.68-19.15-2.51l-14.06-1.82-6.63-.76s-16.4-1.85-17.91-2.02c-2.94-.33-5.88-.66-8.83-.97l-13.39-1.28c-.35-.03-.7-.09-1.05-.16Z"/>
            <path class="cls-2" d="M1686.06,3038.66l13.73,1.31c4.57.48,9.12,1.02,13.68,1.52l13.68,1.54,6.83.78,6.8.88c9.07,1.18,18.15,2.33,27.21,3.54l27.09,3.96c36.03,5.53,71.76,11.95,107.21,19.1,29.25,5.89,58.49,11.14,87.7,15.63l21.89,3.2,21.86,2.84,5.47.71,5.46.61,10.91,1.23c3.64.41,7.28.83,10.92,1.22l10.89,1.03-3.54,36.82-11.16-1.05c-3.73-.39-7.45-.84-11.18-1.25l-11.18-1.25-5.59-.63-5.59-.72-22.37-2.91-22.38-3.27c-29.84-4.59-59.7-9.94-89.53-15.95-34.86-7.03-69.99-13.34-105.36-18.78l-26.6-3.89c-8.89-1.2-17.8-2.33-26.71-3.48l-6.68-.86-6.7-.77-13.42-1.51c-4.47-.49-8.94-1.02-13.42-1.49l-13.47-1.29,3.54-36.82h0s0,.01,0,.01Z"/>
            <path class="cls-2" d="M1747.9,3538.36c-2.47-.5-4.66-1.93-6.14-3.98-1.55-2.17-2.17-4.86-1.72-7.48l93.72-553.65c.92-5.43,6.06-9.1,11.49-8.2,0,0,4.84.8,4.88.81l4.73.84,9.47,1.7s18.99,3.42,19.03,3.42c9.19,1.75,18.49,3.58,27.48,5.35l10.17,2,28.38,5.54,14.13,2.53,7.11,1.28,3.48.63,3.46.57c.13.02.26.04.38.07,2.47.5,4.67,1.93,6.14,3.99,1.55,2.16,2.17,4.86,1.72,7.48l-93.72,553.65c-.92,5.43-6.06,9.1-11.49,8.2,0,0-4.84-.8-4.88-.81l-4.73-.84s-28.47-5.11-28.5-5.12c-9.18-1.75-18.47-3.58-27.46-5.35l-10.2-2-28.38-5.54-14.13-2.53-7.1-1.28-3.48-.63-3.46-.57c-.13-.02-.26-.04-.39-.07Z"/>
            <path class="cls-2" d="M1975.95,2999.58l-93.72,553.65-4.76-.79-4.73-.84-9.46-1.7-18.92-3.4c-12.56-2.39-25.07-4.88-37.6-7.34l-28.46-5.56-14.21-2.54-7.1-1.28-3.55-.64-3.55-.58,93.72-553.65,4.76.79,4.73.84,9.46,1.7,18.92,3.4c12.56,2.39,25.07,4.88,37.6,7.34l28.46,5.56,14.21,2.54,7.1,1.28,3.55.64,3.55.58h0Z"/>
          </g>
          <g>
            <path class="cls-2" d="M2038.37,3499.32c-2.23-.46-4.25-1.66-5.71-3.43-1.69-2.05-2.5-4.68-2.24-7.32l3.53-36.81c.03-.36.09-.71.16-1.05h0c1.06-5.19,5.96-8.64,11.18-7.91,36.98,3.52,73.11,5.9,107.4,7.08,36.61,1.24,73.26,1.29,108.92.15,74.84-2.38,148.49-10.13,218.93-23.04,1.3-.24,2.58-.21,3.8.04,3.88.79,7.08,3.86,7.84,8l6.67,36.38c.48,2.61-.1,5.3-1.61,7.48-1.51,2.18-3.82,3.68-6.43,4.16-73.25,13.42-149.75,21.48-227.39,23.94-36.76,1.18-74.68,1.12-112.7-.17-35.9-1.22-72.3-3.62-111.3-7.34-.35-.03-.71-.09-1.05-.16Z"/>
            <path class="cls-2" d="M2043.89,3452.72c35.92,3.42,72.08,5.91,108.44,7.16,36.37,1.23,72.92,1.32,109.58.15,73.32-2.33,147.13-9.77,220.42-23.2l6.67,36.38c-75.22,13.78-150.88,21.4-225.9,23.78-37.52,1.2-74.89,1.09-112.04-.17-37.15-1.27-74.04-3.81-110.69-7.3l3.53-36.82h0Z"/>
            <path class="cls-2" d="M2072.33,3144.41c-2.23-.46-4.25-1.66-5.71-3.43-1.69-2.05-2.5-4.68-2.24-7.32l3.48-36.35c.03-.66.13-1.32.3-1.98h0c1.27-4.98,6.07-8.15,11.08-7.44,29.86,2.84,58.72,4.74,85.78,5.67,28.94.97,57.62,1.01,85.24.13,57.11-1.82,112.98-7.66,166.04-17.38,1.3-.24,2.58-.21,3.8.04,3.88.79,7.08,3.86,7.84,8l6.67,36.38c1,5.43-2.6,10.64-8.03,11.64-55.84,10.23-114.54,16.39-174.49,18.29-28.87.92-58.82.88-89.01-.13-28.43-.97-58.6-2.97-89.7-5.94-.35-.03-.71-.09-1.05-.16Z"/>
            <path class="cls-2" d="M2077.84,3097.8c29.05,2.77,58.03,4.76,86.84,5.75,28.81.96,57.46,1.04,85.9.13,56.88-1.81,112.9-7.54,167.53-17.54l6.67,36.38c-56.56,10.37-114.42,16.27-173,18.13-29.3.94-58.77.86-88.36-.13-29.6-1.01-59.31-3.06-89.08-5.9l3.53-36.82h0s0,0,0,0Z"/>
            <path class="cls-2" d="M2183.61,3591.5c-1.94-.4-3.74-1.37-5.14-2.8-1.86-1.9-2.89-4.47-2.85-7.14l7.85-561.48c.08-5.49,4.57-9.9,10.06-9.86l13.68.09,6.75.05,6.7-.09,13.56-.15c2.74-.07,5.47-.15,8.2-.24,1.74-.05,3.48-.11,5.23-.16,6.15-.12,12.33-.43,18.3-.73,2.83-.14,5.65-.28,8.48-.41,1.93-.07,3.82-.21,5.81-.35l7.32-.5,6.7-.44,3.23-.22,3.2-.28c.97-.09,1.94-.03,2.88.16h.01c4.56.93,7.84,4.87,7.99,9.45l44.93,559.28c.44,5.48-3.63,10.29-9.12,10.76,0,0-5.17.44-5.22.45l-5.05.36-10.13.69-10.29.69c-3.32.23-6.75.46-10.2.6-2.83.14-5.72.28-8.61.42-10.44.52-21.24,1.06-31.87,1.31-2,.06-4.05.12-6.1.18-4.68.14-9.36.29-14.03.39l-20.15.24s-10.14.11-10.2.11l-9.99-.05-20-.14c-.65,0-1.3-.07-1.93-.2Z"/>
            <path class="cls-2" d="M2301.56,3016.75l44.97,559.73-5.07.43-5.05.36-10.11.69-10.11.68c-3.37.23-6.74.46-10.1.6-13.44.64-26.92,1.41-40.31,1.73-6.7.19-13.42.42-20.11.57l-20.05.24-10.02.11-9.99-.05-19.98-.14,7.85-561.48,13.68.09,6.84.05,6.81-.09,13.61-.15c4.52-.11,9.02-.27,13.53-.4,9.04-.18,17.96-.75,26.93-1.15,2.24-.08,4.47-.25,6.7-.41l6.68-.45,6.68-.44,3.34-.23,3.32-.29h0s0,0,0,0Z"/>
          </g>
          <g>
            <path class="cls-2" d="M2487.61,3482.89c-3.88-.79-7.08-3.86-7.84-8l-6.58-35.85c-.99-4.12.72-8.49,4.4-10.79l.02-.02c1.22-.77,2.57-1.25,3.96-1.44,73.78-13.57,145.98-33.1,214.6-58.05,34.95-12.75,69.78-27.18,103.51-42.9,6.68-3.04,13.36-6.31,19.83-9.46,1.83-.9,6.8-3.32,7.48-3.65,1.38-.67,2.76-1.34,4.12-2.04l6.37-3.24,12.57-6.42c2.6-1.36,5.27-2.78,7.94-4.21,1.47-.78,2.93-1.57,4.4-2.35l9.24-4.94,17.41-9.71c1.33-.74,2.66-1.48,3.99-2.25l6.05-3.52c2.13-1.24,4.63-1.64,7.03-1.15.19.04.38.08.57.13,2.57.68,4.76,2.36,6.09,4.66l18.51,32.02c2.76,4.77,1.13,10.88-3.63,13.65l-6.28,3.65c-1.6.92-3.15,1.78-4.7,2.65l-14.46,8.07s-3.28,1.82-3.32,1.84l-9.61,5.15c-1.63.86-3.22,1.72-4.82,2.57-2.7,1.44-5.39,2.88-8.1,4.3l-13.03,6.66-6.49,3.31c-1.48.76-3.02,1.51-4.56,2.26-.69.34-7.36,3.59-7.36,3.59-6.9,3.37-14.04,6.85-21.2,10.12-35.24,16.42-71.61,31.49-108.03,44.77-71.77,26.1-147.23,46.5-224.27,60.64-1.3.24-2.58.21-3.8-.03Z"/>
            <path class="cls-2" d="M2482.9,3436.72c73.26-13.45,145.97-32.86,216.69-58.58,35.34-12.89,70.17-27.32,104.32-43.24,8.57-3.9,17.01-8.1,25.48-12.21,2.11-1.04,4.24-2.04,6.33-3.13l6.3-3.2,12.58-6.42c4.17-2.18,8.31-4.42,12.48-6.63l6.23-3.33,3.12-1.67,3.09-1.72,12.34-6.88c2.05-1.15,4.11-2.28,6.16-3.46l6.1-3.55,18.51,32.02-6.28,3.65c-2.1,1.2-4.22,2.37-6.33,3.56l-12.68,7.08-3.18,1.76-3.2,1.72-6.41,3.43c-4.28,2.27-8.54,4.57-12.83,6.82l-12.94,6.61-6.48,3.3c-2.16,1.11-4.35,2.14-6.51,3.21-8.71,4.23-17.4,8.54-26.21,12.56-35.14,16.37-70.96,31.23-107.31,44.47-72.72,26.45-147.45,46.4-222.65,60.2l-6.68-36.38-.02.02Z"/>
            <path class="cls-2" d="M2423.21,3132.22c-3.88-.79-7.08-3.86-7.84-8l-6.57-35.78c-.2-.8-.3-1.64-.29-2.49.02-2.07.68-4.02,1.8-5.62,1.6-2.3,4.12-3.86,6.97-4.22,54.24-9.99,107.05-24.26,156.98-42.41,25.27-9.23,50.41-19.65,74.72-30.98.04-.02.08-.04.12-.05,4.4-1.98,8.89-4.18,13.23-6.3,1.65-.8,3.29-1.61,4.94-2.41.51-.25,1.1-.53,1.68-.82.89-.43,1.78-.85,2.65-1.3l4.6-2.36,9.07-4.62c1.66-.87,3.3-1.75,4.95-2.64,1.32-.71,2.65-1.42,3.98-2.12l6.65-3.55,12.37-6.91c1.02-.57,2.04-1.13,3.05-1.71l4.36-2.55c2.13-1.24,4.64-1.65,7.04-1.16.19.04.38.08.56.13,2.57.68,4.76,2.36,6.1,4.66l18.51,32.02c2.76,4.77,1.14,10.87-3.62,13.64l-4.59,2.68c-1.06.61-2.06,1.16-3.06,1.72,0,0-13.45,7.51-13.51,7.54l-2.35,1.25-4.66,2.49c-1.23.65-2.44,1.3-3.64,1.94-1.93,1.04-3.87,2.07-5.81,3.09-.03.02-14.23,7.26-14.23,7.26-1.07.56-2.16,1.09-3.25,1.61-.56.27-1.11.53-1.66.81-.03.02-.07.03-.1.05-1.79.86-3.57,1.73-5.35,2.6-4.54,2.22-9.23,4.51-13.98,6.66-25.87,12.05-52.54,23.1-79.26,32.86-53.12,19.31-109.23,34.45-166.76,45.01-1.3.24-2.58.21-3.8-.03Z"/>
            <path class="cls-2" d="M2418.52,3086.05c54.61-10.03,107.83-24.29,159.16-42.95,25.65-9.37,50.84-19.81,75.53-31.31,6.2-2.8,12.29-5.86,18.42-8.82,1.52-.75,3.08-1.46,4.58-2.25l4.55-2.33,9.1-4.63c3.02-1.58,6-3.21,9.01-4.8l4.51-2.41,2.26-1.2,2.23-1.25,8.93-4.98c1.49-.83,2.98-1.65,4.46-2.5l4.42-2.58,18.51,32.02-4.59,2.68c-1.54.88-3.09,1.73-4.63,2.6l-9.27,5.18-2.32,1.29-2.35,1.25-4.69,2.5c-3.12,1.66-6.24,3.35-9.38,4.99l-9.46,4.83-4.73,2.41c-1.57.82-3.18,1.56-4.77,2.34-6.37,3.08-12.7,6.26-19.15,9.17-25.67,11.96-51.85,22.82-78.52,32.55-53.35,19.39-108.58,34.19-165.13,44.57l-6.68-36.38v.02s-.01,0-.01,0Z"/>
            <path class="cls-2" d="M2659.49,3527.96c-.95-.19-1.87-.53-2.74-.99-2.34-1.26-4.08-3.4-4.84-5.94l-160.86-538c-1.58-5.28,1.42-10.85,6.7-12.44,15.37-4.63,31.46-9.96,47.83-15.83,15.05-5.51,30.71-11.74,46.49-18.51,1.94-.83,4.01-1,5.93-.61,3.09.63,5.84,2.71,7.19,5.83l222.95,515.38c1.05,2.44,1.1,5.19.12,7.66-.98,2.47-2.9,4.44-5.34,5.49-26.3,11.32-52.72,21.83-78.53,31.25-26.8,9.68-53.7,18.58-80.01,26.49-1.6.48-3.27.55-4.88.22Z"/>
            <path class="cls-2" d="M2596.01,2945.44l222.95,515.38c-25.74,11.08-51.75,21.46-78.01,31.04-26.29,9.49-52.79,18.29-79.46,26.31l-160.86-538c16.3-4.91,32.4-10.28,48.33-16,15.88-5.81,31.55-12.08,47.05-18.73Z"/>
          </g>
          <g>
            <path class="cls-2" d="M2921.13,3324.24c-.19-.04-.38-.08-.57-.13-2.57-.68-4.76-2.36-6.09-4.66l-18.35-31.71c-.69-1.1-1.17-2.35-1.39-3.68-.67-4.09,1.24-8.18,4.83-10.27l12.2-7.1c2.78-1.65,5.62-3.38,8.46-5.11l9.5-5.76,2.92-1.78,14.84-9.36c.71-.45,1.47-.93,2.23-1.41,1.19-.75,2.38-1.49,3.55-2.26l5.92-3.88,11.7-7.69,13.59-9.25c3.11-2.12,6.32-4.3,9.37-6.49l11.54-8.16,2.79-1.99,2.8-2.04s8.16-5.99,9.43-6.92c2.49-1.82,4.98-3.65,7.44-5.5l11.14-8.46,5.51-4.2,5.46-4.29,11.02-8.67c2.59-2.08,5.23-4.23,7.87-6.38l5.14-4.18c2.78-2.26,5.66-4.6,8.4-6.93l10.77-9.05,2.61-2.2,7.87-6.83,5.27-4.58c1.73-1.5,3.44-2.98,5.12-4.49l10.43-9.34c2.87-2.54,5.72-5.18,8.47-7.73l5.13-4.74c2.26-2.08,4.52-4.17,6.76-6.28l10.03-9.55,4.97-4.75,14.78-14.52,14.57-14.73,4.77-4.95,9.56-9.95,14.11-15.1,4.63-5.08,9.25-10.19,9.12-10.31c2.46-2.77,6.11-3.86,9.5-3.17,1.65.34,3.24,1.1,4.6,2.29l27.76,24.44c1.99,1.76,3.21,4.23,3.37,6.89.17,2.65-.73,5.26-2.49,7.25,0,0-9.45,10.67-9.47,10.7l-9.53,10.51s-4.84,5.31-4.87,5.34l-4.85,5.19s-9.77,10.45-9.8,10.48l-9.85,10.27s-5,5.2-5.03,5.23l-5.01,5.07s-10.1,10.2-10.14,10.24c0,0-15.34,15.07-15.37,15.1l-5.16,4.94-10.37,9.87c-2.38,2.24-4.74,4.41-7.09,6.59-1.17,1.08-5.45,5.04-5.45,5.04-2.85,2.63-5.8,5.36-8.8,8.01l-10.64,9.53c-1.88,1.69-3.76,3.33-5.51,4.85,0,0-13.63,11.83-13.67,11.86l-13.76,11.58c-3.15,2.67-6.41,5.32-9.56,7.88,0,0-4.23,3.44-5.49,4.47-2.47,2.01-4.94,4.02-7.43,6.02,0,0-17.15,13.49-17.19,13.52l-5.74,4.37-11.5,8.73c-2.65,1.99-5.28,3.92-7.92,5.85-1.28.94-2.56,1.87-3.83,2.81,0,0-8.86,6.48-8.89,6.51l-2.95,2.09-11.82,8.36c-3.42,2.45-6.96,4.85-10.38,7.18,0,0-13.74,9.35-13.79,9.38l-12.11,7.96-6.07,3.98c-1.41.93-2.88,1.85-4.34,2.78-.63.4-17.35,10.95-17.39,10.97l-9.31,5.66c-1.5.9-2.97,1.8-4.44,2.69-2.68,1.63-5.36,3.26-8.06,4.86l-12.63,7.36c-2.13,1.24-4.63,1.65-7.03,1.16Z"/>
            <path class="cls-2" d="M2904.59,3282.43l12.2-7.1c4.04-2.4,8.06-4.87,12.07-7.3l6.03-3.66,3.01-1.84,2.99-1.88,11.93-7.53c1.98-1.27,3.99-2.49,5.95-3.79l5.89-3.86,11.78-7.74,11.64-7.92c3.88-2.65,7.77-5.27,11.59-8l11.49-8.13,2.87-2.04,2.84-2.07,5.67-4.16c3.77-2.78,7.57-5.53,11.32-8.34l11.19-8.49,5.58-4.26,5.52-4.33,11.03-8.68c3.65-2.92,7.26-5.89,10.89-8.83,3.62-2.95,7.26-5.88,10.82-8.91l10.72-9.01,2.68-2.26,2.64-2.29,5.28-4.59,5.27-4.59c1.76-1.53,3.52-3.06,5.25-4.61l10.4-9.32c3.49-3.09,6.88-6.26,10.3-9.42,3.41-3.16,6.84-6.3,10.23-9.48l10.09-9.61,5.03-4.81,4.97-4.88,9.92-9.75,9.77-9.88,4.89-4.94,4.82-5,9.62-10.01,9.47-10.13,4.73-5.07,4.67-5.12,9.31-10.25,9.17-10.36,27.76,24.44-9.39,10.61-9.53,10.51-4.77,5.24-4.85,5.2-9.7,10.38-9.85,10.27-4.94,5.13-5.01,5.07-10.03,10.13-10.18,10.01-5.09,5-5.16,4.94-10.35,9.86c-3.47,3.26-7,6.49-10.5,9.74-3.51,3.23-7,6.49-10.58,9.66l-10.68,9.57c-1.78,1.6-3.58,3.17-5.39,4.74l-5.42,4.71-5.42,4.7-2.72,2.35-2.75,2.32-11,9.26c-3.65,3.1-7.39,6.11-11.11,9.14-3.73,3.02-7.43,6.07-11.18,9.07l-11.33,8.91-5.67,4.46-5.74,4.37-11.49,8.73c-3.85,2.89-7.75,5.72-11.63,8.58l-5.83,4.27-2.91,2.13-2.95,2.09-11.81,8.36c-3.92,2.8-7.92,5.51-11.91,8.22l-11.97,8.15-12.11,7.96-6.06,3.97c-2.02,1.33-4.07,2.6-6.11,3.9l-12.27,7.74-3.07,1.94-3.1,1.89-6.2,3.77c-4.14,2.5-8.26,5.03-12.42,7.51l-12.55,7.31-18.52-32.01h-.02s0,0,0,0Z"/>
            <path class="cls-2" d="M2742.52,3015.62c-.19-.04-.38-.08-.57-.13-2.57-.68-4.76-2.36-6.09-4.66l-18.52-32.01c-2.51-4.34-1.42-9.87,2.55-12.93.58-.44,1.19-.82,1.82-1.12l8.07-4.7c1.68-1,3.35-2.02,5.02-3.04,1.22-.74,2.44-1.48,3.66-2.22l6.46-3.91,10.76-6.8c.5-.32,1.03-.65,1.56-.98.86-.54,1.72-1.07,2.56-1.64l4.33-2.85,8.52-5.59,10.65-7.27c2.09-1.42,4.07-2.77,6.02-4.17l10.49-7.42,6.15-4.52c1.03-.76,2.09-1.53,3.14-2.3,1.7-1.24,3.4-2.48,5.08-3.74l12.2-9.27,4-3.15,8.07-6.34s9.37-7.6,10.07-8.18c1.98-1.61,3.85-3.12,5.68-4.69.03-.02,9.95-8.37,9.95-8.37,0,0,9.82-8.53,9.83-8.54,1.27-1.1,2.47-2.13,3.63-3.18l7.81-7.01c2.03-1.79,3.95-3.57,5.98-5.45l1.61-1.49c1.02-.95,2.07-1.92,3.12-2.89,1.49-1.37,2.98-2.75,4.46-4.14l11.24-10.72,3.68-3.62,7.43-7.29,7.32-7.41,3.65-3.68,10.83-11.27,7.15-7.65,3.56-3.8,10.56-11.62,6.96-7.88c2.46-2.78,6.11-3.87,9.5-3.17,1.65.34,3.24,1.1,4.6,2.29l27.76,24.44c1.99,1.76,3.21,4.23,3.37,6.88.17,2.65-.73,5.26-2.49,7.25,0,0-7.29,8.25-7.32,8.28l-7.33,8.07s-3.74,4.1-3.77,4.13c0,0-11.21,11.99-11.24,12.03,0,0-11.36,11.82-11.39,11.86l-3.82,3.86s-7.69,7.78-7.73,7.82l-7.73,7.59s-3.92,3.86-3.96,3.89l-11.75,11.2c-1.73,1.62-3.41,3.17-5.09,4.72-.98.9-4.49,4.15-4.49,4.15-2.13,1.97-4.33,4.01-6.59,6.01l-7.97,7.13c-1.15,1.05-2.38,2.11-3.61,3.18l-4.62,4.01s-6.16,5.36-6.2,5.39l-10.3,8.66c-2.02,1.73-4.13,3.45-6.18,5.11-.74.6-4.26,3.46-5.26,4.28-1.78,1.45-3.57,2.91-5.36,4.35l-8.5,6.67s-4.29,3.38-4.34,3.42l-4.26,3.23-8.51,6.47c-1.87,1.41-3.72,2.76-5.58,4.12-1.05.77-2.1,1.53-3.15,2.31,0,0-6.6,4.84-6.65,4.87l-2.18,1.53-8.7,6.16c-2.23,1.61-4.56,3.2-6.82,4.73,0,0-11.01,7.51-11.06,7.54l-13.36,8.77c-.98.65-2.03,1.31-3.08,1.97-.51.32-1.02.64-1.53.96,0,0-11.38,7.19-11.43,7.22l-2.27,1.38-4.58,2.77c-1.3.78-2.58,1.56-3.86,2.34-1.76,1.07-3.52,2.14-5.28,3.2-.03.02-9.28,5.41-9.28,5.41-2.13,1.24-4.63,1.65-7.03,1.16Z"/>
            <path class="cls-2" d="M2726.02,2973.84l8.84-5.15c2.93-1.75,5.84-3.54,8.76-5.31l4.38-2.65,2.19-1.33,2.17-1.37,8.66-5.47c1.44-.92,2.9-1.8,4.33-2.75l4.28-2.82,8.58-5.63,8.48-5.79c2.82-1.93,5.67-3.83,8.46-5.84l8.4-5.94,2.1-1.48,2.08-1.53,4.15-3.05c2.76-2.04,5.55-4.04,8.3-6.1l8.21-6.24,4.11-3.12,4.06-3.2,8.12-6.38,8.04-6.52c2.67-2.18,5.37-4.32,8-6.58l7.94-6.68,1.98-1.67,1.96-1.7,3.92-3.4,3.92-3.4c1.31-1.13,2.63-2.26,3.9-3.43l7.75-6.95c2.6-2.3,5.14-4.68,7.69-7.03,2.55-2.37,5.11-4.7,7.65-7.09l7.57-7.21,3.78-3.61,3.73-3.67,7.48-7.33,7.37-7.47,3.69-3.73,3.64-3.79,7.29-7.58,7.2-7.71,3.6-3.85,3.55-3.91,7.11-7.82,7.01-7.93,27.76,24.44-7.23,8.18-7.33,8.07-3.67,4.03-3.72,3.98-7.43,7.95-7.53,7.83-3.76,3.92-3.82,3.85-7.63,7.72-7.73,7.59-3.86,3.8-3.92,3.73-7.83,7.46c-2.63,2.46-5.29,4.89-7.92,7.33-2.64,2.44-5.27,4.91-7.97,7.28l-8.03,7.19c-1.33,1.21-2.69,2.38-4.04,3.55l-4.07,3.53-4.06,3.53-2.03,1.77-2.06,1.73-8.23,6.91c-2.72,2.33-5.52,4.56-8.29,6.82-2.78,2.25-5.54,4.52-8.33,6.76l-8.42,6.62-4.21,3.32-4.26,3.23-8.52,6.48c-2.85,2.14-5.74,4.22-8.61,6.34l-4.31,3.16-2.16,1.58-2.18,1.53-8.72,6.17c-2.89,2.09-5.84,4.05-8.78,6.07l-8.81,6.01-8.91,5.85-4.46,2.93c-1.48.98-2.99,1.9-4.49,2.86l-9,5.68-2.25,1.42-2.27,1.38-4.55,2.76c-3.04,1.83-6.05,3.69-9.1,5.51l-9.19,5.35-18.52-32.01.03.03h0Z"/>
            <path class="cls-2" d="M3098.93,3307.72c-2.41-.49-4.56-1.86-6.03-3.84l-334.47-451.05c-3.29-4.43-2.36-10.68,2.06-13.98,27.82-20.71,54.27-42.73,78.6-65.45,2.37-2.21,5.65-3.14,8.83-2.49,2.04.42,3.91,1.46,5.33,2.99l382.38,411.22c3.76,4.04,3.53,10.36-.5,14.13-40.09,37.37-83.23,73.28-128.22,106.71-2.13,1.58-4.8,2.25-7.43,1.87-.18-.03-.36-.06-.54-.09Z"/>
            <path class="cls-2" d="M2845.92,2780.71l382.38,411.22c-40.15,37.44-82.76,72.85-127.37,105.99l-334.47-451.05c27.4-20.4,53.98-42.38,79.45-66.16h0Z"/>
          </g>
          <g>
            <path class="cls-2" d="M3274.22,3031.99c-1.65-.34-3.24-1.1-4.6-2.29l-27.49-24.18c-.4-.33-.78-.69-1.14-1.09-3.38-3.78-3.41-9.49-.05-13.29l4.54-5.13,4.47-5.19,8.95-10.41,8.81-10.53,4.37-5.24,4.32-5.29,8.65-10.63,8.52-10.73c2.85-3.56,5.66-7.2,8.39-10.72.97-1.26,1.96-2.53,2.94-3.81,1.8-2.33,3.61-4.65,5.38-7l2.65-3.5c4.53-5.99,9.2-12.18,13.66-18.31,4.63-6.24,9.19-12.61,13.61-18.76l2.41-3.37c1.62-2.26,3.21-4.54,4.81-6.83,1-1.43,2-2.87,3.01-4.3l3.9-5.57,3.81-5.56,7.66-11.22,7.54-11.3c38.84-58.59,75.21-121.39,108.08-186.65,2.08-4.12,6.61-6.18,10.93-5.3.85.17,1.69.46,2.5.87l33.04,16.63c2.37,1.19,4.17,3.28,5,5.8.83,2.52.63,5.27-.57,7.64-33.87,67.23-71.39,132.01-111.51,192.54,0,0-7.79,11.68-7.81,11.71l-7.87,11.53-3.97,5.78-6.44,9.2c-1.9,2.71-3.79,5.42-5.72,8.12l-2.09,2.91c-4.68,6.54-9.52,13.3-14.44,19.91-4.76,6.53-9.76,13.14-14.59,19.53l-2.26,3c-1.88,2.48-3.78,4.93-5.68,7.38-.99,1.27-1.98,2.55-2.96,3.83l-1.17,1.52c-2.46,3.18-5.01,6.47-7.6,9.71,0,0-8.78,11.06-8.81,11.09l-8.9,10.93s-4.51,5.53-4.53,5.56l-4.53,5.41s-9.13,10.9-9.16,10.93l-9.21,10.72s-4.68,5.43-4.7,5.46l-4.69,5.31c-2.46,2.78-6.11,3.87-9.51,3.18Z"/>
            <path class="cls-2" d="M3248.44,2997.77l4.58-5.18,4.51-5.23,9-10.47,8.85-10.57,4.42-5.29,4.36-5.34,8.69-10.69,8.56-10.78c2.86-3.58,5.67-7.2,8.47-10.83,2.79-3.62,5.62-7.23,8.39-10.88,5.51-7.3,11.05-14.58,16.43-21.97,5.45-7.34,10.74-14.77,16.06-22.19,2.66-3.71,5.24-7.46,7.87-11.19l3.92-5.6,3.86-5.63,7.7-11.28,7.57-11.34c40.2-60.63,76.31-123.4,108.69-187.7l33.04,16.63c-33.02,65.54-69.85,129.57-110.91,191.51l-7.74,11.6-7.87,11.53-3.95,5.76-4.01,5.72c-2.68,3.81-5.33,7.64-8.04,11.43-5.44,7.59-10.85,15.18-16.42,22.68-5.5,7.54-11.17,15-16.8,22.46-2.82,3.73-5.72,7.42-8.58,11.13-2.87,3.7-5.73,7.41-8.66,11.08l-8.75,11.02-8.9,10.93-4.45,5.46-4.52,5.41-9.07,10.82-9.21,10.72-4.61,5.36-4.69,5.31-27.77-24.43h-.01Z"/>
            <path class="cls-2" d="M3006.49,2796.54c-1.65-.34-3.24-1.1-4.59-2.29l-27.78-24.42c-1.99-1.75-3.21-4.22-3.38-6.87s.72-5.26,2.47-7.25c71.67-81.41,135.51-177.27,189.75-284.91,2.08-4.12,6.61-6.18,10.93-5.3.85.17,1.69.46,2.5.87l33.03,16.62c2.37,1.19,4.17,3.28,5,5.8.83,2.52.63,5.27-.56,7.64-27.48,54.56-57.82,106.99-90.18,155.81,0,0-6.22,9.32-6.24,9.35,0,0-9.43,13.8-9.45,13.83l-3.18,4.54c-.86,1.22-1.7,2.43-2.54,3.63-1.28,1.84-2.56,3.67-3.87,5.5l-2.97,4.13c-3.27,4.56-6.65,9.27-10.07,13.88-3.44,4.74-6.99,9.44-10.43,13.99l-2.85,3.78c-1.43,1.9-2.88,3.77-4.33,5.64-.82,1.05-1.63,2.1-2.45,3.16l-1.1,1.42c-1.88,2.43-3.82,4.94-5.8,7.41,0,0-6.86,8.64-6.88,8.68,0,0-10.45,12.83-10.48,12.87,0,0-10.61,12.68-10.64,12.71l-7.13,8.29s-3.62,4.22-3.66,4.26l-3.62,4.09c-2.46,2.77-6.11,3.86-9.5,3.17Z"/>
            <path class="cls-2" d="M2980.72,2762.32c74.63-84.78,138.44-182.37,191.17-287.02l33.03,16.62c-26.98,53.58-56.85,105.4-89.58,154.78l-6.16,9.23-6.26,9.15-3.13,4.58-3.18,4.54c-2.13,3.02-4.22,6.06-6.36,9.06-4.3,5.98-8.57,12-12.96,17.9-4.33,5.96-8.79,11.8-13.21,17.67-2.21,2.94-4.48,5.81-6.72,8.72-2.25,2.9-4.48,5.81-6.77,8.67l-6.83,8.61-6.93,8.52-3.46,4.25-3.51,4.2-7.03,8.4-7.13,8.29-3.56,4.15-3.62,4.09-27.78-24.42h0Z"/>
            <path class="cls-2" d="M3435.01,2965.38c-1.39-.28-2.72-.86-3.89-1.72l-453.86-330.65c-4.46-3.25-5.45-9.51-2.2-13.97,21.02-28.86,41.38-59.57,60.53-91.27,2.19-3.62,6.42-5.47,10.56-4.63,1.3.27,2.49.77,3.53,1.47l480.29,290.11c2.27,1.37,3.9,3.59,4.54,6.16.64,2.58.22,5.3-1.15,7.57-27.75,45.94-57.45,90.69-88.28,133.02-1.56,2.15-3.91,3.58-6.53,3.99-1.19.19-2.39.16-3.55-.08Z"/>
            <path class="cls-2" d="M3044.17,2532.96l480.65,290.33c-27.19,45.01-56.41,89.2-87.8,132.3l-453.86-330.65c21.44-29.45,41.79-60.18,61-91.99h0s0,.01,0,.01Z"/>
          </g>
          <g>
            <path class="cls-2" d="M3521.64,2661.52c-.86-.18-1.7-.46-2.49-.86l-33.04-16.62c-4.93-2.48-6.92-8.49-4.44-13.42,31.86-63.41,60.66-129.52,85.6-196.5,12.61-33.89,24.27-68.16,34.66-101.85,5.58-18.12,10.55-35.25,15.19-52.36,2.53-9.33,4.84-18.15,7.04-26.98,1.08-4.35,2.24-9.07,3.39-14l1.7-7.4.9-4.05,1.04-4.92c1.14-5.37,6.4-8.82,11.78-7.72l36.24,7.4c2.61.53,4.91,2.09,6.37,4.32s1.97,4.96,1.41,7.56l-1.17,5.48-.98,4.46-1.81,7.85c-1.06,4.52-2.2,9.21-3.59,14.8-2.21,8.87-4.61,18.07-7.34,28.14-4.75,17.49-9.9,35.22-15.73,54.2-10.71,34.74-22.73,70.04-35.72,104.94-25.67,68.94-55.31,136.98-88.09,202.22-1.19,2.37-3.28,4.17-5.79,5-1.67.55-3.45.65-5.14.3Z"/>
            <path class="cls-2" d="M3490.6,2635.11c32.33-64.34,60.97-130.17,86.04-197.5,12.53-33.67,24.16-67.73,34.85-102.39,5.34-17.35,10.44-34.84,15.29-52.69,2.42-8.93,4.79-17.95,7.09-27.18,1.15-4.63,2.29-9.29,3.43-14.14l1.71-7.44.91-4.13,1.06-5.01,36.24,7.4-1.17,5.48-.97,4.4-1.79,7.76c-1.18,5.04-2.36,9.85-3.55,14.63-2.37,9.53-4.8,18.78-7.29,27.94-4.97,18.3-10.19,36.16-15.63,53.88-10.91,35.38-22.76,70.08-35.53,104.39-25.54,68.59-54.7,135.64-87.65,201.22l-33.04-16.62Z"/>
            <path class="cls-2" d="M3203.15,2501.31c-.86-.18-1.7-.46-2.49-.86l-32.71-16.45c-4.2-1.91-6.59-6.49-5.66-11.1h0c.2-1,.55-1.94,1.01-2.78,26-51.77,49.48-105.71,69.81-160.32,10.26-27.56,19.7-55.31,28.08-82.46,4.35-14.15,8.34-27.9,11.85-40.85,1.79-6.58,3.52-13.23,5.16-19.77.71-2.86,1.54-6.21,2.24-9.26l.99-4.29.33-1.5c.07-.33.14-.67.23-1,1.33-5.15,6.47-8.36,11.68-7.3l36.24,7.4c2.63.54,4.93,2.1,6.39,4.35,1.46,2.25,1.96,4.99,1.38,7.61l-.66,2.97-1.09,4.71c-.74,3.19-1.56,6.52-2.39,9.87l-.04.18c-1.66,6.65-3.49,13.68-5.46,20.93-3.63,13.38-7.8,27.74-12.39,42.69-8.73,28.31-18.53,57.09-29.13,85.56-21.09,56.66-45.46,112.63-72.44,166.34-1.19,2.37-3.27,4.17-5.79,5-1.67.55-3.45.65-5.14.3Z"/>
            <path class="cls-2" d="M3172.09,2474.91c26.3-52.36,49.89-106.51,70.39-161.62,10.25-27.54,19.73-55.32,28.27-83,4.25-13.83,8.28-27.63,11.95-41.18,1.84-6.77,3.59-13.47,5.21-19.96.8-3.22,1.59-6.43,2.28-9.42l.99-4.3.37-1.65c.04-.2.08-.39.13-.59l36.24,7.4-.66,2.97-1.07,4.62c-.74,3.19-1.57,6.54-2.4,9.91-1.69,6.77-3.5,13.72-5.4,20.71-3.8,13.99-7.94,28.19-12.3,42.38-8.76,28.4-18.45,56.84-28.94,85.01-20.98,56.37-45.08,111.74-72.01,165.34l-33.04-16.62h0s0,0,0,0Z"/>
            <path class="cls-2" d="M3659.59,2561.91c-.62-.13-1.24-.31-1.83-.56l-518.67-215.18c-5.1-2.12-7.52-7.97-5.41-13.07,14.51-34.99,27.73-70.53,39.28-105.61,1.59-4.84,6.56-7.68,11.49-6.67.19.04.38.08.57.14.34.09.67.2.99.32l532.97,175.37c2.52.83,4.61,2.63,5.8,4.99,1.2,2.37,1.4,5.11.57,7.63-16.09,48.84-34.43,98.19-54.53,146.68-1.01,2.45-2.96,4.4-5.41,5.41-1.86.77-3.88.95-5.82.56Z"/>
            <path class="cls-2" d="M3182.46,2230.62l533.4,175.51c-16.35,49.64-34.43,98.13-54.27,145.98l-518.67-215.18c14.53-35.04,27.82-70.7,39.54-106.32h0Z"/>
          </g>
        </g>
        <g>
          <g>
            <path class="cls-2" d="M3675.46,2241.78c-.5-.1-.98-.24-1.44-.41l-34.78-7.13c-5.41-1.11-8.89-6.39-7.79-11.8.01-.05.7-3.19.7-3.19l1.09-4.71c.76-3.28,1.61-6.73,2.44-10.06,1.66-6.66,3.5-13.7,5.46-20.93,3.63-13.4,7.8-27.76,12.39-42.69,8.72-28.29,18.52-57.07,29.13-85.56,21.09-56.67,45.46-112.63,72.44-166.34,1.19-2.37,3.27-4.17,5.79-5,1.67-.55,3.45-.65,5.14-.3.86.18,1.7.46,2.49.86l33.04,16.62c4.93,2.48,6.92,8.49,4.44,13.42-26.05,51.86-49.59,105.89-69.96,160.61-10.21,27.42-19.66,55.16-28.08,82.46-4.36,14.18-8.35,27.93-11.85,40.85-1.79,6.57-3.52,13.22-5.16,19.77-.71,2.86-1.53,6.21-2.24,9.26l-.99,4.29-.37,1.68-.1.5c-1.1,5.41-6.39,8.9-11.8,7.8Z"/>
            <path class="cls-2" d="M3641.25,2224.41l.66-3,1.07-4.62c.74-3.19,1.57-6.54,2.4-9.91,1.69-6.77,3.5-13.72,5.4-20.71,3.8-13.99,7.94-28.19,12.3-42.38,8.76-28.4,18.45-56.84,28.94-85.01,20.98-56.37,45.08-111.74,72.01-165.34l33.04,16.62c-26.3,52.36-49.89,106.51-70.39,161.62-10.26,27.54-19.73,55.32-28.27,83-4.25,13.83-8.28,27.63-11.95,41.18-1.84,6.77-3.59,13.47-5.21,19.96-.8,3.22-1.59,6.43-2.28,9.42l-.99,4.3-.41,1.85-.12.58.02-.11-36.24-7.43v-.03s0,0,0,0Z"/>
            <path class="cls-2" d="M3290.3,2162.69c-.1-.02-.21-.04-.31-.06-2.1-.43-3.91-1.48-5.27-2.93-2.16-2.29-3.21-5.56-2.53-8.88.04-.17.08-.35.12-.52l1.1-5.15.95-4.27,1.81-7.84c1.06-4.52,2.2-9.21,3.59-14.8,2.21-8.85,4.61-18.05,7.34-28.14,4.76-17.53,9.91-35.26,15.73-54.2,10.71-34.73,22.72-70.04,35.72-104.94,25.67-68.95,55.31-136.99,88.09-202.22,1.19-2.37,3.27-4.17,5.79-5,1.67-.55,3.45-.65,5.14-.3.86.18,1.7.46,2.49.86l33.04,16.62c4.93,2.48,6.92,8.49,4.44,13.43-31.86,63.41-60.67,129.52-85.6,196.5-12.61,33.89-24.27,68.16-34.66,101.85-5.58,18.12-10.55,35.25-15.19,52.36-2.54,9.35-4.84,18.17-7.04,26.98-1.09,4.37-2.25,9.1-3.39,14l-1.7,7.41-.87,3.9-1.08,5.03c-1.15,5.36-6.41,8.8-11.78,7.7,0,0-35.92-7.36-35.92-7.36Z"/>
            <path class="cls-2" d="M3291.99,2152.84l1.19-5.59.93-4.2,1.79-7.76c1.18-5.04,2.36-9.85,3.55-14.63,2.37-9.53,4.8-18.78,7.29-27.94,4.97-18.3,10.19-36.16,15.63-53.88,10.91-35.38,22.76-70.08,35.53-104.39,25.54-68.59,54.7-135.64,87.65-201.22l33.04,16.62c-32.33,64.34-60.97,130.17-86.04,197.5-12.53,33.67-24.16,67.73-34.85,102.39-5.34,17.35-10.44,34.84-15.29,52.69-2.42,8.93-4.79,17.95-7.09,27.18-1.15,4.63-2.29,9.29-3.43,14.14l-1.71,7.44-.88,3.97-1.09,5.1-36.24-7.43h0s0,.01,0,.01Z"/>
            <path class="cls-2" d="M3784.74,2164.14c-.38-.08-.76-.18-1.14-.3l-533.4-175.51c-2.52-.83-4.61-2.63-5.8-4.99-1.2-2.37-1.4-5.11-.57-7.63,16.08-48.83,34.42-98.17,54.51-146.63.88-2.16,2.49-3.96,4.57-5.07,2.07-1.1,4.44-1.43,6.7-.97.62.13,1.23.31,1.83.56l518.67,215.18c5.1,2.12,7.52,7.97,5.41,13.07-14.51,34.99-27.73,70.53-39.28,105.62-1.6,4.87-6.59,7.68-11.49,6.68Z"/>
            <path class="cls-2" d="M3307.6,1832.83l518.67,215.18c-14.53,35.04-27.82,70.7-39.54,106.32l-533.4-175.51c16.35-49.64,34.43-98.13,54.27-145.98h0Z"/>
          </g>
          <g>
            <path class="cls-2" d="M3795.3,1919.45c-.85-.17-1.69-.46-2.5-.87l-33.04-16.63c-4.56-2.29-6.66-7.66-4.87-12.44.18-.49.4-.96.65-1.4,27.43-54.42,57.7-106.7,89.97-155.4,0,0,6.22-9.32,6.24-9.35,0,0,9.43-13.8,9.45-13.83l3.18-4.54c.85-1.2,1.68-2.39,2.5-3.58,1.3-1.86,2.59-3.71,3.91-5.55l2.98-4.14c3.27-4.56,6.65-9.27,10.07-13.88,3.46-4.75,7.02-9.48,10.48-14.05l2.81-3.72c1.43-1.9,2.89-3.78,4.35-5.65.81-1.05,1.63-2.09,2.44-3.15l1.11-1.44c1.87-2.42,3.81-4.92,5.78-7.38,0,0,6.86-8.64,6.89-8.67,0,0,10.45-12.83,10.47-12.87l3.51-4.2s7.1-8.48,7.13-8.51l7.13-8.29s3.62-4.22,3.66-4.26l3.62-4.09c2.46-2.77,6.11-3.86,9.5-3.17,1.65.34,3.24,1.1,4.6,2.29l27.77,24.43c1.99,1.75,3.21,4.22,3.38,6.87.17,2.65-.72,5.25-2.47,7.25-71.67,81.41-135.51,177.27-189.74,284.91-2.08,4.12-6.61,6.18-10.93,5.3Z"/>
            <path class="cls-2" d="M3764.26,1893.02c26.98-53.58,56.85-105.4,89.58-154.78l6.16-9.23,6.26-9.15,3.13-4.58,3.18-4.54c2.13-3.02,4.22-6.06,6.36-9.06,4.3-5.98,8.57-12,12.96-17.91,4.33-5.95,8.79-11.8,13.21-17.67,2.21-2.94,4.48-5.81,6.72-8.72,2.25-2.9,4.48-5.81,6.77-8.67l6.83-8.61,6.93-8.52,3.46-4.25,3.51-4.2,7.03-8.4,7.13-8.29,3.56-4.15,3.62-4.09,27.77,24.43c-74.63,84.78-138.44,182.37-191.17,287.02l-33.04-16.63h0Z"/>
            <path class="cls-2" d="M3476.84,1759.16c-.85-.17-1.69-.46-2.5-.87l-33.04-16.63c-3.15-1.58-5.23-4.71-5.48-8.22-.14-1.96.3-3.88,1.22-5.54,33.83-67.12,71.29-131.79,111.35-192.22,0,0,7.79-11.68,7.81-11.71l7.86-11.53,3.97-5.78,6.51-9.3c1.87-2.68,3.75-5.36,5.65-8.02l2.1-2.93c4.68-6.53,9.52-13.29,14.43-19.9,4.81-6.59,9.85-13.26,14.72-19.71l2.13-2.81c1.87-2.48,3.77-4.93,5.67-7.38.99-1.27,1.98-2.55,2.96-3.83l1.22-1.57c2.45-3.17,4.99-6.44,7.56-9.65,0,0,8.78-11.06,8.81-11.09l8.9-10.93s4.51-5.53,4.53-5.56l4.52-5.41s9.13-10.9,9.16-10.93l9.21-10.72s4.68-5.43,4.7-5.46l4.69-5.31c2.45-2.78,6.11-3.87,9.51-3.18,1.65.34,3.24,1.1,4.59,2.29l27.78,24.43c2,1.75,3.21,4.23,3.38,6.88.17,2.65-.73,5.26-2.49,7.25l-4.54,5.13-4.47,5.18-8.95,10.42-8.81,10.52-4.37,5.24-4.32,5.29-8.65,10.63-8.52,10.73c-2.83,3.54-5.65,7.19-8.38,10.71-.96,1.25-1.94,2.51-2.91,3.76-1.82,2.34-3.63,4.69-5.43,7.05l-2.61,3.45c-4.54,6.01-9.23,12.22-13.7,18.36-4.64,6.25-9.22,12.64-13.64,18.81l-2.38,3.32c-1.62,2.26-3.21,4.55-4.81,6.83-1,1.43-2,2.86-3.01,4.29l-3.9,5.57-3.81,5.56-7.66,11.21-7.54,11.3c-38.84,58.58-75.21,121.39-108.08,186.65-2.08,4.12-6.61,6.18-10.93,5.3Z"/>
            <path class="cls-2" d="M3445.8,1732.73c33.02-65.54,69.85-129.57,110.91-191.51l7.74-11.6,7.87-11.53,3.95-5.76,4.01-5.72c2.68-3.81,5.33-7.64,8.04-11.43,5.44-7.59,10.85-15.18,16.42-22.68,5.5-7.54,11.17-15,16.8-22.46,2.82-3.73,5.72-7.42,8.58-11.13,2.87-3.7,5.73-7.41,8.66-11.08l8.75-11.02,8.9-10.93,4.45-5.46,4.52-5.41,9.07-10.82,9.21-10.72,4.61-5.36,4.69-5.31,27.77,24.43-4.58,5.18-4.51,5.23-9,10.47-8.85,10.57-4.42,5.29-4.36,5.34-8.69,10.69-8.56,10.78c-2.86,3.58-5.67,7.2-8.47,10.83-2.79,3.62-5.62,7.23-8.39,10.88-5.51,7.3-11.05,14.58-16.43,21.97-5.45,7.34-10.74,14.77-16.06,22.19-2.66,3.71-5.24,7.46-7.87,11.19l-3.92,5.6-3.86,5.63-7.7,11.28-7.57,11.34c-40.2,60.63-76.31,123.4-108.69,187.7l-33.04-16.63h.01Z"/>
            <path class="cls-2" d="M3923.03,1861.8c-1.11-.23-2.18-.64-3.17-1.24l-480.65-290.33c-2.27-1.37-3.9-3.59-4.54-6.16s-.22-5.3,1.15-7.57c27.67-45.8,57.28-90.43,88.01-132.65,1.13-1.7,2.77-3.05,4.73-3.81,1.82-.71,3.77-.85,5.62-.48,1.38.28,2.71.86,3.88,1.71l453.86,330.65c4.46,3.25,5.45,9.51,2.2,13.97-21.02,28.86-41.38,59.57-60.53,91.27-1.37,2.27-3.59,3.9-6.16,4.54-1.45.36-2.96.38-4.4.09Z"/>
            <path class="cls-2" d="M3532.17,1429.36l453.86,330.65c-21.44,29.45-41.79,60.18-61,91.99l-480.65-290.33c27.19-45.01,56.41-89.2,87.8-132.3h0s0-.01,0-.01Z"/>
          </g>
          <g>
            <path class="cls-2" d="M3986.77,1632.13c-1.65-.34-3.24-1.1-4.6-2.29l-27.76-24.44c-.2-.17-.38-.35-.57-.54-3.64-3.75-3.81-9.7-.34-13.62,0,0,7.29-8.25,7.32-8.28l7.33-8.07s3.74-4.1,3.77-4.13l3.72-3.98s7.49-8.02,7.52-8.05l7.53-7.83s3.83-3.99,3.86-4.03l3.82-3.85s7.69-7.78,7.73-7.82l7.73-7.59s3.92-3.86,3.96-3.9l11.75-11.2c1.73-1.62,3.41-3.18,5.1-4.73.97-.9,4.47-4.13,4.47-4.13,2.14-1.98,4.34-4.03,6.61-6.02l7.97-7.14c1.15-1.05,2.38-2.11,3.61-3.18l4.62-4.01s6.16-5.36,6.2-5.39l10.3-8.65c2.01-1.73,4.13-3.44,6.17-5.1.74-.6,4.27-3.47,5.28-4.29,1.78-1.45,3.57-2.91,5.36-4.35l8.49-6.67s4.3-3.38,4.34-3.42l4.26-3.23,8.51-6.47c1.87-1.41,3.72-2.76,5.57-4.11,1.05-.77,2.1-1.54,3.15-2.31,0,0,6.6-4.84,6.65-4.87l2.18-1.54,8.7-6.16c2.22-1.61,4.55-3.19,6.8-4.72,0,0,11.03-7.52,11.08-7.55l13.36-8.77c.98-.65,2.03-1.31,3.08-1.97.51-.32,1.02-.64,1.52-.96,0,0,11.38-7.19,11.43-7.22l2.27-1.38,4.58-2.77c1.3-.78,2.58-1.56,3.85-2.34,1.76-1.07,3.52-2.15,5.29-3.2.03-.02,9.28-5.4,9.28-5.4,2.13-1.24,4.63-1.65,7.03-1.16.19.04.38.08.57.13,2.57.68,4.76,2.36,6.09,4.66l18.52,32.01c2.76,4.77,1.14,10.88-3.62,13.65l-8.79,5.12c-1.68,1-3.35,2.02-5.02,3.04-1.22.74-2.43,1.48-3.65,2.22l-6.46,3.91-10.76,6.8c-.5.32-1.03.65-1.56.98-.86.54-1.71,1.07-2.56,1.63l-4.33,2.85-8.52,5.59-10.64,7.26c-2.1,1.43-4.07,2.77-6.03,4.17l-10.49,7.42-6.15,4.52c-1.02.75-2.05,1.51-3.09,2.26-1.71,1.25-3.43,2.5-5.13,3.78l-12.21,9.28-3.99,3.15-8.07,6.34s-9.36,7.6-10.06,8.17c-1.98,1.61-3.86,3.12-5.69,4.7-.03.02-9.95,8.37-9.95,8.37l-9.74,8.46c-1.27,1.09-2.54,2.19-3.72,3.26l-7.81,7.01c-2.03,1.79-3.95,3.57-5.98,5.45l-1.61,1.49c-1.02.95-2.07,1.92-3.13,2.89-1.49,1.37-2.98,2.74-4.46,4.13l-7.52,7.17-3.72,3.55-3.68,3.61-7.43,7.29-7.31,7.41-3.65,3.68-10.84,11.27-7.15,7.65-3.56,3.8-10.56,11.61-6.96,7.88c-2.46,2.78-6.11,3.87-9.5,3.18Z"/>
            <path class="cls-2" d="M3960.99,1597.87l7.23-8.18,7.33-8.07,3.67-4.03,3.72-3.98,7.43-7.95,7.53-7.83,3.76-3.92,3.82-3.85,7.63-7.72,7.73-7.59,3.86-3.8,3.92-3.73,7.83-7.46c2.63-2.46,5.29-4.89,7.92-7.33,2.64-2.44,5.27-4.91,7.97-7.28l8.03-7.19c1.33-1.21,2.69-2.38,4.04-3.55l4.07-3.53,4.06-3.53,2.03-1.77,2.06-1.73,8.23-6.91c2.72-2.33,5.52-4.56,8.29-6.82,2.78-2.25,5.54-4.52,8.33-6.76l8.42-6.62,4.21-3.32,4.26-3.23,8.52-6.48c2.85-2.14,5.74-4.22,8.61-6.34l4.31-3.16,2.16-1.58,2.18-1.53,8.72-6.17c2.89-2.08,5.84-4.05,8.78-6.07l8.81-6.01,8.91-5.85,4.46-2.93c1.48-.98,2.99-1.9,4.49-2.86l9-5.68,2.25-1.42,2.27-1.38,4.55-2.75c3.04-1.83,6.05-3.69,9.1-5.51l9.19-5.35,18.52,32.01-8.84,5.15c-2.93,1.75-5.84,3.54-8.76,5.31l-4.38,2.65-2.19,1.33-2.17,1.37-8.66,5.47c-1.44.92-2.9,1.8-4.33,2.75l-4.28,2.82-8.58,5.63-8.48,5.79c-2.82,1.93-5.67,3.83-8.46,5.84l-8.4,5.94-2.1,1.48-2.08,1.53-4.15,3.05c-2.76,2.04-5.55,4.04-8.3,6.1l-8.21,6.24-4.11,3.12-4.06,3.2-8.12,6.38-8.04,6.52c-2.67,2.18-5.37,4.32-8,6.58l-7.94,6.68-1.98,1.67-1.96,1.7-3.92,3.4-3.92,3.4c-1.31,1.13-2.63,2.26-3.9,3.43l-7.75,6.95c-2.6,2.3-5.14,4.68-7.69,7.03-2.55,2.37-5.11,4.7-7.65,7.09l-7.57,7.21-3.78,3.61-3.73,3.67-7.48,7.33-7.37,7.47-3.69,3.73-3.64,3.79-7.29,7.58-7.2,7.71-3.6,3.85-3.55,3.91-7.11,7.82-7.01,7.93-27.76-24.44-.03-.03h0Z"/>
            <path class="cls-2" d="M3719.07,1396.56c-1.65-.34-3.24-1.1-4.6-2.29l-27.76-24.44c-3.4-2.99-4.36-7.9-2.35-11.96.51-1.03,1.18-1.94,1.97-2.71,0,0,8.97-10.13,8.99-10.16l9.53-10.51s4.84-5.31,4.87-5.34l4.85-5.2s9.77-10.45,9.8-10.48l9.85-10.27s5.01-5.2,5.03-5.23l5.01-5.07s10.1-10.2,10.13-10.23c0,0,15.34-15.07,15.37-15.11l5.16-4.94,10.37-9.87c2.37-2.22,4.71-4.38,7.04-6.54,1.19-1.09,5.52-5.1,5.52-5.1,2.85-2.63,5.79-5.35,8.78-8l10.64-9.53c1.81-1.64,3.69-3.27,5.51-4.84,0,0,13.63-11.83,13.66-11.86l13.76-11.58c3.16-2.68,6.43-5.34,9.59-7.9,0,0,4.17-3.39,5.42-4.41,2.48-2.02,4.97-4.05,7.47-6.05,0,0,17.15-13.49,17.19-13.52l5.74-4.37,11.5-8.73c2.65-1.99,5.28-3.92,7.92-5.85,1.28-.94,2.56-1.87,3.83-2.81l5.84-4.28s3.01-2.2,3.04-2.22l2.95-2.09,11.82-8.37c3.41-2.44,6.94-4.84,10.35-7.16,0,0,13.77-9.37,13.81-9.4l12.11-7.96,6.07-3.98c1.42-.94,2.9-1.87,4.37-2.8,0,0,17.31-10.93,17.36-10.95l9.31-5.66c1.47-.89,2.92-1.77,4.36-2.64,2.71-1.64,5.41-3.29,8.13-4.91l12.63-7.36c2.13-1.24,4.63-1.65,7.03-1.16.19.04.38.08.57.13,2.57.68,4.76,2.36,6.09,4.66l18.52,32.01c2.76,4.77,1.14,10.88-3.62,13.65l-12.2,7.1c-2.78,1.65-5.62,3.38-8.46,5.11l-3.46,2.1-6.03,3.66-2.92,1.78-14.85,9.36c-.7.45-1.46.92-2.21,1.4-1.19.75-2.39,1.5-3.56,2.28l-5.92,3.88-11.7,7.69-13.6,9.25c-3.1,2.11-6.31,4.3-9.37,6.49l-11.54,8.16-2.8,1.99-2.79,2.04-5.64,4.14c-1.24.91-2.49,1.83-3.74,2.75-2.5,1.83-5,3.67-7.48,5.53l-11.15,8.46-5.51,4.2-5.46,4.29-11.02,8.67c-2.61,2.09-5.26,4.25-7.92,6.41l-5.05,4.11c-2.8,2.28-5.7,4.63-8.45,6.97l-10.76,9.05-2.61,2.2-7.87,6.83-5.27,4.58c-1.75,1.52-3.45,2.99-5.12,4.49l-10.43,9.34c-2.87,2.54-5.72,5.18-8.47,7.73l-5.16,4.77c-2.25,2.08-4.5,4.15-6.74,6.25l-10.03,9.55-4.97,4.75-14.79,14.53-14.57,14.73-4.77,4.95-9.56,9.95-14.11,15.1-4.63,5.08-9.25,10.19-9.13,10.31c-2.46,2.77-6.11,3.86-9.5,3.17Z"/>
            <path class="cls-2" d="M3693.35,1362.33l9.39-10.61,9.53-10.51,4.77-5.24,4.85-5.2,9.7-10.38,9.85-10.27,4.94-5.13,5.01-5.07,10.03-10.13,10.18-10.01,5.09-5,5.16-4.94,10.35-9.86c3.47-3.26,7-6.49,10.5-9.74,3.51-3.23,7-6.49,10.58-9.66l10.68-9.57c1.77-1.6,3.58-3.17,5.39-4.74l5.42-4.71,5.42-4.7,2.72-2.35,2.75-2.32,11-9.26c3.65-3.1,7.39-6.11,11.11-9.14,3.73-3.02,7.43-6.07,11.18-9.07l11.33-8.91,5.67-4.46,5.74-4.37,11.49-8.73c3.85-2.89,7.75-5.72,11.63-8.58l5.82-4.27,2.91-2.13,2.95-2.09,11.81-8.36c3.92-2.8,7.92-5.51,11.91-8.22l11.97-8.15,12.11-7.96,6.06-3.97c2.02-1.33,4.07-2.6,6.11-3.9l12.27-7.74,3.07-1.94,3.1-1.89,6.2-3.77c4.14-2.5,8.26-5.03,12.42-7.51l12.55-7.31,18.52,32.01-12.2,7.1c-4.04,2.4-8.06,4.87-12.07,7.3l-6.03,3.66-3.01,1.84-2.99,1.88-11.93,7.53c-1.98,1.27-3.99,2.49-5.95,3.79l-5.89,3.86-11.78,7.74-11.64,7.92c-3.88,2.65-7.77,5.27-11.59,8l-11.49,8.13-2.87,2.04-2.84,2.07-5.67,4.16c-3.77,2.78-7.57,5.53-11.32,8.34l-11.19,8.49-5.58,4.26-5.52,4.33-11.03,8.68c-3.65,2.92-7.26,5.89-10.89,8.83-3.62,2.95-7.26,5.88-10.82,8.91l-10.72,9.01-2.68,2.26-2.64,2.29-5.28,4.59-5.27,4.59c-1.76,1.53-3.52,3.06-5.25,4.61l-10.4,9.32c-3.49,3.09-6.88,6.26-10.3,9.42-3.41,3.16-6.84,6.3-10.23,9.48l-10.09,9.61-5.03,4.81-4.97,4.88-9.92,9.75-9.77,9.88-4.89,4.94-4.82,5-9.62,10.01-9.47,10.13-4.73,5.07-4.67,5.12-9.31,10.26-9.17,10.36-27.76-24.44h.03s0,0,0,0Z"/>
            <path class="cls-2" d="M4121.27,1614.05c-2.03-.41-3.89-1.45-5.32-2.99l-382.38-411.22c-3.76-4.04-3.53-10.36.5-14.12,40.08-37.37,83.22-73.27,128.22-106.7,2.13-1.58,4.8-2.25,7.43-1.87.18.03.36.06.53.09h0s0,0,0,0c2.59.53,4.81,2.04,6.25,4.14l334.25,450.75c3.29,4.43,2.36,10.68-2.06,13.98-27.83,20.71-54.27,42.74-78.6,65.45-1.94,1.81-4.52,2.78-7.18,2.68-.56-.02-1.11-.09-1.65-.2Z"/>
            <path class="cls-2" d="M3868.25,1087.03l334.47,451.05c-27.4,20.4-53.98,42.38-79.45,66.16l-382.38-411.22c40.15-37.44,82.76-72.85,127.37-105.99h0Z"/>
          </g>
          <g>
            <path class="cls-2" d="M4241.52,1420.71c-.19-.04-.37-.08-.56-.13-2.57-.68-4.77-2.36-6.1-4.66l-18.51-32.02c-1.22-2.12-1.63-4.61-1.14-7.01.57-2.79,2.31-5.22,4.76-6.66l4.59-2.68c1.06-.61,2.05-1.16,3.04-1.71l11.03-6.16s2.46-1.36,2.51-1.39l2.35-1.25,4.66-2.49c1.22-.65,2.41-1.29,3.6-1.93,1.95-1.04,3.89-2.08,5.85-3.11.03-.02,14.23-7.26,14.23-7.26,1.07-.56,2.16-1.09,3.25-1.61.55-.27,1.11-.53,1.66-.81l.1-.05c1.77-.86,3.54-1.72,5.31-2.58,4.55-2.22,9.26-4.52,14.02-6.67,25.88-12.05,52.54-23.1,79.26-32.86,53.12-19.31,109.23-34.45,166.76-45.01,1.3-.24,2.58-.21,3.8.03,3.88.79,7.08,3.86,7.84,8l6.68,36.38c1,5.43-2.6,10.64-8.03,11.64-54.44,10-107.45,24.3-157.55,42.51-25.26,9.23-50.41,19.65-74.72,30.98-.04.02-.08.04-.12.05-4.4,1.98-8.88,4.17-13.21,6.29-1.65.81-3.3,1.61-4.96,2.41-.51.25-1.11.54-1.7.82-.88.42-1.76.85-2.62,1.29l-4.61,2.36-9.07,4.62c-1.64.86-3.28,1.74-4.91,2.62-1.34.72-2.67,1.44-4.02,2.14l-6.65,3.55-12.34,6.89c-1.03.57-2.06,1.14-3.09,1.73l-4.36,2.54c-2.13,1.24-4.64,1.65-7.04,1.16Z"/>
            <path class="cls-2" d="M4225.01,1378.88l4.59-2.68c1.54-.88,3.09-1.73,4.63-2.6l9.27-5.18,2.33-1.29,2.35-1.25,4.69-2.5c3.12-1.66,6.24-3.35,9.38-4.99l9.46-4.83,4.73-2.41c1.57-.82,3.18-1.56,4.77-2.34,6.37-3.08,12.7-6.26,19.15-9.17,25.67-11.96,51.85-22.82,78.52-32.55,53.35-19.39,108.58-34.19,165.13-44.57l6.68,36.38c-54.61,10.03-107.83,24.29-159.16,42.95-25.65,9.37-50.84,19.81-75.53,31.31-6.2,2.8-12.29,5.86-18.42,8.82-1.52.75-3.08,1.46-4.58,2.25l-4.55,2.33-9.1,4.63c-3.02,1.58-6,3.21-9.01,4.8l-4.51,2.41-2.26,1.2-2.23,1.25-8.93,4.98c-1.49.83-2.98,1.65-4.46,2.5l-4.42,2.58-18.51-32.02v-.02s0,0,0,0Z"/>
            <path class="cls-2" d="M4063.06,1112.05c-.19-.04-.38-.08-.57-.13-2.57-.68-4.76-2.36-6.09-4.66l-18.51-32.02c-1.44-2.49-1.74-5.47-.82-8.19.81-2.41,2.5-4.41,4.72-5.61l6.04-3.51c1.6-.91,3.14-1.78,4.68-2.64l14.48-8.08s3.28-1.82,3.32-1.84l9.61-5.15c1.65-.87,3.26-1.74,4.87-2.6,2.68-1.43,5.36-2.86,8.05-4.27l19.51-9.96c1.48-.76,3.02-1.51,4.55-2.26.7-.34,7.38-3.6,7.38-3.6,6.9-3.37,14.03-6.84,21.18-10.11,35.24-16.42,71.61-31.5,108.03-44.77,71.77-26.1,147.22-46.5,224.27-60.64,1.3-.24,2.58-.21,3.8.03,3.88.79,7.08,3.86,7.84,8l6.68,36.38c1,5.43-2.6,10.64-8.03,11.64-73.95,13.57-146.31,33.13-215.07,58.14-34.95,12.75-69.78,27.18-103.51,42.9-6.7,3.05-13.41,6.32-19.89,9.49-1.81.89-6.74,3.29-7.42,3.62-1.38.67-2.76,1.34-4.12,2.04l-6.37,3.24-12.57,6.42c-2.58,1.35-5.24,2.77-7.9,4.19-1.48.79-2.96,1.58-4.44,2.37l-9.24,4.94-3.02,1.68-14.38,8.02c-1.33.74-2.67,1.49-4,2.25l-6.05,3.52c-2.13,1.24-4.63,1.64-7.03,1.15Z"/>
            <path class="cls-2" d="M4046.58,1070.21l6.28-3.65c2.1-1.2,4.22-2.37,6.33-3.56l12.68-7.08,3.18-1.76,3.2-1.71,6.41-3.43c4.28-2.27,8.54-4.57,12.83-6.82l12.94-6.61,6.47-3.3c2.16-1.11,4.35-2.14,6.51-3.21,8.71-4.23,17.4-8.54,26.21-12.56,35.14-16.37,70.96-31.23,107.31-44.47,72.72-26.45,147.45-46.4,222.65-60.2l6.68,36.38c-73.26,13.45-145.97,32.86-216.69,58.58-35.34,12.89-70.17,27.32-104.32,43.24-8.57,3.9-17.01,8.1-25.48,12.21-2.11,1.04-4.24,2.04-6.33,3.13l-6.3,3.2-12.58,6.42c-4.17,2.18-8.31,4.42-12.48,6.63l-6.23,3.33-3.12,1.67-3.09,1.72-12.34,6.88c-2.05,1.15-4.11,2.28-6.16,3.46l-6.1,3.55-18.51-32.02h.03s0-.01,0-.01Z"/>
            <path class="cls-2" d="M4371.19,1449.32c-3.09-.63-5.84-2.71-7.19-5.83l-222.95-515.38c-1.05-2.44-1.1-5.19-.12-7.66s2.9-4.44,5.34-5.49c26.31-11.32,52.73-21.84,78.53-31.25,26.79-9.67,53.7-18.58,80.01-26.49,1.6-.48,3.27-.55,4.88-.22.95.19,1.87.53,2.74.99,2.34,1.26,4.08,3.4,4.84,5.94l160.86,538c1.58,5.28-1.42,10.85-6.7,12.44-15.38,4.63-31.48,9.96-47.83,15.83-15.04,5.5-30.7,11.74-46.48,18.51-1.94.83-4.01,1-5.93.61Z"/>
            <path class="cls-2" d="M4307.7,866.8l160.86,538c-16.3,4.91-32.4,10.28-48.33,16-15.88,5.81-31.55,12.08-47.05,18.73l-222.95-515.38c25.74-11.08,51.75-21.46,78.01-31.04,26.29-9.49,52.79-18.29,79.46-26.31h0Z"/>
          </g>
          <g>
            <path class="cls-2" d="M4549.08,1308.63c-3.88-.79-7.08-3.86-7.84-8l-6.67-36.38c-.72-3.94.98-7.94,4.32-10.15,1.12-.74,2.4-1.26,3.72-1.5,55.84-10.23,114.54-16.39,174.49-18.29,28.87-.92,58.82-.88,89.01.13,28.42.97,58.59,2.97,89.7,5.94.35.03.7.09,1.05.16,2.23.46,4.25,1.66,5.71,3.43,1.69,2.05,2.5,4.68,2.24,7.32l-3.53,36.82c-.53,5.5-5.41,9.53-10.9,9-30.02-2.86-59.04-4.78-86.23-5.71-28.94-.97-57.62-1.01-85.24-.13-57.11,1.82-112.97,7.66-166.04,17.38-1.3.24-2.58.21-3.8-.04Z"/>
            <path class="cls-2" d="M4544.42,1262.44c56.56-10.37,114.42-16.27,173-18.13,29.3-.94,58.77-.86,88.36.13,29.6,1.01,59.31,3.06,89.08,5.9l-3.53,36.82c-29.05-2.77-58.03-4.76-86.84-5.75-28.81-.96-57.46-1.04-85.9-.13-56.88,1.81-112.9,7.54-167.53,17.54l-6.67-36.38h.01Z"/>
            <path class="cls-2" d="M4484.85,957.94c-3.88-.79-7.08-3.86-7.84-8l-6.67-36.38c-.23-1.26-.22-2.55.04-3.8.82-4,3.98-7.11,8-7.85,73.25-13.42,149.75-21.48,227.39-23.94,36.77-1.18,74.69-1.12,112.7.17,35.91,1.22,72.31,3.62,111.3,7.34.35.03.71.09,1.05.16,2.23.46,4.25,1.66,5.71,3.43,1.69,2.05,2.5,4.68,2.24,7.32l-3.53,36.82c-.53,5.5-5.41,9.53-10.9,9-37.12-3.54-73.41-5.93-107.83-7.12-36.62-1.24-73.27-1.29-108.92-.15-74.84,2.38-148.5,10.13-218.93,23.04-1.3.24-2.58.21-3.8-.04Z"/>
            <path class="cls-2" d="M4480.18,911.75c75.22-13.78,150.88-21.4,225.9-23.78,37.52-1.2,74.89-1.09,112.04.17,37.15,1.27,74.04,3.81,110.69,7.3l-3.53,36.82c-35.92-3.42-72.07-5.91-108.44-7.16-36.37-1.23-72.92-1.32-109.58-.15-73.32,2.33-147.13,9.77-220.42,23.2l-6.67-36.38h0Z"/>
            <path class="cls-2" d="M4665.62,1378.01c-1.63-.33-3.16-1.07-4.45-2.16-2.04-1.72-3.3-4.18-3.52-6.84l-44.97-559.73c-.44-5.48,3.63-10.3,9.11-10.77,0,0,5.17-.44,5.22-.45l5.05-.36,10.13-.69,10.39-.7c3.29-.22,6.68-.45,10.09-.6,2.85-.14,5.76-.28,8.67-.43,10.42-.52,21.2-1.06,31.82-1.31,2.02-.06,4.09-.12,6.15-.18,4.66-.14,9.33-.28,13.98-.38l20.15-.24s10.14-.11,10.19-.11l9.99.05,20,.14c.46,0,.92.04,1.37.1.19.03.38.06.57.1,4.68.95,8.07,5.11,8,9.94l-7.85,561.48c-.08,5.49-4.57,9.9-10.06,9.86l-13.68-.09-6.74-.05-6.7.09-13.56.15c-2.74.06-5.46.15-8.18.24-1.75.06-3.49.11-5.25.16-6.15.12-12.33.43-18.31.73-2.82.14-5.64.28-8.47.41-1.9.07-3.74.2-5.69.34l-7.44.51-9.93.66-3.21.28c-.97.09-1.94.03-2.88-.16Z"/>
            <path class="cls-2" d="M4783.58,803.26l-7.85,561.48-13.68-.09-6.84-.05-6.81.09-13.61.15c-4.52.11-9.02.27-13.53.4-9.04.18-17.96.75-26.93,1.15-2.24.08-4.47.25-6.7.41l-6.68.45-6.68.44-3.34.23-3.32.29-44.97-559.73,5.07-.43,5.05-.36,10.11-.69,10.11-.68c3.37-.23,6.74-.46,10.1-.6,13.44-.64,26.92-1.41,40.31-1.73,6.7-.19,13.42-.42,20.11-.57l20.05-.24,10.02-.11,9.99.05,19.98.14h0Z"/>
          </g>
          <g>
            <path class="cls-2" d="M4889.8,1297c-2.23-.46-4.25-1.66-5.71-3.43-1.69-2.05-2.5-4.68-2.25-7.33l3.49-36.38c.14-2.64,1.31-5.12,3.28-6.9,2.08-1.88,4.86-2.81,7.65-2.55,0,0,11.24,1.06,11.27,1.07,2.35.25,4.7.52,7.05.78,1.39.16,2.79.32,4.18.47l11.18,1.25s5.7.64,5.76.65l5.59.72s22.48,2.93,22.53,2.94l22.38,3.27c29.29,4.51,59.56,9.9,90.06,16.04,35.47,7.16,70.76,13.45,104.91,18.7l26.47,3.87c6.39.86,12.79,1.69,19.2,2.51l14.02,1.81,6.63.76s16.42,1.85,17.94,2.02c2.93.33,5.86.66,8.8.97l13.39,1.28c.35.03.7.09,1.05.16,2.23.46,4.25,1.66,5.71,3.43,1.69,2.05,2.49,4.68,2.24,7.32l-3.54,36.82c-.53,5.5-5.41,9.52-10.91,9,0,0-13.8-1.32-13.84-1.32-2.85-.3-5.7-.62-8.54-.94-1.73-.19-18.88-2.12-18.88-2.12,0,0-6.95-.8-7-.8l-14.86-1.92c-6.4-.83-12.81-1.65-19.2-2.51-.04,0-27.2-3.97-27.2-3.97-35.04-5.38-71.26-11.83-107.74-19.19-29.68-5.98-59.03-11.21-87.24-15.55l-21.74-3.18-27.16-3.53-19.9-2.24c-2.4-.27-4.79-.54-7.19-.8l-10.84-1.02c-.36-.03-.71-.09-1.06-.16Z"/>
            <path class="cls-2" d="M4895.33,1250.38l11.16,1.05c3.73.39,7.45.84,11.18,1.25l11.18,1.25,5.59.63,5.59.72,22.37,2.91,22.38,3.27c29.84,4.59,59.7,9.94,89.53,15.95,34.86,7.04,69.99,13.34,105.36,18.78l26.6,3.89c8.89,1.2,17.8,2.33,26.71,3.48l6.68.86,6.7.77,13.42,1.51c4.47.49,8.94,1.02,13.42,1.49l13.47,1.29-3.54,36.82-13.73-1.31c-4.57-.48-9.12-1.02-13.68-1.52l-13.68-1.54-6.83-.78-6.8-.88c-9.07-1.18-18.15-2.33-27.21-3.54l-27.09-3.96c-36.03-5.53-71.76-11.95-107.21-19.1-29.25-5.89-58.49-11.14-87.7-15.63l-21.89-3.2-21.86-2.84-5.47-.71-5.46-.61-10.91-1.23c-3.64-.41-7.28-.83-10.92-1.22l-10.89-1.03,3.54-36.82h0s0-.01,0-.01Z"/>
            <path class="cls-2" d="M4923.83,942.08c-2.23-.46-4.25-1.66-5.71-3.43-1.69-2.05-2.49-4.68-2.24-7.32l3.54-36.82c.27-2.82,1.73-5.4,4.01-7.08,2.12-1.57,4.77-2.23,7.37-1.86l13.28,1.27c2.98.31,5.85.64,8.73.96,1.7.19,18.8,2.11,18.8,2.11,0,0,6.95.8,6.99.8l14.87,1.92c6.4.82,12.8,1.65,19.19,2.51.04,0,27.2,3.97,27.2,3.97,35.04,5.38,71.26,11.83,107.74,19.19,29.68,5.98,59.04,11.21,87.24,15.55l21.74,3.18,27.16,3.53,19.89,2.24c2.4.27,4.8.54,7.19.8l10.84,1.02c.36.03.71.09,1.06.16,2.23.46,4.25,1.66,5.71,3.43,1.69,2.05,2.5,4.68,2.25,7.32l-3.54,36.82c-.53,5.49-5.4,9.52-10.9,9,0,0-11.24-1.06-11.27-1.07-2.33-.25-4.67-.51-7-.78-1.41-.16-2.82-.32-4.22-.48l-11.19-1.25s-5.7-.64-5.76-.65l-5.59-.72s-22.48-2.93-22.53-2.94l-22.38-3.27c-29.29-4.51-59.56-9.9-90.06-16.04-35.47-7.16-70.76-13.45-104.91-18.7l-26.47-3.87c-6.4-.86-12.8-1.69-19.22-2.52l-14-1.81-6.63-.76s-16.42-1.85-17.94-2.02c-2.93-.33-5.86-.66-8.8-.97l-13.39-1.28c-.35-.03-.7-.09-1.05-.16Z"/>
            <path class="cls-2" d="M4929.38,895.48l13.73,1.31c4.57.48,9.12,1.02,13.68,1.52l13.68,1.54,6.83.78,6.8.88c9.07,1.18,18.15,2.33,27.21,3.54l27.09,3.96c36.03,5.53,71.76,11.95,107.21,19.1,29.25,5.89,58.49,11.14,87.7,15.63l21.89,3.2,21.86,2.84,5.47.71,5.46.61,10.91,1.23c3.64.41,7.28.83,10.92,1.22l10.89,1.03-3.54,36.82-11.16-1.05c-3.73-.39-7.45-.84-11.18-1.25l-11.18-1.25-5.59-.63-5.59-.72-22.37-2.91-22.38-3.27c-29.84-4.59-59.7-9.94-89.53-15.95-34.86-7.04-69.99-13.34-105.36-18.78l-26.6-3.89c-8.89-1.2-17.8-2.33-26.71-3.48l-6.68-.86-6.7-.77-13.42-1.51c-4.47-.49-8.94-1.02-13.42-1.49l-13.47-1.29,3.54-36.82h0s0,.01,0,.01Z"/>
            <path class="cls-2" d="M4991.22,1395.18c-2.47-.5-4.67-1.93-6.14-3.99-1.55-2.17-2.17-4.86-1.72-7.48l93.72-553.65c.92-5.43,6.06-9.1,11.49-8.2,0,0,4.84.8,4.88.81l14.2,2.54s18.99,3.42,19.03,3.42c9.23,1.76,18.57,3.6,27.61,5.38l10.05,1.98,28.38,5.54,21.24,3.81,3.48.63,3.46.57c.13.02.26.04.38.07,2.47.5,4.67,1.93,6.14,3.99,1.55,2.17,2.17,4.86,1.72,7.48l-93.72,553.65c-.92,5.43-6.06,9.1-11.49,8.2,0,0-4.84-.8-4.88-.81l-14.2-2.54s-18.99-3.42-19.03-3.42c-9.23-1.76-18.57-3.6-27.61-5.38l-10.05-1.98-28.38-5.54-21.24-3.81-3.48-.63-3.46-.57c-.13-.02-.26-.04-.38-.07Z"/>
            <path class="cls-2" d="M5219.27,856.4l-93.72,553.65-4.76-.79-4.73-.84-9.46-1.7-18.92-3.4c-12.56-2.39-25.07-4.88-37.6-7.34l-28.46-5.56-14.21-2.54-7.1-1.28-3.55-.64-3.55-.58,93.72-553.65,4.76.79,4.73.84,9.46,1.7,18.92,3.4c12.56,2.39,25.07,4.88,37.6,7.34l28.46,5.56,14.21,2.54,7.1,1.28,3.55.64,3.55.58h0Z"/>
          </g>
          <g>
            <path class="cls-2" d="M5281.7,1356.15c-2.23-.46-4.25-1.66-5.71-3.43-1.69-2.05-2.5-4.68-2.24-7.32l3.54-36.91c.57-5.48,5.46-9.46,10.94-8.91.14.01.27.03.41.05,36.96,3.52,73.09,5.9,107.38,7.07,36.62,1.24,73.27,1.29,108.92.15,74.84-2.38,148.49-10.13,218.93-23.04,1.3-.24,2.58-.21,3.8.04,3.88.79,7.08,3.86,7.84,8l6.67,36.38c.48,2.61-.1,5.3-1.61,7.48-1.51,2.18-3.82,3.68-6.43,4.16-73.25,13.42-149.76,21.48-227.39,23.94-36.77,1.18-74.69,1.12-112.7-.17-35.9-1.22-72.31-3.62-111.3-7.34-.35-.03-.71-.09-1.05-.16Z"/>
            <path class="cls-2" d="M5287.22,1309.54c35.92,3.42,72.07,5.91,108.44,7.16,36.37,1.23,72.92,1.32,109.58.15,73.32-2.33,147.13-9.77,220.42-23.2l6.67,36.38c-75.22,13.78-150.88,21.4-225.9,23.78-37.52,1.2-74.89,1.09-112.04-.17-37.15-1.27-74.04-3.81-110.69-7.3l3.53-36.82h0Z"/>
            <path class="cls-2" d="M5315.65,1001.24c-2.23-.46-4.25-1.66-5.71-3.43-1.69-2.05-2.5-4.68-2.24-7.32l3.49-36.44c.18-3.09,1.79-5.99,4.47-7.76h.01c2.06-1.37,4.52-1.9,6.88-1.57,29.87,2.84,58.74,4.74,85.8,5.67,28.94.97,57.62,1.01,85.24.13,57.11-1.82,112.97-7.66,166.04-17.38,1.3-.24,2.58-.21,3.8.04,3.88.79,7.08,3.86,7.84,8l6.67,36.38c.48,2.61-.1,5.3-1.61,7.48-1.51,2.18-3.82,3.68-6.43,4.16-55.83,10.23-114.54,16.39-174.49,18.29-28.86.92-58.81.88-89.01-.13-28.42-.97-58.59-2.97-89.7-5.94-.35-.03-.7-.09-1.05-.16Z"/>
            <path class="cls-2" d="M5321.16,954.63c29.05,2.77,58.03,4.76,86.84,5.75,28.81.96,57.46,1.04,85.9.13,56.88-1.81,112.9-7.54,167.53-17.54l6.67,36.38c-56.56,10.37-114.42,16.27-173,18.13-29.3.94-58.77.86-88.36-.13-29.6-1.01-59.31-3.06-89.08-5.9l3.53-36.82h-.01Z"/>
            <path class="cls-2" d="M5426.94,1448.32c-1.94-.4-3.74-1.36-5.14-2.8-1.86-1.9-2.89-4.47-2.85-7.14l7.85-561.48c.08-5.49,4.57-9.9,10.06-9.86l13.68.09,6.74.05,6.7-.09,13.56-.15c2.73-.07,5.45-.15,8.17-.24,1.75-.05,3.5-.11,5.25-.16,6.15-.12,12.34-.43,18.33-.73,2.82-.14,5.63-.28,8.45-.41,1.9-.07,3.74-.2,5.69-.34l7.44-.51,6.7-.44,3.22-.22,3.2-.28c.97-.09,1.94-.03,2.88.16h.01c4.57.93,7.84,4.88,7.99,9.46l44.93,559.27c.44,5.49-3.63,10.3-9.12,10.77,0,0-5.17.44-5.22.45l-5.05.36-10.14.69-10.34.7c-3.3.23-6.72.46-10.14.6-2.83.14-5.73.28-8.63.43-10.44.52-21.23,1.06-31.86,1.31-1.98.06-4.02.12-6.06.18-4.69.14-9.39.29-14.07.39l-20.15.24s-10.14.11-10.2.11l-9.99-.05-19.99-.14c-.65,0-1.3-.07-1.93-.2Z"/>
            <path class="cls-2" d="M5544.88,873.57l44.97,559.73-5.07.43-5.05.36-10.11.69-10.11.68c-3.37.23-6.74.46-10.1.6-13.44.64-26.92,1.41-40.31,1.73-6.7.19-13.42.42-20.11.57l-20.05.24-10.02.11-9.99-.05-19.98-.14,7.85-561.48,13.68.09,6.84.05,6.81-.09,13.61-.15c4.52-.11,9.02-.27,13.53-.4,9.04-.18,17.96-.75,26.93-1.15,2.24-.08,4.47-.25,6.7-.41l6.68-.45,6.68-.44,3.34-.23,3.32-.29h0s0,0,0,0Z"/>
          </g>
          <g>
            <path class="cls-2" d="M5730.93,1339.72c-3.88-.79-7.08-3.86-7.84-8l-6.58-35.85c-.95-3.94.58-8.14,3.99-10.53l.02-.02c1.33-.93,2.84-1.5,4.39-1.71,73.77-13.57,145.96-33.1,214.58-58.05,34.95-12.75,69.78-27.18,103.51-42.9,6.69-3.05,13.39-6.31,19.86-9.48,1.82-.89,6.79-3.31,7.48-3.65,1.37-.66,2.74-1.33,4.08-2.03l6.37-3.24,12.57-6.42c2.6-1.36,5.28-2.79,7.96-4.22,1.46-.78,10.58-5.65,10.58-5.65l3.04-1.63,17.45-9.73c1.32-.73,2.64-1.47,3.95-2.22l6.05-3.52c2.13-1.24,4.63-1.64,7.03-1.15.19.04.38.08.57.13,2.57.68,4.76,2.36,6.09,4.66l18.51,32.02c2.76,4.77,1.14,10.88-3.63,13.65l-6.28,3.65c-1.6.91-3.14,1.78-4.68,2.64l-14.48,8.08s-3.28,1.82-3.32,1.84l-9.61,5.15c-1.64.87-3.24,1.73-4.85,2.58-2.69,1.44-5.37,2.87-8.07,4.28l-13.03,6.66-6.49,3.31c-1.47.76-3.01,1.51-4.55,2.25-.7.34-1.39.68-2.08,1.02l-5.27,2.57c-6.91,3.37-14.05,6.85-21.21,10.12-35.24,16.42-71.61,31.5-108.03,44.77-71.77,26.1-147.22,46.5-224.27,60.64-1.3.24-2.58.21-3.8-.03Z"/>
            <path class="cls-2" d="M5726.22,1293.55c73.26-13.45,145.97-32.86,216.69-58.58,35.34-12.89,70.17-27.32,104.32-43.24,8.57-3.9,17.01-8.1,25.48-12.21,2.11-1.04,4.24-2.04,6.33-3.13l6.3-3.2,12.58-6.42c4.17-2.18,8.31-4.42,12.48-6.63l6.23-3.33,3.12-1.67,3.09-1.72,12.34-6.88c2.05-1.15,4.11-2.28,6.16-3.46l6.1-3.55,18.51,32.02-6.28,3.65c-2.1,1.2-4.22,2.37-6.33,3.56l-12.68,7.08-3.18,1.76-3.2,1.71-6.41,3.43c-4.28,2.27-8.54,4.57-12.83,6.82l-12.94,6.61-6.48,3.3c-2.16,1.11-4.35,2.14-6.51,3.21-8.71,4.23-17.4,8.54-26.21,12.56-35.14,16.37-70.96,31.23-107.31,44.47-72.72,26.45-147.45,46.4-222.65,60.2l-6.68-36.38-.02.02h0Z"/>
            <path class="cls-2" d="M5666.53,989.05c-3.88-.79-7.08-3.86-7.84-8l-6.56-35.75c-.2-.81-.3-1.65-.29-2.52.02-2.42.91-4.66,2.39-6.39,1.59-1.87,3.84-3.13,6.36-3.45,54.25-9.99,107.07-24.26,157-42.41,25.26-9.23,50.41-19.65,74.72-30.98.04-.02.08-.04.12-.05,4.4-1.98,8.88-4.18,13.22-6.3,1.65-.81,3.3-1.61,4.95-2.41.51-.25,1.1-.54,1.69-.82.88-.42,1.76-.85,2.63-1.3l4.61-2.36,9.07-4.62c1.65-.86,3.29-1.74,4.93-2.62,1.33-.72,2.66-1.43,4-2.14l6.65-3.55,12.4-6.92c1.01-.56,2.02-1.12,3.03-1.7l4.36-2.55c2.13-1.24,4.64-1.65,7.04-1.16.19.04.37.08.56.13,2.57.68,4.77,2.36,6.1,4.66l18.51,32.02c2.76,4.77,1.14,10.87-3.62,13.64l-4.59,2.68c-1.06.61-2.06,1.16-3.06,1.72,0,0-13.45,7.51-13.51,7.54l-2.35,1.25-4.66,2.49c-1.24.66-2.45,1.31-3.66,1.96-1.92,1.03-3.85,2.06-5.79,3.08-.03.02-14.22,7.26-14.22,7.26-1.14.6-2.23,1.12-3.29,1.63-.54.26-1.09.52-1.63.79l-.09.05c-1.78.86-3.56,1.73-5.34,2.6-4.54,2.22-9.23,4.51-13.99,6.66-25.87,12.05-52.54,23.1-79.26,32.86-53.13,19.31-109.23,34.45-166.76,45.01-1.3.24-2.58.21-3.8-.03Z"/>
            <path class="cls-2" d="M5661.84,942.88c54.61-10.03,107.83-24.29,159.16-42.95,25.65-9.37,50.84-19.81,75.53-31.31,6.2-2.8,12.29-5.86,18.42-8.82,1.52-.75,3.08-1.46,4.58-2.25l4.55-2.33,9.1-4.63c3.02-1.58,6-3.21,9.01-4.8l4.51-2.41,2.26-1.2,2.23-1.25,8.93-4.98c1.49-.83,2.98-1.65,4.46-2.5l4.42-2.58,18.51,32.02-4.59,2.68c-1.54.88-3.09,1.73-4.63,2.6l-9.27,5.18-2.32,1.29-2.35,1.25-4.69,2.5c-3.12,1.66-6.24,3.35-9.38,4.99l-9.46,4.83-4.73,2.41c-1.57.82-3.18,1.56-4.77,2.34-6.37,3.08-12.7,6.26-19.15,9.17-25.67,11.96-51.85,22.82-78.52,32.55-53.35,19.39-108.58,34.19-165.13,44.57l-6.68-36.38v.02s-.02,0-.02,0Z"/>
            <path class="cls-2" d="M5902.81,1384.78c-.95-.19-1.87-.53-2.74-.99-2.34-1.26-4.08-3.4-4.84-5.94l-160.86-538c-1.58-5.28,1.42-10.85,6.7-12.44,15.38-4.63,31.48-9.96,47.83-15.83,15.05-5.5,30.7-11.74,46.48-18.51,1.94-.83,4.01-1,5.93-.61,3.09.63,5.84,2.71,7.19,5.83l222.95,515.38c1.05,2.44,1.1,5.19.12,7.66s-2.9,4.44-5.34,5.49c-26.31,11.32-52.74,21.84-78.53,31.25-26.78,9.67-53.69,18.58-80.01,26.49-1.6.48-3.27.55-4.88.22Z"/>
            <path class="cls-2" d="M5839.33,802.26l222.95,515.38c-25.74,11.08-51.75,21.46-78.01,31.04-26.29,9.49-52.79,18.29-79.46,26.31l-160.86-538c16.3-4.91,32.4-10.28,48.33-16,15.88-5.81,31.55-12.08,47.05-18.73Z"/>
          </g>
          <g>
            <path class="cls-2" d="M6164.45,1181.06c-.19-.04-.38-.08-.57-.13-2.57-.68-4.76-2.36-6.09-4.66l-18.35-31.71c-.69-1.1-1.17-2.35-1.39-3.69-.67-4.09,1.24-8.18,4.83-10.27l12.2-7.1c2.77-1.65,5.6-3.37,8.43-5.09l9.53-5.78,2.92-1.78,2.93-1.84,11.92-7.52c.71-.45,1.47-.93,2.22-1.41,1.19-.75,2.38-1.49,3.55-2.27l5.92-3.88,11.69-7.69,13.56-9.23c3.11-2.12,6.34-4.32,9.4-6.51l11.54-8.16,2.8-1.99,2.79-2.04,5.64-4.14c1.24-.91,2.49-1.83,3.74-2.75,2.5-1.83,5-3.67,7.48-5.53l11.14-8.46,5.51-4.2,5.46-4.29,11.02-8.67c2.57-2.06,5.19-4.19,7.81-6.33l5.16-4.2c2.8-2.27,5.69-4.62,8.44-6.96l10.77-9.05,2.61-2.2,7.87-6.83,5.27-4.58c1.72-1.5,3.44-2.98,5.12-4.5l10.43-9.34c2.86-2.53,5.7-5.16,8.45-7.71l5.16-4.77c2.25-2.08,4.51-4.16,6.75-6.26l10.03-9.55,4.97-4.75,4.92-4.83,9.86-9.7,14.57-14.73,4.77-4.95,9.56-9.95,9.42-10.08,4.68-5.02,4.63-5.08,9.25-10.19,9.13-10.31c2.46-2.77,6.11-3.86,9.5-3.17,1.65.34,3.24,1.1,4.6,2.29l27.76,24.44c1.99,1.76,3.21,4.23,3.37,6.89.17,2.65-.73,5.26-2.49,7.25,0,0-9.45,10.67-9.47,10.7l-9.53,10.5s-4.84,5.31-4.87,5.34l-4.85,5.2s-9.77,10.45-9.8,10.48l-9.85,10.27s-5.01,5.2-5.03,5.23l-5.01,5.07s-10.1,10.2-10.14,10.24c0,0-15.34,15.07-15.37,15.1l-5.16,4.94-10.37,9.87c-2.4,2.25-4.77,4.45-7.15,6.64l-5.42,5.01c-2.84,2.63-5.79,5.35-8.78,8l-10.64,9.53c-1.8,1.62-3.65,3.24-5.51,4.84,0,0-13.63,11.83-13.66,11.86l-2.75,2.32-11.01,9.26c-3.12,2.65-6.35,5.27-9.47,7.81,0,0-4.33,3.52-5.61,4.56-2.46,2-4.92,4.01-7.4,5.99,0,0-17.15,13.49-17.19,13.52l-5.74,4.37-11.5,8.73c-2.66,2-5.3,3.94-7.95,5.87-1.27.93-2.53,1.86-3.8,2.79,0,0-8.86,6.48-8.89,6.5l-2.95,2.09-11.82,8.37c-3.39,2.43-6.9,4.81-10.28,7.12,0,0-13.83,9.42-13.88,9.45l-12.11,7.96-6.07,3.98c-1.42.94-2.9,1.87-4.37,2.8,0,0-17.31,10.93-17.36,10.95l-9.31,5.66c-1.5.9-2.97,1.8-4.44,2.69-2.68,1.63-5.36,3.25-8.06,4.86l-12.63,7.36c-2.13,1.24-4.63,1.65-7.03,1.16Z"/>
            <path class="cls-2" d="M6147.91,1139.25l12.2-7.1c4.04-2.4,8.06-4.87,12.07-7.3l6.03-3.66,3.01-1.84,2.99-1.88,11.93-7.53c1.98-1.27,3.99-2.49,5.95-3.79l5.89-3.86,11.78-7.74,11.64-7.92c3.88-2.65,7.77-5.27,11.59-8l11.49-8.13,2.87-2.04,2.84-2.07,5.67-4.16c3.77-2.78,7.57-5.53,11.32-8.34l11.19-8.49,5.58-4.26,5.52-4.33,11.03-8.68c3.65-2.92,7.26-5.89,10.89-8.83,3.62-2.95,7.26-5.88,10.82-8.91l10.72-9.01,2.68-2.26,2.64-2.29,5.28-4.59,5.27-4.59c1.76-1.53,3.52-3.06,5.25-4.61l10.4-9.32c3.49-3.09,6.88-6.26,10.3-9.42,3.41-3.16,6.84-6.3,10.23-9.48l10.09-9.61,5.03-4.81,4.97-4.88,9.92-9.75,9.77-9.88,4.89-4.94,4.82-5,9.62-10.01,9.47-10.13,4.73-5.07,4.67-5.12,9.31-10.26,9.17-10.36,27.76,24.44-9.39,10.61-9.53,10.51-4.77,5.24-4.85,5.2-9.7,10.38-9.85,10.27-4.94,5.13-5.01,5.07-10.03,10.13-10.18,10.01-5.09,5-5.16,4.94-10.35,9.86c-3.47,3.26-7,6.49-10.5,9.74-3.51,3.23-7,6.49-10.58,9.66l-10.68,9.57c-1.78,1.6-3.58,3.17-5.39,4.74l-5.42,4.71-5.42,4.7-2.72,2.35-2.75,2.32-11,9.26c-3.65,3.1-7.39,6.11-11.11,9.14-3.73,3.02-7.43,6.07-11.18,9.07l-11.33,8.91-5.67,4.46-5.74,4.37-11.49,8.73c-3.85,2.89-7.75,5.72-11.63,8.58l-5.83,4.27-2.92,2.13-2.95,2.09-11.81,8.36c-3.92,2.8-7.92,5.51-11.91,8.22l-11.97,8.15-12.11,7.96-6.06,3.97c-2.02,1.33-4.07,2.6-6.11,3.9l-12.27,7.74-3.07,1.94-3.1,1.89-6.2,3.77c-4.14,2.5-8.26,5.03-12.42,7.51l-12.55,7.31-18.52-32.01h-.02s0,0,0,0Z"/>
            <path class="cls-2" d="M5985.83,872.45c-.19-.04-.38-.08-.57-.13-2.57-.68-4.76-2.36-6.09-4.66l-18.52-32.01c-2.5-4.33-1.43-9.84,2.52-12.91.59-.46,1.21-.83,1.85-1.14l8.07-4.7c1.65-.99,3.3-1.99,4.95-2.99,1.24-.76,2.48-1.51,3.73-2.26l6.46-3.91,10.76-6.8c.5-.32,1.04-.65,1.57-.99.85-.53,1.7-1.06,2.55-1.63l4.33-2.85,8.52-5.59,10.64-7.27c2.09-1.42,4.07-2.77,6.02-4.17l10.49-7.42,6.15-4.52c1.02-.75,2.05-1.51,3.09-2.26,1.71-1.25,3.43-2.5,5.13-3.78l12.2-9.28,3.99-3.15,8.07-6.34,10.06-8.17c1.98-1.61,3.86-3.13,5.69-4.7.03-.02,9.95-8.37,9.95-8.37l9.74-8.46c1.33-1.14,2.55-2.19,3.72-3.26l7.81-7.01c2.05-1.81,3.98-3.6,6.04-5.5l1.55-1.43c1.02-.94,2.06-1.91,3.11-2.87,1.49-1.38,2.99-2.76,4.47-4.15l11.24-10.72,3.68-3.62,7.43-7.29,7.32-7.41,3.65-3.69,10.83-11.27,7.15-7.65,3.56-3.8,10.56-11.62,6.96-7.88c2.46-2.78,6.11-3.87,9.5-3.18,1.65.34,3.24,1.1,4.6,2.29l27.76,24.44c1.99,1.76,3.21,4.23,3.37,6.88.17,2.65-.73,5.26-2.49,7.25,0,0-7.29,8.25-7.32,8.28l-7.33,8.07s-3.74,4.1-3.77,4.13c0,0-11.21,11.99-11.24,12.03,0,0-11.36,11.82-11.39,11.86l-3.82,3.85s-7.69,7.78-7.73,7.82l-7.73,7.59s-3.92,3.86-3.96,3.9l-11.75,11.2c-1.71,1.6-3.37,3.14-5.03,4.67-1,.92-4.53,4.19-4.53,4.19-2.14,1.98-4.34,4.03-6.61,6.03l-7.97,7.13c-1.15,1.05-2.38,2.11-3.61,3.18l-4.62,4.01s-6.16,5.36-6.2,5.39l-10.26,8.62c-2.08,1.78-4.18,3.48-6.21,5.13-.74.6-4.21,3.42-5.19,4.22-1.81,1.48-3.62,2.95-5.44,4.41l-8.5,6.68s-4.29,3.38-4.34,3.42l-4.26,3.23-8.51,6.47c-1.89,1.42-3.76,2.79-5.64,4.16-1.03.75-2.06,1.5-3.09,2.26,0,0-6.6,4.84-6.65,4.87l-2.18,1.53-8.7,6.16c-2.23,1.61-4.57,3.2-6.83,4.74,0,0-11,7.5-11.05,7.53l-13.36,8.77c-.97.65-2.02,1.31-3.07,1.96-.51.32-1.03.64-1.54.97,0,0-11.39,7.19-11.43,7.22l-2.27,1.38-4.58,2.77c-1.29.77-2.55,1.54-3.81,2.31-1.77,1.08-3.55,2.16-5.34,3.23-.03.02-9.28,5.4-9.28,5.4-2.13,1.24-4.63,1.65-7.03,1.16Z"/>
            <path class="cls-2" d="M5969.34,830.67l8.84-5.15c2.93-1.75,5.84-3.54,8.76-5.31l4.38-2.65,2.19-1.33,2.17-1.37,8.66-5.47c1.44-.92,2.9-1.8,4.33-2.75l4.28-2.82,8.58-5.63,8.48-5.79c2.82-1.93,5.67-3.83,8.46-5.84l8.4-5.94,2.1-1.48,2.08-1.53,4.15-3.05c2.76-2.04,5.55-4.04,8.3-6.1l8.21-6.24,4.11-3.12,4.06-3.2,8.12-6.38,8.04-6.52c2.67-2.18,5.37-4.32,8-6.58l7.94-6.68,1.98-1.67,1.96-1.7,3.92-3.4,3.92-3.4c1.31-1.13,2.63-2.26,3.9-3.43l7.75-6.95c2.6-2.3,5.14-4.68,7.69-7.03,2.55-2.37,5.11-4.7,7.65-7.09l7.57-7.21,3.78-3.61,3.73-3.67,7.48-7.33,7.37-7.47,3.69-3.73,3.64-3.79,7.29-7.58,7.2-7.71,3.6-3.85,3.55-3.91,7.11-7.82,7.01-7.93,27.76,24.44-7.23,8.18-7.33,8.07-3.67,4.03-3.72,3.98-7.43,7.95-7.53,7.83-3.76,3.92-3.82,3.85-7.63,7.72-7.73,7.59-3.86,3.8-3.92,3.73-7.83,7.46c-2.63,2.46-5.29,4.89-7.92,7.33-2.64,2.44-5.27,4.91-7.97,7.28l-8.03,7.19c-1.33,1.21-2.69,2.38-4.04,3.55l-4.07,3.53-4.06,3.53-2.04,1.77-2.06,1.73-8.23,6.91c-2.72,2.33-5.52,4.56-8.29,6.82-2.78,2.25-5.54,4.52-8.33,6.76l-8.42,6.62-4.21,3.32-4.26,3.23-8.52,6.48c-2.85,2.14-5.74,4.22-8.61,6.34l-4.31,3.16-2.16,1.58-2.18,1.53-8.72,6.17c-2.89,2.08-5.84,4.05-8.78,6.07l-8.81,6.01-8.91,5.85-4.46,2.93c-1.48.98-2.99,1.9-4.49,2.86l-9,5.68-2.25,1.42-2.27,1.38-4.55,2.75c-3.04,1.83-6.05,3.69-9.1,5.51l-9.19,5.35-18.52-32.01.03.03h0Z"/>
            <path class="cls-2" d="M6342.25,1164.54c-2.41-.49-4.56-1.86-6.03-3.84l-334.47-451.05c-3.29-4.43-2.36-10.69,2.06-13.98,27.83-20.71,54.27-42.74,78.6-65.45,2.37-2.21,5.65-3.14,8.83-2.49,2.04.42,3.91,1.46,5.33,2.99l382.38,411.22c3.76,4.04,3.53,10.36-.5,14.12-40.08,37.37-83.22,73.27-128.22,106.71-2.13,1.58-4.8,2.25-7.43,1.87-.18-.03-.36-.06-.54-.09Z"/>
            <path class="cls-2" d="M6089.24,637.53l382.38,411.22c-40.15,37.44-82.75,72.85-127.37,105.99l-334.47-451.05c27.4-20.4,53.98-42.38,79.45-66.16h0Z"/>
          </g>
          <g>
            <path class="cls-2" d="M6517.54,888.82c-1.65-.34-3.24-1.1-4.6-2.29l-27.45-24.14c-3.41-2.74-4.68-7.44-2.99-11.57h0c.47-1.17,1.15-2.2,1.97-3.07l4.33-4.9,4.47-5.18,8.95-10.41,8.81-10.52,4.38-5.24,4.32-5.29,8.65-10.63,8.52-10.73c2.85-3.56,5.66-7.2,8.39-10.72.96-1.24,1.93-2.5,2.91-3.76,1.81-2.34,3.63-4.68,5.42-7.04l2.56-3.39c4.55-6.03,9.26-12.26,13.75-18.42,4.65-6.26,9.23-12.66,13.67-18.84l2.35-3.28c1.62-2.26,3.22-4.55,4.82-6.84,1-1.43,2-2.86,3-4.28l3.9-5.57,3.81-5.55,7.66-11.22,7.54-11.3c38.84-58.58,75.21-121.39,108.08-186.65,2.08-4.12,6.61-6.18,10.93-5.3.85.17,1.69.46,2.5.87l33.04,16.63c2.37,1.19,4.17,3.28,5,5.8.83,2.52.63,5.27-.57,7.64-33.87,67.24-71.39,132.02-111.51,192.54,0,0-7.79,11.68-7.81,11.71l-7.87,11.53-3.97,5.78-6.44,9.21c-1.89,2.71-3.79,5.42-5.71,8.11l-2.18,3.04c-4.65,6.5-9.46,13.21-14.35,19.79-4.77,6.54-9.77,13.16-14.61,19.56l-2.24,2.97c-1.87,2.47-3.76,4.91-5.66,7.35-1,1.28-1.99,2.57-2.98,3.85l-1.11,1.43c-2.49,3.21-5.06,6.53-7.67,9.8,0,0-8.78,11.06-8.8,11.09l-8.9,10.93s-4.51,5.53-4.53,5.56l-4.52,5.41s-9.13,10.9-9.16,10.93l-9.21,10.72s-4.68,5.43-4.71,5.46l-4.69,5.31c-2.45,2.78-6.11,3.87-9.51,3.18Z"/>
            <path class="cls-2" d="M6491.76,854.6l4.58-5.18,4.51-5.23,9-10.47,8.85-10.57,4.42-5.29,4.36-5.34,8.69-10.69,8.56-10.78c2.86-3.58,5.67-7.2,8.47-10.83,2.79-3.62,5.62-7.23,8.39-10.88,5.51-7.3,11.05-14.58,16.43-21.97,5.45-7.34,10.74-14.77,16.06-22.19,2.66-3.71,5.24-7.46,7.87-11.19l3.92-5.6,3.86-5.63,7.7-11.28,7.57-11.34c40.2-60.63,76.31-123.4,108.69-187.7l33.04,16.63c-33.02,65.54-69.85,129.57-110.91,191.51l-7.74,11.6-7.87,11.53-3.95,5.76-4.01,5.72c-2.68,3.81-5.33,7.64-8.04,11.43-5.44,7.59-10.85,15.18-16.42,22.68-5.5,7.54-11.17,15-16.8,22.46-2.82,3.73-5.72,7.42-8.58,11.13-2.87,3.7-5.73,7.41-8.66,11.08l-8.75,11.02-8.9,10.93-4.45,5.46-4.52,5.41-9.07,10.82-9.21,10.72-4.61,5.36-4.69,5.31-27.77-24.43h0s0,0,0,0Z"/>
            <path class="cls-2" d="M6249.81,653.37c-1.65-.34-3.24-1.1-4.59-2.29l-27.78-24.42c-1.99-1.75-3.21-4.22-3.38-6.87-.17-2.65.72-5.25,2.47-7.25,71.67-81.41,135.51-177.27,189.75-284.91,2.08-4.12,6.61-6.18,10.93-5.3.85.17,1.69.46,2.5.87l33.03,16.62c2.37,1.19,4.17,3.28,5,5.8s.63,5.27-.56,7.63c-27.49,54.57-57.83,107-90.18,155.81,0,0-6.22,9.32-6.24,9.35,0,0-9.43,13.8-9.45,13.83l-3.18,4.54c-.85,1.2-1.68,2.39-2.51,3.58-1.29,1.85-2.59,3.71-3.9,5.55l-2.93,4.08c-3.28,4.58-6.68,9.31-10.11,13.93-3.45,4.75-7.01,9.46-10.45,14.01l-2.84,3.76c-1.42,1.89-2.87,3.75-4.32,5.62-.82,1.06-1.64,2.12-2.46,3.18l-1.18,1.53c-1.85,2.39-3.77,4.87-5.71,7.3,0,0-6.86,8.64-6.88,8.67,0,0-10.45,12.83-10.48,12.87,0,0-10.61,12.68-10.64,12.71l-7.13,8.29s-3.62,4.22-3.66,4.26l-3.62,4.09c-2.46,2.77-6.11,3.86-9.5,3.17Z"/>
            <path class="cls-2" d="M6224.04,619.15c74.63-84.78,138.44-182.37,191.17-287.02l33.03,16.62c-26.98,53.58-56.85,105.4-89.58,154.78l-6.16,9.23-6.26,9.15-3.13,4.58-3.18,4.54c-2.13,3.02-4.22,6.06-6.36,9.06-4.3,5.98-8.57,12-12.96,17.9-4.33,5.96-8.79,11.8-13.21,17.67-2.21,2.94-4.48,5.81-6.72,8.72-2.25,2.9-4.48,5.81-6.77,8.67l-6.83,8.61-6.93,8.52-3.46,4.25-3.51,4.2-7.03,8.4-7.13,8.29-3.56,4.15-3.62,4.09-27.78-24.42Z"/>
            <path class="cls-2" d="M6678.33,822.21c-1.39-.28-2.72-.86-3.89-1.72l-453.86-330.65c-4.46-3.25-5.45-9.51-2.2-13.97,21.02-28.87,41.39-59.58,60.53-91.27,1.8-2.97,5.01-4.8,8.48-4.83.71,0,1.4.06,2.08.2,1.24.25,2.42.74,3.47,1.43l480.35,290.15c2.27,1.37,3.9,3.59,4.54,6.16.64,2.58.22,5.3-1.15,7.57-27.74,45.92-57.44,90.67-88.27,133.02-1.56,2.14-3.91,3.58-6.53,3.99-1.19.19-2.39.16-3.55-.08Z"/>
            <path class="cls-2" d="M6287.48,389.79l480.65,290.33c-27.19,45.01-56.41,89.2-87.8,132.3l-453.86-330.65c21.44-29.45,41.79-60.18,61-91.99h0Z"/>
          </g>
          <g>
            <path class="cls-2" d="M6764.96,518.34c-.86-.18-1.7-.46-2.49-.86l-33.05-16.62c-4.93-2.48-6.92-8.49-4.44-13.43,31.87-63.41,60.67-129.52,85.6-196.5,12.61-33.89,24.27-68.16,34.66-101.85,5.58-18.13,10.55-35.26,15.19-52.36,2.53-9.33,4.84-18.15,7.04-26.98,1.09-4.4,2.26-9.14,3.39-13.99l1.71-7.41.9-4.05,1.05-4.93c1.14-5.37,6.4-8.82,11.78-7.72l36.24,7.4c2.61.53,4.91,2.09,6.37,4.32,1.46,2.23,1.97,4.96,1.41,7.57l-1.17,5.48-.98,4.46-1.81,7.85c-1.08,4.58-2.21,9.27-3.59,14.8-2.2,8.85-4.6,18.05-7.34,28.14-4.76,17.53-9.91,35.26-15.73,54.2-10.71,34.74-22.73,70.04-35.72,104.94-25.67,68.94-55.3,136.98-88.09,202.22-1.19,2.37-3.28,4.17-5.79,5-1.67.55-3.45.65-5.14.3Z"/>
            <path class="cls-2" d="M6733.92,491.93c32.33-64.34,60.97-130.17,86.04-197.5,12.53-33.67,24.16-67.73,34.85-102.39,5.34-17.35,10.44-34.84,15.29-52.69,2.42-8.93,4.79-17.95,7.09-27.18,1.15-4.63,2.29-9.29,3.43-14.14l1.71-7.44.91-4.13,1.06-5.01,36.24,7.4-1.17,5.48-.97,4.4-1.79,7.76c-1.18,5.04-2.36,9.85-3.55,14.63-2.37,9.53-4.8,18.78-7.29,27.94-4.97,18.3-10.19,36.16-15.63,53.88-10.91,35.38-22.76,70.08-35.53,104.39-25.54,68.59-54.7,135.64-87.65,201.22l-33.04-16.62h0Z"/>
            <path class="cls-2" d="M6446.46,358.13c-.86-.18-1.7-.46-2.49-.86l-32.75-16.47c-4.17-1.92-6.54-6.49-5.61-11.08h0c.19-.96.52-1.87.97-2.71,26.01-51.8,49.51-105.76,69.85-160.4,10.26-27.58,19.71-55.32,28.08-82.46,4.36-14.18,8.35-27.93,11.85-40.85,1.77-6.53,3.51-13.17,5.16-19.77.71-2.86,1.53-6.2,2.24-9.25l.99-4.29.33-1.5.1-.5c1.1-5.41,6.39-8.9,11.8-7.8l36.24,7.4c2.63.54,4.93,2.1,6.39,4.35s1.96,4.99,1.38,7.61l-.66,2.97-1.09,4.71c-.76,3.28-1.61,6.73-2.44,10.06-1.67,6.68-3.5,13.71-5.46,20.93-3.63,13.39-7.8,27.75-12.39,42.69-8.72,28.29-18.52,57.08-29.13,85.56-21.09,56.66-45.46,112.63-72.45,166.34-1.19,2.37-3.27,4.17-5.79,5-1.67.55-3.45.65-5.14.3Z"/>
            <path class="cls-2" d="M6415.42,331.73c26.3-52.36,49.88-106.51,70.39-161.62,10.25-27.54,19.73-55.32,28.27-83,4.25-13.83,8.28-27.63,11.95-41.18,1.84-6.77,3.59-13.47,5.21-19.96.8-3.22,1.59-6.43,2.28-9.42l.99-4.3.37-1.65.12-.59,36.24,7.4-.66,2.97-1.07,4.62c-.74,3.19-1.57,6.54-2.4,9.91-1.69,6.77-3.5,13.72-5.4,20.71-3.8,13.99-7.94,28.19-12.3,42.38-8.76,28.4-18.45,56.84-28.94,85.01-20.98,56.37-45.08,111.74-72.01,165.34l-33.04-16.62h0Z"/>
            <path class="cls-2" d="M6902.91,418.73c-.62-.13-1.24-.31-1.83-.56l-518.67-215.18c-5.1-2.12-7.52-7.97-5.41-13.07,14.51-34.99,27.73-70.53,39.28-105.62,1.59-4.84,6.56-7.68,11.49-6.67.19.04.38.08.57.13.34.09.68.2,1,.32l532.96,175.36c2.52.83,4.61,2.63,5.8,4.99,1.19,2.37,1.4,5.11.57,7.63-16.09,48.85-34.44,98.2-54.53,146.69-1.02,2.45-2.96,4.4-5.41,5.41-1.86.77-3.88.95-5.82.56Z"/>
            <path class="cls-2" d="M6425.78,87.44l533.4,175.51c-16.35,49.64-34.43,98.13-54.27,145.98l-518.67-215.18c14.53-35.04,27.82-70.7,39.54-106.32h0Z"/>
          </g>
        </g>
      </g>
    </g>
  </g>
</svg>